<?xml version="1.0" encoding="UTF-8"?><svg id="Layer_1" xmlns="http://www.w3.org/2000/svg" viewBox="0 0 256 256"><defs><style>.cls-1{opacity:.2;}.cls-1,.cls-2,.cls-3,.cls-4,.cls-5,.cls-6,.cls-7,.cls-8,.cls-9{fill-rule:evenodd;}.cls-10,.cls-7{fill:#009ad3;}.cls-11,.cls-5{fill:#cc966e;}.cls-12,.cls-4{fill:#242424;}.cls-2{fill:#3d3d3d;}.cls-3{fill:#141414;}.cls-6{fill:#dda576;}.cls-8{fill:#fcdbbb;}.cls-9{fill:#fcc48a;}</style></defs><path class="cls-1" d="M218.24,150.02c0-3.5-1.7-6.6-4.32-8.54h0s-.09-.08-.26-.19c-.07-.05-.15-.1-.22-.15-.08-.06-.17-.12-.28-.18,2.74-11.37,3.58-32.27,1.39-38.51-1.79-5.1-4.52-7.81-7.53-9.28-.18-.09-.3-.15-.3-.15h-.02l-.05-.03c.08-.29,.47-1.79,.76-4.56h0c2.82-23.75-13.44-36.12-24.2-41.84-.36-.19-.75-.39-1.13-.58-2.11-6.73-15.19-6.95-19.17-7.44-.21-.03-.41-.04-.62-.05-14.28-4.06-31.48-6.53-46.78-4.53-5.17-1.93-13.18-.88-16.17-.75-3.97,.16-7.16,2.8-7.71,6.12-4.66-.57-10.86,.56-15.62,1.98-4.06,1.21-6.46,5.33-5.61,9.4-4.42,.6-9.63,2.63-13.62,4.69-3.51,1.81-5.14,5.83-4.06,9.48-.48,.21-1.08,.47-1.9,.88-9.39,4.7-8.27,12.38-2.3,14.71-1.65,2.15-2.17,5.06-1.19,7.72-1.63,1.03-3.34,1.99-5.08,2.79-8.43,3.87-4.4,16.61,7.06,13.35-.04,.3-.18,1.35-.3,3.56h0c-.53,9.81,.68,24.88,3.05,32.94-.26,.15-.51,.31-.75,.48-.08,.05-.13,.08-.13,.08h0c-2.65,1.94-4.39,5.07-4.39,8.6,0,19.21,7.93,26.92,12.45,28.71,1.18,4.55,2.64,8.95,4.42,12.58,6.08,12.37,28.81,39,68.86,40.05,15.1-.4,27.84-4.43,38.18-9.97,17.19-9.15,27.77-22.45,31.57-30.19,1.81-3.68,3.19-8.16,4.25-12.8,.07-.04,.14-.08,.21-.11,1.4-.6,1.72-1.09,1.74-1.13,4.41-3.36,9.75-11.38,9.75-27.14Z"/><g><path class="cls-7" d="M55.42,134.29c.54-.09,1.1-.13,1.67-.13,5.87,0,10.63,4.76,10.63,10.63s-1.05,29.14-6.92,29.14c-.58,0-1.33-.17-2.2-.56-2.42-11.85-3.77-25.72-3.19-39.08Z"/><path class="cls-7" d="M72.4,90.92c.12,2.19,.06,5.23,.28,9.35,.59,11.37-11.13,42.67-16.99,42.98-.18,0-.36-.02-.53-.08-.29-20.99,4.15-41.61,17.25-52.24Z"/><path class="cls-7" d="M49.01,105.08c.17-3.38,.54-6.17,1.13-7.87,3.77-10.75,11.72-10.88,17.57-11.18,5.74-.3,4.43,2.73,4.93,13.55-7.63,1.41-15.37,3.17-23.64,5.5Z"/><path class="cls-7" d="M205.64,177.74c-.67,.25-1.26,.37-1.73,.37-5.87,0-6.92-23.27-6.92-29.14s4.76-10.63,10.63-10.63c.77,0,1.51,.08,2.23,.24,.14,13.79-1.52,27.74-4.21,39.16Z"/><path class="cls-7" d="M194.39,90.46c12.47,11.9,16.34,34.58,15.45,56.75-.27,.16-.54,.24-.82,.23-5.86-.31-17.59-31.6-16.99-42.98,.48-9.22-.4-13.04,2.36-14Z"/><path class="cls-7" d="M192.22,98.04c.1-6.19,.22-8.05,4.77-7.81,5.86,.31,13.8,.43,17.57,11.18l.04,.12c-7.23-1.34-14.7-2.51-22.38-3.49Z"/><path class="cls-7" d="M63.97,101.18c2.7-5.84,6.26-10.79,10.84-14.38,22.41-17.55,93.78-20.11,115.88-2.08,4.41,3.6,7.87,8.61,10.5,14.56-21.35-3.2-44.47-4.95-68.62-4.95-20.69-.27-44.68,2.22-68.6,6.85Z"/><path class="cls-7" d="M121.03,87.16c10.49-.35,8.53,16.05,8.53,20.52s-3.82,8.1-8.53,8.1-8.53-3.63-8.53-8.1c0-8.3,2.02-20.3,8.53-20.52Z"/><path class="cls-7" d="M133.73,91.57c9.16-.35,7.45,16.05,7.45,20.52s-3.34,8.1-7.45,8.1-7.45-3.63-7.45-8.1-1.71-20.17,7.45-20.52Z"/><path class="cls-7" d="M144.65,83.99c5.43-.2,8,13.25,8,20.52,0,4.47-3.58,8.1-8,8.1s-8-3.63-8-8.1-1.84-20.17,8-20.52Z"/><path class="cls-7" d="M121.62,85.17c9.95-.35,8.1,16.05,8.1,20.52s-3.63,8.1-8.1,8.1-8.1-3.63-8.1-8.1c0-8.3,1.92-20.3,8.1-20.52Z"/><path class="cls-7" d="M133.67,89.58c8.69-.35,7.07,16.05,7.07,20.52s-3.17,8.1-7.07,8.1-7.07-3.63-7.07-8.1-1.62-20.17,7.07-20.52Z"/><path class="cls-7" d="M144.03,82.01c5.15-.2,7.59,13.25,7.59,20.52,0,4.47-3.4,8.09-7.59,8.09s-7.59-3.63-7.59-8.09-1.74-20.17,7.59-20.52Z"/><ellipse class="cls-10" cx="97.07" cy="148.03" rx="9.21" ry="17.3"/><ellipse class="cls-10" cx="164.91" cy="148.03" rx="9.21" ry="17.3"/><ellipse class="cls-10" cx="97.07" cy="146.44" rx="9.21" ry="17.3"/><ellipse class="cls-10" cx="164.91" cy="146.44" rx="9.21" ry="17.3"/><path class="cls-7" d="M157.17,190.56c-7.14,3.12-15.57,4.91-24.6,4.91s-17.46-1.8-24.6-4.91c7.71,1.93,15.98,2.98,24.6,2.98s16.89-1.04,24.6-2.98Z"/><path class="cls-7" d="M124.31,170.22c2.41,1.61,5.24,2.54,8.26,2.54s5.85-.93,8.26-2.54c-2.03,3.59-4.98,5.85-8.26,5.85s-6.23-2.26-8.26-5.85Z"/><path class="cls-8" d="M57.43,135.2c5.87,0,10.63,4.76,10.63,10.63s-1.05,29.14-6.92,29.14c-3.61,0-14.34-6.81-14.34-29.14,0-5.86,4.76-10.63,10.63-10.63Z"/><path class="cls-9" d="M55.42,131.15c.54-.09,1.1-.13,1.67-.13,5.87,0,10.63,4.76,10.63,10.63s-1.05,29.14-6.92,29.14c-.58,0-1.33-.17-2.2-.56-2.42-11.85-3.77-25.72-3.19-39.08Z"/><path class="cls-5" d="M51.19,137.23s1.16,4.53,2.75,7.25c0,0-.32,17.24,2.93,28.48,0,0,.32,.59,2.09,1.28l-.59-15.77-2.17-16.56-1.38-3.74s-.85-2.69-1.4-2.35c-1.34,.83-2.23,1.4-2.23,1.4Z"/><path class="cls-4" d="M67.72,84.98c5.86-.31,4.37,2.86,4.96,14.23,.59,11.37-11.13,42.67-16.99,42.98-5.72,.3-8.61-37.28-5.54-46.03,3.77-10.75,11.72-10.88,17.57-11.18Z"/><path class="cls-3" d="M72.4,87.78c.12,2.19,.06,5.23,.28,9.35,.59,11.37-11.13,42.67-16.99,42.98-.18,0-.36-.02-.53-.08-.29-20.99,4.15-41.61,17.25-52.24Z"/><path class="cls-3" d="M78.74,49.04c4.87,8.69-10.57,14.54-14.54,16.59-3.97,2.04-8.86,.48-10.9-3.49-2.04-3.97-.48-8.86,3.49-10.9,7.38-3.8,18.93-7.58,21.95-2.19Z"/><path class="cls-8" d="M207.61,135.21c-5.87,0-10.63,4.76-10.63,10.63s1.05,29.14,6.92,29.14c3.61,0,14.34-6.81,14.34-29.14,0-5.87-4.76-10.63-10.63-10.63Z"/><path class="cls-5" d="M213.92,137.29s-.91,4.47-2.5,7.2c0,0,.32,17.24-2.93,28.48,0,0-.32,.59-2.09,1.28l.59-15.77,2.17-16.56,1.38-3.74s.73-2.61,1.28-2.27c1.34,.83,2.1,1.38,2.1,1.38Z"/><path class="cls-9" d="M205.64,174.6c-.67,.25-1.26,.37-1.73,.37-5.87,0-6.92-23.27-6.92-29.14s4.76-10.63,10.63-10.63c.77,0,1.51,.08,2.23,.24,.14,13.79-1.52,27.74-4.21,39.16Z"/><path class="cls-4" d="M196.99,87.08c-5.86-.31-4.37,2.86-4.96,14.23-.59,11.37,11.13,42.67,16.99,42.98,5.72,.3,8.61-37.28,5.54-46.03-3.77-10.75-11.72-10.88-17.57-11.18Z"/><path class="cls-3" d="M194.39,87.31c12.47,11.9,16.34,34.58,15.45,56.75-.27,.16-.54,.24-.82,.23-5.86-.31-17.59-31.6-16.99-42.98,.48-9.22-.4-13.04,2.36-14Z"/><path class="cls-8" d="M190.69,81.58c22.09,18.03,20.21,71.43,11.46,100.13-8.75,28.7-42.29,44.61-69.79,44.31-27.5-.29-61.51-17.04-69.76-45.92-8.24-28.88-10.19-78.89,12.22-96.44,22.41-17.55,93.78-20.11,115.88-2.08Z"/><path class="cls-5" d="M88.27,75.32c8.98,4.31-.28,17.98-2.35,21.93-2.07,3.96-6.97,5.49-10.93,3.41-3.96-2.07-5.49-6.97-3.41-10.93,3.85-7.35,11.12-17.09,16.69-14.42Z"/><path class="cls-5" d="M60.33,108.2c.71,.18,1.64,.4,2.08,.5,4.37,.94,8.68-1.85,9.61-6.22,.94-4.37,6.19-20.02-3.61-21.76,0,0-7.35,24.8-8.08,27.48Z"/><path class="cls-5" d="M108.88,73.03c1.84,1.31,12.13-10.18,11.19-8.66-12.42,20.1-15.18,26.8-17.31,29.86-2.55,3.67-7.81,4.2-11.35,1.47-3.54-2.73-4.2-7.81-1.47-11.35,5.07-6.58,13.91-14.91,18.94-11.32Z"/><path class="cls-4" d="M97.99,39.04c3.18,9.44-13.07,12.34-17.35,13.62-4.28,1.28-8.79-1.16-10.07-5.45-1.28-4.28,1.16-8.79,5.45-10.07,7.96-2.37,20-3.96,21.98,1.9Z"/><path class="cls-4" d="M120.14,35.27c.71,8.67-15.75,7.72-20.21,7.9-4.46,.18-8.22-2.83-8.38-6.73-.16-3.9,3.33-7.21,7.8-7.39,4.46-.18,20.08-2.45,20.79,6.22Z"/><path class="cls-3" d="M182.35,44.43c-.44,5.13-14.08,5.9-21.3,5.01-4.43-.55-7.62-4.37-7.1-8.53,.51-4.16,4.53-7.08,8.97-6.54,4.43,.55,20.23,.75,19.43,10.05Z"/><ellipse class="cls-11" cx="98.65" cy="143.83" rx="9.21" ry="17.61"/><ellipse class="cls-11" cx="166.49" cy="143.78" rx="9.21" ry="17.56"/><ellipse class="cls-12" cx="98.65" cy="141.94" rx="9.21" ry="17.3"/><ellipse class="cls-12" cx="166.49" cy="141.94" rx="9.21" ry="17.3"/><path class="cls-5" d="M157.17,187.41c-7.14,3.12-15.57,4.91-24.6,4.91s-17.46-1.8-24.6-4.91c7.71,1.93,15.98,2.98,24.6,2.98s16.89-1.04,24.6-2.98Z"/><path class="cls-5" d="M50.83,63.69c5.6-2.8,.7,.9,21.63-12.8,8.24-5.39,8.36-6.93,27.56-14.99,25.79-10.82,62.54,18.97,80.46,28.5,12.7,6.75,21.51,33.63,21.91,34.74-28.86-27.35-52.33-11.6-70.42-11.81-16.96-.2-45.83-10.88-73.56,11.88l-7.59-35.52Z"/><path class="cls-5" d="M123.12,167.13c2.76,1.72,5.99,2.72,9.45,2.72s6.69-.99,9.44-2.72c-2.32,3.84-5.7,6.26-9.44,6.26s-7.12-2.42-9.45-6.26Z"/><path class="cls-3" d="M73.38,72.24c4.69,8.79-10.87,14.32-14.89,16.28-4.01,1.96-8.87,.29-10.83-3.72-1.96-4.02-.29-8.87,3.72-10.83,7.46-3.64,19.08-7.18,21.99-1.73Z"/><path class="cls-3" d="M62.41,101.37l-1.49,4.14s-2.96,.11-5.32-4.32c0,0-2.42,2.73-6.58,2.55,.15-2.66,.31-3.66,.31-3.66l3.18-3.01,3.66-1.55,1.97,.67,3.42,3.3,.84,1.89Z"/><path class="cls-4" d="M131.31,80.8c18.09,.21,51.63-12.46,72.59,17.41,12.38-33.05-7.98-49.06-20.68-55.81-17.93-9.53-57.41-19.41-83.2-8.59-19.2,8.05-19.32,9.59-27.56,14.99-20.93,13.71-16.03,10-21.63,12.8-9.72,4.86-8.18,12.92-1.66,14.93,4.1,1.27,10.31-2.25,10.31-2.25,0,0-8.25,8.42-17.23,12.54-10.39,4.76-1.87,23,16.16,8.2,27.73-22.76,55.93-14.42,72.89-14.22Z"/><path class="cls-3" d="M111.01,72.45s23.65,3.25,51.44-2.07,38.06,23.43,38.06,23.43c0,0-11.53-15.62-36.07-15.59-14.17,.01-24.98,5-57.43,.94-1.5-.19,3.99-6.7,3.99-6.7Z"/><path class="cls-3" d="M122.25,61.81s-7.19,12.12-2.66,12.42l-3.65,.99-6.06-.69,2.71-5.27,8.72-7.1,.94-.34Z"/><path class="cls-4" d="M68.41,73.39c9.81,1.74,4.55,17.39,3.61,21.76-.94,4.37-5.24,7.15-9.61,6.22-4.37-.94-7.16-5.24-6.22-9.61,1.74-8.12,6.13-19.45,12.22-18.37Z"/><path class="cls-4" d="M108.88,65.7c1.49,1.07,14.41-4.87,13.36-3.9-12.56,11.68-17.25,22.21-19.47,25.09-2.73,3.54-7.81,4.2-11.35,1.47-3.54-2.73-4.2-7.81-1.47-11.35,5.07-6.58,13.91-14.91,18.94-11.32Z"/><path class="cls-3" d="M104.95,60.18s-11.16,18.7-10.94,22.76c.29,5.24,1.85,7.08,1.85,7.08,0,0-2.34,.09-4.77-1.92-1.96-1.63-2.59-4.06-2.59-4.06l.53-7.35,5.62-8.67,10.3-7.83Z"/><path class="cls-3" d="M71.87,95.77s-1.92-1.29-2.91-3.76c-.99-2.46-1.08-7.19,4.54-13.9s14.94-17,14.94-17l-15.57,30.6-1,4.06Z"/><path class="cls-4" d="M92.88,58.06c2.6,1.25,13.72,.43,12.07,2.12-13.45,13.75-17.56,26.94-19.04,29.75-2.07,3.96-6.97,5.49-10.93,3.41-.91-.48-1.7-1.11-2.34-1.84-2.14-2.44-2.67-6.04-1.08-9.09,3.85-7.35,12.32-19.11,21.31-24.35Z"/><g><path class="cls-5" d="M208.27,138.08s-.09,13.61-6.58,29.05c-6.12,14.57-29.7,15.17-31.92,15.24,.07-.71,.01-.97-.06-1.04,1.91-.06,24.35-1.09,30.58-15.75,0,0,5.45-20.97,7.96-29.32l.02,1.83"/><path class="cls-5" d="M127.54,215.75c.77-.75,2.05-2.13,1.79-4.14-.2,1.46-1.17,2.49-1.79,3.1-12.08-2.04-21.55-11.74-21.8-20.01-.01,.17-.03,.33-.03,.48-.18,8.39,9.48,18.49,21.83,20.58Z"/><path class="cls-5" d="M138.11,214.44c-.61-.62-1.36-1.57-1.53-2.83-.23,1.8,.77,3.09,1.53,3.87,11.35-2.47,21.17-11.44,20.7-19.37v-.03c-.38,7.66-9.83,15.98-20.7,18.34Z"/><path class="cls-5" d="M163.7,191.62s3.43,4.06,5.24-3.77c.89-3.84,.93-5.03,.82-5.37-.08,.8-.31,2.13-.82,4.33-1.73,7.46-4.92,4.14-5.22,3.8,0,.64-.03,1.02-.03,1.02Z"/><path class="cls-5" d="M56.71,143.6c.02-6.23,.3-9.85,.3-9.85,0,0,4.43,17.64,8.54,32.92,6.18,14.55,28.61,15.63,30.83,15.7-.07-.71-.01-.97,.06-1.04-1.91-.06-24.66-1.04-30.89-15.7"/><path class="cls-5" d="M97.21,187.84c1.81,7.83,5.24,3.77,5.24,3.77,0,0-.02-.38-.03-1.02-.3,.33-3.49,3.65-5.22-3.8-.51-2.2-.74-3.53-.82-4.33-.1,.35-.06,1.54,.82,5.37Z"/></g><path class="cls-4" d="M209.83,127.87s-2.73,23.49-9.23,38.79c-6.23,14.66-28.98,15.65-30.89,15.7,.15,.16,.24,1.1-.77,5.48-1.81,7.83-5.24,3.77-5.24,3.77,0,0,.63-14.47-3.77-15.73-4.4-1.26-15.93-1.68-19.5-.21-1.97,.81-4.74,1.13-7.36,1.07-2.62,.1-5.29-.22-7.33-1.07-3.56-1.47-15.1-1.05-19.5,.21-4.4,1.26-3.77,15.73-3.77,15.73,0,0-3.43,4.06-5.24-3.77-1.01-4.38-.92-5.31-.77-5.48-1.91-.06-24.66-1.04-30.89-15.7-6.5-15.31-10.27-38.79-10.27-38.79,0,0-.67,13.75-.23,19.56,.44,5.81,2.75,27.2,8.83,39.57s28.81,39,68.86,40.05c40.05-1.05,63.47-27.68,69.55-40.05,6.08-12.37,7.34-33.76,7.78-39.57,.44-5.81-.23-19.56-.23-19.56Zm-71.72,87.61c-1.21-1.25-3.01-3.75,.41-7.54,8.86-4.44,15.84-14.3,11.81-15.93-7.82,2.07-12.13,2.19-17.37,2.24h0c-5.24-.06-9.55-.17-17.37-2.24-4.03,1.63,2.95,11.49,11.81,15.93,3.69,4.09,1.31,6.68,.14,7.81-12.35-2.09-22.01-12.19-21.83-20.58,.06-2.7,2.01-7.74,2.01-7.74,0,0,10.28,2.16,22.5,1.05,2.71-.62,3.24-.62,5.45,0,8.73,.76,20.64-1.05,20.64-1.05,0,0,2.31,5.73,2.49,8.69,.47,7.92-9.35,16.89-20.7,19.37Z"/><g><path class="cls-3" d="M155.86,185.44s-11.79,1.8-20.42,1.05c-2.18-.62-2.71-.62-5.39,0-12.09,1.11-22.25-1.05-22.25-1.05l-.27,2.09s10.28,2.16,22.5,1.05c2.71-.62,3.24-.62,5.45,0,8.73,.76,21.69-1.05,21.69-1.05"/><path class="cls-3" d="M163.16,190.68s.13,.16,.36,.35c.04-2.06,.04-8.25-1.35-12.05,1.29,4.69,.99,11.69,.99,11.69Z"/><path class="cls-3" d="M209.63,127.98s-.2,1.75-.63,4.58c.14,4.48,.26,10.55,0,13.93-.44,5.81-4.82,27.2-10.84,39.57-6.01,12.37-26.04,34.81-65.65,35.86-39.61-1.05-58.95-23.49-64.96-35.86-6.01-12.37-11.44-33.76-11.87-39.57-.27-3.6,.41-10.26,.56-14.8-.43-2.32-.66-3.72-.66-3.72,0,0-1.2,13.75-.76,19.56,.44,5.81,2.75,27.2,8.83,39.57,6.08,12.37,28.81,39,68.86,40.05,40.05-1.05,63.47-27.68,69.55-40.05,6.08-12.37,7.34-33.76,7.78-39.57,.44-5.81-.23-19.56-.23-19.56Z"/></g><path class="cls-3" d="M98.65,152.96c-4.51,0-8.27-6.11-9.05-14.16-.1,1.02-.16,2.07-.16,3.14,0,9.55,4.13,17.3,9.21,17.3s9.21-7.75,9.21-17.3c0-1.07-.06-2.12-.16-3.14-.79,8.05-4.54,14.16-9.05,14.16Z"/><path class="cls-3" d="M166.49,152.96c-4.51,0-8.27-6.11-9.05-14.16-.1,1.02-.16,2.07-.16,3.14,0,9.55,4.13,17.3,9.21,17.3s9.21-7.75,9.21-17.3c0-1.07-.06-2.12-.16-3.14-.79,8.05-4.54,14.16-9.05,14.16Z"/><g><path class="cls-6" d="M154.47,109.21c6.18-2.97,10.71-5.38,27.3,3.45,12.22,6.5-2.66,4.2-2.66,4.2,0,0-11.59-2.55-22.47-1.77-5.72,0-4.83-4.59-2.17-5.88Z"/><path class="cls-4" d="M154.57,108.71c6.18-2.97,10.61-5.28,27.2,3.55,12.22,6.5-2.66,3.55-2.66,3.55,0,0-11.59-2.55-22.47-1.77-5.72,0-4.73-4.04-2.07-5.32Z"/><path class="cls-3" d="M157.68,111.94c-3.1,0-4.22-1.19-4.18-2.48-1.74,1.66-1.73,4.58,3.13,4.58,10.87-.78,22.47,1.77,22.47,1.77,0,0,7.18,1.42,7.46,.11-3-.89-6.41-2.21-6.41-2.21,0,0-11.59-2.55-22.47-1.77Z"/></g><g><path class="cls-6" d="M108.07,109.21c-6.18-2.97-10.71-5.38-27.3,3.45-12.22,6.5,2.66,4.2,2.66,4.2,0,0,11.59-2.55,22.47-1.77,5.72,0,4.83-4.59,2.17-5.88Z"/><path class="cls-4" d="M107.98,108.71c-6.18-2.97-10.61-5.28-27.2,3.55-12.22,6.5,2.66,3.55,2.66,3.55,0,0,11.59-2.55,22.47-1.77,5.72,0,4.73-4.04,2.07-5.32Z"/><path class="cls-3" d="M104.86,111.94c3.1,0,4.22-1.19,4.18-2.48,1.74,1.66,1.73,4.58-3.13,4.58-10.87-.78-22.47,1.77-22.47,1.77,0,0-7.18,1.42-7.46,.11,3-.89,6.41-2.21,6.41-2.21,0,0,11.59-2.55,22.47-1.77Z"/></g><path class="cls-3" d="M196.3,85.91s5.99,2.17,11.13-1.67c-.33,3.1-.78,4.63-.78,4.63,0,0-3.4,.11-7.06,2.7l-3.29-5.65Z"/><path class="cls-2" d="M200.51,93.81s4.18,1.14,8.72-3.46c-1.03-.82-2.5-1.51-2.5-1.51,0,0-3.49,.09-7.15,2.73l.92,2.24Z"/><g><circle class="cls-11" cx="179.64" cy="160.9" r=".3"/><circle class="cls-11" cx="186.44" cy="157.06" r=".39"/><circle class="cls-11" cx="182.06" cy="164.7" r=".25"/><circle class="cls-11" cx="174.17" cy="163.71" r=".44"/><circle class="cls-11" cx="177.23" cy="164.5" r=".15"/><circle class="cls-11" cx="181.32" cy="155.39" r=".1"/><circle class="cls-11" cx="185.01" cy="161.45" r=".15"/><circle class="cls-11" cx="191.12" cy="164.21" r=".15"/><circle class="cls-11" cx="191.27" cy="160.02" r=".2"/><circle class="cls-11" cx="188.41" cy="158.54" r=".2"/><circle class="cls-11" cx="179.74" cy="168.98" r=".1"/><circle class="cls-11" cx="178.56" cy="166.82" r=".1"/><circle class="cls-11" cx="185.85" cy="165.54" r=".2"/><circle class="cls-11" cx="186.74" cy="168.29" r=".1"/><circle class="cls-11" cx="182.94" cy="167.85" r=".25"/></g><g><circle class="cls-11" cx="85.04" cy="160.9" r=".3"/><circle class="cls-11" cx="78.24" cy="157.06" r=".39"/><circle class="cls-11" cx="82.63" cy="164.7" r=".25"/><circle class="cls-11" cx="90.51" cy="163.71" r=".44"/><circle class="cls-11" cx="87.46" cy="164.5" r=".15"/><circle class="cls-11" cx="83.37" cy="155.39" r=".1"/><circle class="cls-11" cx="79.67" cy="161.45" r=".15"/><circle class="cls-11" cx="73.56" cy="164.21" r=".15"/><circle class="cls-11" cx="73.41" cy="160.02" r=".2"/><circle class="cls-11" cx="76.27" cy="158.54" r=".2"/><circle class="cls-11" cx="84.94" cy="168.98" r=".1"/><circle class="cls-11" cx="86.13" cy="166.82" r=".1"/><circle class="cls-11" cx="78.83" cy="165.54" r=".2"/><circle class="cls-11" cx="77.95" cy="168.29" r=".1"/><circle class="cls-11" cx="81.74" cy="167.85" r=".25"/></g></g></svg>