<?xml version="1.0" encoding="UTF-8"?>
<svg width="95px" height="116px" viewBox="0 0 95 116" version="1.1" xmlns="http://www.w3.org/2000/svg" xmlns:xlink="http://www.w3.org/1999/xlink">
    <title>apple</title>
    <g id="icons" stroke="none" stroke-width="1" fill="none" fill-rule="evenodd">
        <g id="Client-logos" transform="translate(-132.000000, -137.000000)" fill="#000000" fill-rule="nonzero">
            <g id="apple" transform="translate(132.000000, 137.000000)">
                <path d="M91.4287429,39.5483548 C90.7558756,40.070407 78.8762876,46.7642764 78.8762876,61.6485649 C78.8762876,78.8646865 93.9925993,84.9552955 94.4450445,85.1061106 C94.3754375,85.4773477 92.0436044,93.4473447 86.4750475,101.568157 C81.509751,108.714471 76.3240324,115.849185 68.4352435,115.849185 C60.5464546,115.849185 58.5162516,111.266727 49.4093409,111.266727 C40.5344534,111.266727 37.3789379,116 30.1630163,116 C22.9470947,116 17.9121912,109.387339 12.1232123,101.266527 C5.41774177,91.730373 0,76.9156916 0,62.8550855 C0,40.3024302 14.6638664,28.3416342 29.0957096,28.3416342 C36.7640764,28.3416342 43.1563156,33.3765377 47.9707971,33.3765377 C52.5532553,33.3765377 59.69957,28.040004 68.4236424,28.040004 C71.729973,28.040004 83.609561,28.3416342 91.4287429,39.5483548 Z M64.2820282,18.4922492 C67.889989,14.2114211 70.4422442,8.27162716 70.4422442,2.33183318 C70.4422442,1.50815082 70.3726373,0.672867287 70.2218222,0 C64.3516352,0.220422042 57.3677368,3.90959096 53.1565157,8.79367937 C49.850185,12.5524552 46.7642764,18.4922492 46.7642764,24.5132513 C46.7642764,25.4181418 46.9150915,26.3230323 46.9846985,26.6130613 C47.3559356,26.6826683 47.9591959,26.7638764 48.5624562,26.7638764 C53.8293829,26.7638764 60.4536454,23.2371237 64.2820282,18.4922492 Z" id="Shape"></path>
            </g>
        </g>
    </g>
</svg>