<?xml version="1.0" encoding="UTF-8"?>
<svg width="211px" height="84px" viewBox="0 0 211 84" version="1.1" xmlns="http://www.w3.org/2000/svg" xmlns:xlink="http://www.w3.org/1999/xlink">
    <title>ibm-d</title>
    <g id="icons" stroke="none" stroke-width="1" fill="none" fill-rule="evenodd">
        <g id="Client-logos---dark-mode" transform="translate(-1169.000000, -152.000000)" fill="#78A9FF" fill-rule="nonzero">
            <g id="ibm-d" transform="translate(1169.500000, 152.705808)">
                <path d="M40.7983333,77.9407122 L40.7983333,83.239197 L0,83.239197 L0,77.9407122 L40.7983333,77.9407122 Z M103.956273,77.9407122 C100.088379,81.2257728 95.0548182,83.239197 89.5443939,83.239197 L89.5443939,83.239197 L46.6266666,83.239197 L46.6266666,77.9407122 L103.956273,77.9407122 Z M145.708333,77.8877272 L145.708333,83.1862122 L116.566667,83.1862122 L116.566667,77.8877272 L145.708333,77.8877272 Z M209.82,77.8877272 L209.82,83.1862122 L180.678333,83.1862122 L180.678333,77.8877272 L209.82,77.8877272 Z M165.047803,77.8877272 L163.193334,83.1332272 L161.338863,77.8877272 L165.047803,77.8877272 Z M111.056242,66.813894 C110.526394,68.6683636 109.784606,70.4698485 108.830879,72.1123788 L108.830879,72.1123788 L46.6266666,72.1123788 L46.6266666,66.813894 L111.056242,66.813894 Z M40.7983333,66.813894 L40.7983333,72.1123788 L0,72.1123788 L0,66.813894 L40.7983333,66.813894 Z M145.708333,66.760909 L145.708333,72.059394 L116.566667,72.059394 L116.566667,66.760909 L145.708333,66.760909 Z M209.82,66.760909 L209.82,72.059394 L180.678333,72.059394 L180.678333,66.760909 L209.82,66.760909 Z M168.968682,66.760909 L167.114212,72.059394 L159.272454,72.059394 L157.417985,66.760909 L168.968682,66.760909 Z M29.1416667,55.6870758 L29.1416667,60.9855606 L11.6566667,60.9855606 L11.6566667,55.6870758 L29.1416667,55.6870758 Z M75.7683333,55.6870758 L75.7683333,60.9855606 L58.2833334,60.9855606 L58.2833334,55.6870758 L75.7683333,55.6870758 Z M111.162212,55.6870758 C111.586091,57.3825909 111.79803,59.1840757 111.79803,60.9855606 L111.79803,60.9855606 L93.2533333,60.9855606 L93.2533333,55.6870758 L111.162212,55.6870758 Z M145.708333,55.634091 L145.708333,60.9325758 L128.223333,60.9325758 L128.223333,55.634091 L145.708333,55.634091 Z M198.163333,55.634091 L198.163333,60.9325758 L180.678333,60.9325758 L180.678333,55.634091 L198.163333,55.634091 Z M172.889561,55.634091 L171.035091,60.9325758 L155.351576,60.9325758 L153.497106,55.634091 L172.889561,55.634091 Z M29.1416667,44.5602576 L29.1416667,49.8587424 L11.6566667,49.8587424 L11.6566667,44.5602576 L29.1416667,44.5602576 Z M104.539106,44.5602576 C106.234621,46.0438333 107.665212,47.8453182 108.830879,49.8587424 L108.830879,49.8587424 L58.2833334,49.8587424 L58.2833334,44.5602576 L104.539106,44.5602576 Z M145.708333,44.5072728 L145.708333,49.8057576 L128.223333,49.8057576 L128.223333,44.5072728 L145.708333,44.5072728 Z M198.163333,44.5072728 L198.163333,49.8057576 L180.678333,49.8057576 L180.678333,44.5072728 L198.163333,44.5072728 Z M176.863425,44.5072728 L174.95597,49.8057576 L151.430697,49.8057576 L149.523243,44.5072728 L176.863425,44.5072728 Z M29.1416667,33.4334394 L29.1416667,38.7319242 L11.6566667,38.7319242 L11.6566667,33.4334394 L29.1416667,33.4334394 Z M108.830879,33.4334394 C107.665212,35.3938788 106.234621,37.1953636 104.539106,38.7319242 L104.539106,38.7319242 L58.2833334,38.7319242 L58.2833334,33.4334394 L108.830879,33.4334394 Z M198.163333,33.3804546 L198.163333,38.6789394 L180.678333,38.6789394 L180.678333,33.6453787 L178.876848,38.6789394 L163.564227,38.6789394 L165.365712,33.3804546 L198.163333,33.3804546 Z M161.020955,33.3804546 L162.822439,38.6789394 L147.509818,38.6789394 L145.708333,33.6453787 L145.708333,38.6789394 L128.223333,38.6789394 L128.223333,33.3804546 L161.020955,33.3804546 Z M29.1416667,22.3066212 L29.1416667,27.6051061 L11.6566667,27.6051061 L11.6566667,22.3066212 L29.1416667,22.3066212 Z M75.7683333,22.3066212 L75.7683333,27.6051061 L58.2833334,27.6051061 L58.2833334,22.3066212 L75.7683333,22.3066212 Z M111.79803,22.3066212 C111.79803,24.108106 111.586091,25.9095909 111.162212,27.6051061 L111.162212,27.6051061 L93.2533333,27.6051061 L93.2533333,22.3066212 L111.79803,22.3066212 Z M198.163333,22.2536364 L198.163333,27.5521212 L167.432121,27.5521212 L169.233606,22.2536364 L198.163333,22.2536364 Z M157.153061,22.2536364 L158.954545,27.5521212 L128.223333,27.5521212 L128.223333,22.2536364 L157.153061,22.2536364 Z M40.7983333,11.179803 L40.7983333,16.4782879 L0,16.4782879 L0,11.179803 L40.7983333,11.179803 Z M108.777894,11.179803 C109.731621,12.8223333 110.473409,14.6238181 111.003258,16.4782879 L111.003258,16.4782879 L46.6266666,16.4782879 L46.6266666,11.179803 L108.777894,11.179803 Z M209.82,11.1268182 L209.82,16.425303 L171.24703,16.425303 L173.1015,11.1268182 L209.82,11.1268182 Z M153.285167,11.1268182 L155.139636,16.425303 L116.566667,16.425303 L116.566667,11.1268182 L153.285167,11.1268182 Z M40.7983333,0.0529848483 L40.7983333,5.35146969 L0,5.35146969 L0,0.0529848483 L40.7983333,0.0529848483 Z M89.5443939,0.0529848483 L90.1127085,0.060136684 C95.4005743,0.193353745 100.221755,2.17968705 103.956273,5.35146969 L103.956273,5.35146969 L46.6266666,5.35146969 L46.6266666,0.0529848483 L89.5443939,0.0529848483 Z M209.82,0 L209.82,5.29848485 L175.114924,5.29848485 L176.969394,0 L209.82,0 Z M149.417273,0 L151.271742,5.29848485 L116.566667,5.29848485 L116.566667,0 L149.417273,0 Z" id="Combined-Shape"></path>
            </g>
        </g>
    </g>
</svg>