<?xml version="1.0" encoding="UTF-8"?>
<svg width="211px" height="85px" viewBox="0 0 211 85" version="1.1" xmlns="http://www.w3.org/2000/svg" xmlns:xlink="http://www.w3.org/1999/xlink">
    <title>ibm</title>
    <g id="icons" stroke="none" stroke-width="1" fill="none" fill-rule="evenodd">
        <g id="Client-logos" transform="translate(-1193.000000, -153.000000)" fill="#1F70C1" fill-rule="nonzero">
            <g id="ibm" transform="translate(1193.196813, 153.000000)">
                <g id="Group">
                    <polygon id="Rectangle-path" points="0 78.3092439 40.7963764 78.3092439 40.7963764 84.1492276 0 84.1492276"></polygon>
                    <polygon id="Rectangle-path_1_" points="0 67.1074616 40.7963764 67.1074616 40.7963764 72.9680078 0 72.9680078"></polygon>
                    <polygon id="Rectangle-path_2_" points="11.6384225 55.9262418 29.1373913 55.9262418 29.1373913 61.7869979 11.6384225 61.7869979"></polygon>
                    <polygon id="Rectangle-path_3_" points="11.6384225 44.7452318 29.1373913 44.7452318 29.1373913 50.6059879 11.6384225 50.6059879"></polygon>
                    <polygon id="Rectangle-path_4_" points="11.6384225 33.5640121 29.1373913 33.5640121 29.1373913 39.4247682 11.6384225 39.4247682"></polygon>
                    <polygon id="Rectangle-path_5_" points="11.6384225 22.3622297 29.1373913 22.3622297 29.1373913 28.2229858 11.6384225 28.2229858"></polygon>
                    <rect id="Rectangle-path_6_" x="0" y="11.1810099" width="40.7963764" height="5.86075608"></rect>
                    <rect id="Rectangle-path_7_" x="0" y="0" width="40.7963764" height="5.86075608"></rect>
                </g>
                <g id="Group" transform="translate(46.615588, 0.000000)">
                    <path d="M0,72.9680078 L62.7429482,72.9680078 C63.8027606,71.1599692 64.5925317,69.1855415 65.0707166,67.1072517 L0,67.1072517 L0,72.9680078 Z" id="Shape_16_"></path>
                    <path d="M57.8591247,44.7452318 L11.6591949,44.7452318 L11.6591949,50.6059879 L62.743158,50.6059879 C61.4128847,48.3613091 59.7710254,46.3870912 57.8591247,44.7452318 Z" id="Shape_17_"></path>
                    <path d="M11.6591949,33.5640121 L11.6591949,39.4247682 L57.8591247,39.4247682 C59.81278,37.7829088 61.4544296,35.8084811 62.743158,33.5640121 L11.6591949,33.5640121 Z" id="Shape_18_"></path>
                    <path d="M62.743158,11.1810099 L0,11.1810099 L0,17.041766 L65.0707166,17.041766 C64.5304243,14.9634763 63.7406532,12.9892584 62.743158,11.1810099 Z" id="Shape_19_"></path>
                    <path d="M43.4567132,0 L0,0 L0,5.86075608 L58.4409619,5.86075608 C54.5338611,2.24446899 49.2343796,0 43.4567132,0 Z" id="Shape_20_"></path>
                    <rect id="Rectangle-path_8_" x="11.6591949" y="22.3622297" width="17.4781964" height="5.86075608"></rect>
                    <path d="M46.6363601,28.2229858 L64.9251,28.2229858 C65.44462,26.3526299 65.7148711,24.3782022 65.7148711,22.3622297 L46.6363601,22.3622297 L46.6363601,28.2229858 L46.6363601,28.2229858 Z" id="Shape_21_"></path>
                    <polygon id="Rectangle-path_9_" points="11.6591949 55.9262418 29.1373913 55.9262418 29.1373913 61.7869979 11.6591949 61.7869979"></polygon>
                    <path d="M46.6363601,55.9262418 L46.6363601,61.7869979 L65.7148711,61.7869979 C65.7148711,59.7710254 65.44462,57.7968075 64.9251,55.9262418 L46.6363601,55.9262418 Z" id="Shape_22_"></path>
                    <path d="M0,84.1076828 L43.4567132,84.17 C49.2759245,84.17 54.5338611,81.925531 58.4617343,78.3092439 L0,78.3092439 L0,84.1076828 Z" id="Shape_23_"></path>
                </g>
                <g id="Group" transform="translate(116.570338, 0.000000)">
                    <polygon id="Rectangle-path_10_" points="0 78.3092439 29.1371815 78.3092439 29.1371815 84.1492276 0 84.1492276"></polygon>
                    <polygon id="Rectangle-path_11_" points="0 67.1074616 29.1371815 67.1074616 29.1371815 72.9680078 0 72.9680078"></polygon>
                    <polygon id="Rectangle-path_12_" points="11.6382127 55.9262418 29.1371815 55.9262418 29.1371815 61.7869979 11.6382127 61.7869979"></polygon>
                    <polygon id="Rectangle-path_13_" points="11.6382127 44.7452318 29.1371815 44.7452318 29.1371815 50.6059879 11.6382127 50.6059879"></polygon>
                    <polygon id="Shape_24_" points="37.2426164 11.1810099 0 11.1810099 0 17.041766 39.2583791 17.041766"></polygon>
                    <polygon id="Shape_25_" points="33.3768506 0 0 0 0 5.86075608 35.3928231 5.86075608"></polygon>
                    <polygon id="Rectangle-path_14_" points="64.0937841 78.3092439 93.2519478 78.3092439 93.2519478 84.1492276 64.0937841 84.1492276"></polygon>
                    <polygon id="Rectangle-path_15_" points="64.0937841 67.1074616 93.2519478 67.1074616 93.2519478 72.9680078 64.0937841 72.9680078"></polygon>
                    <polygon id="Rectangle-path_16_" points="64.0937841 55.9262418 81.5927529 55.9262418 81.5927529 61.7869979 64.0937841 61.7869979"></polygon>
                    <polygon id="Rectangle-path_17_" points="64.0937841 44.7452318 81.5927529 44.7452318 81.5927529 50.6059879 64.0937841 50.6059879"></polygon>
                    <polygon id="Shape_26_" points="64.0937841 39.4247682 81.5927529 39.4247682 81.5927529 33.5640121 64.0937841 33.5640121 64.0937841 33.5640121 48.2574471 33.5640121 46.6155877 38.3026386 44.9737283 33.5640121 29.1371815 33.5640121 29.1371815 33.5640121 11.6382127 33.5640121 11.6382127 39.4247682 29.1371815 39.4247682 29.1371815 34.0419872 30.9869748 39.4247682 62.2442006 39.4247682 64.0937841 34.0419872"></polygon>
                    <polygon id="Shape_27_" points="81.5927529 22.3622297 52.123003 22.3622297 50.1070305 28.2229858 81.5927529 28.2229858"></polygon>
                    <polygon id="Shape_28_" points="59.8748874 0 57.8589149 5.86075608 93.2519478 5.86075608 93.2519478 0"></polygon>
                    <polygon id="Shape_29_" points="46.6155877 84.1076828 48.6313504 78.3092439 44.5996152 78.3092439"></polygon>
                    <polygon id="Shape_30_" points="42.7500317 72.9680078 50.4811437 72.9680078 52.5594334 67.1074616 40.6925144 67.1074616"></polygon>
                    <polygon id="Shape_31_" points="38.8219487 61.7869979 54.4090168 61.7869979 56.4665342 55.9262418 36.7644314 55.9262418"></polygon>
                    <polygon id="Shape_32_" points="34.9148479 50.6059879 58.33689 50.6059879 60.3320901 44.7452318 32.8988754 44.7452318"></polygon>
                    <polygon id="Shape_33_" points="11.6382127 28.2229858 43.123935 28.2229858 41.1081723 22.3622297 11.6382127 22.3622297"></polygon>
                    <polygon id="Shape_34_" points="53.9933589 17.041766 93.2519478 17.041766 93.2519478 11.1810099 55.988559 11.1810099"></polygon>
                </g>
            </g>
        </g>
    </g>
</svg>