<?xml version="1.0" encoding="UTF-8"?>
<svg width="257px" height="85px" viewBox="0 0 257 85" version="1.1" xmlns="http://www.w3.org/2000/svg" xmlns:xlink="http://www.w3.org/1999/xlink">
    <title>lucasfilm</title>
    <g id="icons" stroke="none" stroke-width="1" fill="none" fill-rule="evenodd">
        <g id="Client-logos" transform="translate(-638.000000, -153.000000)" fill="#000000" fill-rule="nonzero">
            <g id="lucasfilm" transform="translate(638.945045, 153.000000)">
                <path d="M32.6579478,67.6122176 L32.5650198,67.5441216 L32.6702359,66.1760564 L32.9797401,66.4484406 C33.1655963,66.6089528 34.8247337,68.039482 37.2267837,68.8008267 C38.4092487,69.165883 39.6165458,69.3578831 40.8051548,69.3578831 C43.0029167,69.3578831 45.2193666,68.7137866 47.3922964,67.4447935 C51.2430517,65.2163116 52.8963011,61.0867721 53.6018377,58.0157935 C54.3695824,54.6852306 54.2208462,51.8246842 54.2208462,51.8003642 L54.2208462,51.7939642 L54.1594062,9.04525571 L54.1594062,9.03911171 L54.1594062,9.0329677 C54.1594062,8.95872764 54.2769103,7.12627808 55.4347993,6.2161973 C56.2396639,5.57210075 57.1620327,5.23162046 57.5521771,5.10797235 L57.5521771,3.73325118 L47.5412885,3.73325118 L47.5412885,5.10771635 C47.9437209,5.23136446 48.9096097,5.57184475 49.7206184,6.2159413 C50.7233712,7.00826197 50.9466034,8.49408724 50.9898675,8.92749561 L50.9898675,8.94003962 L50.9898675,8.94618363 C51.0331315,22.6654913 51.0889396,53.6827338 51.0766515,54.9952469 C51.0579635,57.6571372 50.3150509,59.817779 48.8602017,61.4093324 C47.0029201,63.4458141 44.9661823,63.8733345 43.5917172,63.8733345 L43.5484531,63.8733345 C41.9325797,63.8669344 40.0504661,63.0433817 38.6327369,61.7372686 C37.1284797,60.3377154 36.6392632,57.4157289 36.6331192,56.7222244 L36.4784951,8.94618363 L36.4784951,8.93363962 L36.4784951,8.92749561 C36.5588792,8.24039103 36.7757114,7.28064621 37.3017918,6.54387758 C38.0818245,5.47277267 39.3633616,5.1632684 39.827746,5.07674033 L39.827746,3.67129913 L25.792022,3.67129913 L25.792022,4.99610026 C26.2067423,5.07034032 27.1910632,5.33658055 28.0765679,6.20339729 C28.9805047,7.07021403 29.1661049,8.41984718 29.1970809,9.23725587 L29.2032249,9.23725587 L29.2032249,9.385736 L29.2093689,57.3294569 L28.156952,57.3294569 L28.156952,9.39188001 C28.144664,8.89037558 28.0517359,7.66439053 27.3707753,7.00211797 C26.5597666,6.2159413 25.6125658,6.07949318 25.5073497,6.06720517 C25.0616534,6.02394114 24.7334611,5.64019681 24.7334611,5.18195642 L24.7334611,3.44832294 C24.7334611,2.95936252 25.1110614,2.56307419 25.5815898,2.56307419 L40.0376661,2.56307419 C40.5081945,2.56307419 40.8919389,2.95936252 40.8919389,3.44832294 L40.8919389,5.26848449 C40.8919389,5.73261289 40.5576026,6.11046921 40.1180502,6.15373325 C39.9818581,6.16627726 38.7807051,6.3395894 38.1494085,7.20615014 C37.7779522,7.72608659 37.6107841,8.4505672 37.542688,8.97075965 L37.6914241,56.7160804 C37.6975681,57.452593 38.2116166,59.855155 39.3444175,60.9134599 C40.5517146,62.0280849 42.204708,62.7584535 43.5543411,62.7643415 L43.5976052,62.7643415 C45.2938626,62.7643415 46.8045199,62.0524049 48.086057,60.6472197 C49.3304741,59.2847865 49.9991466,57.3222889 50.0175786,54.9821909 C50.0298667,53.7006538 49.9743146,22.7330754 49.9246506,8.98253566 L49.9246506,8.97639165 C49.8875305,8.66688739 49.7142184,7.59578248 49.0765218,7.09427805 C48.2406811,6.42586148 47.1263122,6.13478923 47.1137682,6.13478923 C46.7423118,6.02957314 46.4760716,5.67654884 46.4760716,5.2741165 L46.4760716,3.516419 C46.4760716,3.03360259 46.8600719,2.63117024 47.3303444,2.63117024 L57.7684972,2.63117024 C58.2326256,2.63117024 58.616626,3.03360259 58.616626,3.516419 L58.616626,5.2746285 C58.616626,5.67706084 58.3503857,6.03008514 57.9789294,6.13530123 C57.9602414,6.13530123 56.9201125,6.42637348 56.0719838,7.09479005 C55.3971672,7.6272705 55.2422871,8.7971915 55.2177111,9.05139972 L55.2177111,10.0602966 C55.2486871,25.9650781 55.2980951,52.6612929 55.2980951,52.815661 C55.2858071,54.0787661 55.168047,56.0535518 54.6603986,58.2702577 C53.5892937,62.9752857 51.2553397,66.4791607 47.9122328,68.4173383 C45.5967109,69.7667155 43.1946608,70.4543321 40.7739228,70.4543321 C39.4552656,70.4543321 38.1488965,70.2497879 36.8921915,69.8537556 C34.6885416,69.147963 33.1965723,68.052282 32.6579478,67.6122176 M32.0573713,59.4772987 L30.2372098,81.3133493 C30.1939457,81.7713337 29.8224894,82.124358 29.382937,82.124358 L2.6995223,82.1988824 C2.47654611,82.1988824 1.85139358,82.2172861 1.85139358,81.3133493 L1.85753758,79.1529635 C1.85753758,78.7008671 2.18572986,78.3230108 2.61913823,78.2733467 C2.82342641,78.2423707 3.86355529,78.0319385 4.66841998,76.8123535 C5.0460203,76.242753 5.10797235,74.8933758 5.10182835,74.6453116 L4.97126824,9.00787968 C4.96512423,8.90266359 4.90317218,7.94317477 4.24064362,7.16314211 C3.67104313,6.49446954 2.9342745,6.29018136 2.44531408,6.15398925 L2.22233789,6.09203719 C1.85702558,5.9868211 1.60947337,5.65248482 1.60947337,5.24390847 L1.60947337,4.87245215 C1.60947337,4.35840372 1.60332937,3.49798698 1.60332937,3.49798698 C1.60332937,3.25657878 1.68985744,3.04000259 1.85088158,2.87283445 C2.01190572,2.70566631 2.23488191,2.61273823 2.4576021,2.61273823 L17.607183,2.61273823 C18.0777114,2.61273823 18.4614557,3.00902657 18.4614557,3.49798698 L18.4614557,5.29357251 C18.4614557,5.73312489 18.1642395,6.0984372 17.7495191,6.16653326 C17.632015,6.19725328 16.5609101,6.42022947 15.9787656,6.99597396 C15.279117,7.67693454 15.0748289,8.61184734 15.0686848,8.71706343 C15.0686848,8.7974475 15.0625408,31.2030986 15.0625408,50.2715309 L15.0563968,76.5399693 C15.0563968,76.5399693 19.1052963,76.5463693 19.8236329,76.5463693 C19.996945,76.5463693 21.5511224,76.5028492 23.2225478,75.085376 C23.9964365,74.4412795 24.5412049,73.7293429 24.8445652,72.9738862 L24.8816852,72.8873581 C24.9930453,72.6272619 25.3150936,71.8472293 25.4512857,71.0984286 C25.5503578,70.6153562 26.986775,59.3969146 26.999063,59.2852985 C27.0546151,58.8398582 27.4201834,58.5119219 27.8471917,58.5119219 L31.2089866,58.5178099 C31.4503948,58.5178099 31.679515,58.623282 31.8405391,58.8027381 C32.0015633,58.9821943 32.0819474,59.2297465 32.0573713,59.4772987 M40.4462425,71.9399013 C42.4955242,71.9399013 44.1485176,71.512893 45.1825025,71.1414366 C49.6028583,69.5875153 52.803629,66.832441 54.6795986,62.9755417 C55.8433756,60.5550596 56.4813282,57.7999853 56.6049763,54.5311185 C56.8340965,48.5381534 56.8402405,9.66452024 56.8402405,9.08877575 C56.8402405,9.08877575 56.9083365,8.4513352 57.1064807,8.22835901 C57.5521771,7.72071058 59.5643388,6.87872586 59.5643388,6.87872586 C59.9606271,6.76736577 60.1958913,6.27226135 60.1958913,5.83859698 L60.1958913,1.88825761 C60.1958913,1.60358537 60.1029632,1.33734514 59.9419391,1.176577 C59.768627,0.990720845 59.5333628,0.885504755 59.2858105,0.885504755 L45.8137991,0.885504755 C45.5723909,0.885504755 45.3371267,0.990720845 45.1638145,1.176577 C45.0027904,1.33734514 44.9098623,1.60358537 44.9098623,1.88825761 L44.9098623,6.47603752 C44.9098623,6.89715788 45.1883905,7.28090221 45.5908229,7.3922623 L45.6095109,7.39840631 L45.6217989,7.40429431 C47.6091286,7.71405458 48.085801,8.57447131 48.2158491,9.379336 C48.2158491,9.379336 48.9277857,54.3388623 48.2158491,57.0132966 C48.2158491,57.0132966 48.2158491,57.0258406 48.2158491,57.0196966 C48.2158491,57.0132966 48.2158491,57.0132966 48.2158491,57.0132966 C47.9805849,57.9423214 47.5348885,58.9202422 46.8352399,59.6634109 C45.9871112,60.5673476 44.8911743,61.025332 43.5725171,61.025332 C43.0525807,61.025332 41.7336676,60.9078279 40.6628187,59.7622269 C39.7279059,58.7776501 39.2760655,57.3166569 39.3070415,55.4281433 L39.3070415,55.4222552 C39.3070415,55.0692309 39.3070415,47.0643601 39.3257295,10.9765214 C39.3257295,9.82503238 39.3257295,9.01402368 39.3257295,9.01402368 C39.3380175,8.5619273 39.3567056,8.40730317 39.5919698,8.22784701 C39.914018,7.98643881 40.6072666,7.7447746 41.9940198,7.39840631 L42.0001638,7.3922623 C42.4025961,7.28064621 42.6811244,6.89690188 42.6811244,6.47603752 L42.6811244,1.88825761 C42.6811244,1.60358537 42.5820523,1.33734514 42.4335722,1.176577 C42.26026,0.990720845 42.0188518,0.885504755 41.7710436,0.885504755 L24.2626767,0.885504755 C24.0212685,0.885504755 23.7798603,0.990720845 23.6065481,1.176577 C23.451924,1.33734514 23.3651399,1.60358537 23.3651399,1.88825761 L23.3651399,6.47603752 C23.3651399,6.89715788 23.6436682,7.28090221 24.0399565,7.3922623 L24.0399565,7.39840631 L24.0461005,7.39840631 C25.4267097,7.7450306 26.1261023,7.98643881 26.4420065,8.22784701 C26.6834147,8.40730317 26.6959588,8.5621833 26.7143908,9.01402368 L26.7205348,56.8212964 C26.7205348,56.8212964 25.6123098,56.8586725 25.5690458,57.6512491 C24.9252052,61.2357642 24.658965,64.1267747 24.4544208,66.4548407 C24.1449166,69.7052754 23.9531724,71.8533733 22.9685956,73.1103343 C22.0275388,74.3112314 20.3125933,74.7943038 16.8888464,74.8188798 L16.8888464,8.66739939 C16.9136784,8.48154323 16.9753745,8.33946311 17.0869906,8.215303 C17.4213269,7.90579874 18.6160799,7.70791057 19.2599204,7.60243848 L19.3031845,7.58989447 C19.7488808,7.51565441 20.0647851,7.11322206 20.0709291,6.64883767 L20.0709291,1.90694563 C20.0709291,1.34348915 19.6252327,0.879104749 19.0866083,0.879104749 L0.903936771,0.879104749 C0.662528565,0.879104749 0.421120359,0.990720845 0.247808211,1.170177 C0.0929280792,1.33120113 0,1.59744136 0,1.8821136 L0,6.47578152 C0,6.89690188 0.278528237,7.28064621 0.680960581,7.3920063 L0.687104586,7.39815031 C2.07385777,7.7447746 2.76710636,7.99232681 3.08915463,8.22759101 C3.35539486,8.42547918 3.35539486,9.08800775 3.35539486,9.08800775 C3.35539486,9.32941595 3.36153887,74.9919359 3.36153887,75.5925124 C3.36153887,76.3290251 2.32755398,76.5891213 2.25945793,76.6080653 C2.25945793,76.6080653 1.36806517,76.7565454 1.07699292,76.8059535 C0.637440543,76.8679055 0.303104258,77.2580499 0.290816248,77.7160343 L0.290816248,77.7219223 L0.290816248,77.7283223 L0.290816248,82.9223107 C0.290816248,83.1084229 0.290816248,83.3928391 0.495104422,83.6099273 C0.693248591,83.8019274 0.941056802,83.8019274 1.06470491,83.8019274 L1.11411295,83.8019274 L1.15123298,83.8019274 L30.8065543,83.8019274 C31.2893707,83.8019274 31.679515,83.4238151 31.716635,82.9289667 L32.831004,69.5995473 C33.4315805,70.0329557 34.5336614,70.7510363 36.0007987,71.2341087 C37.4374719,71.7048931 38.9294412,71.9399013 40.4462425,71.9399013" id="Shape"></path>
                <path d="M254.173657,81.9449019 C254.012889,82.105926 253.796056,82.2049981 253.57308,82.2049981 L238.275019,82.2049981 C237.804491,82.2049981 237.42049,81.8025657 237.42049,81.3136053 L237.42049,79.2707236 C237.42049,78.8311712 237.736395,78.4471709 238.151115,78.3852188 C238.219467,78.3726748 238.856908,78.2677147 239.345868,77.9707545 C239.698892,77.7477783 240.101325,77.456706 240.324045,76.9242256 C240.540877,76.4291212 240.683213,75.6301445 240.707789,74.6893437 C240.707789,74.6583676 240.738765,27.2970473 240.738765,22.7092674 C240.361165,22.7092674 239.766732,22.7033794 239.395276,22.6969793 C238.819788,25.5572698 231.445957,62.4433172 231.371717,62.8214296 C231.210693,63.6570143 230.994117,64.4309029 230.511301,64.4309029 C229.960388,64.4124709 229.799364,63.4588701 229.694148,62.8828696 C229.656772,62.6913814 222.091453,26.2259424 221.373373,22.7154114 L220.122812,22.7154114 L220.085436,62.4123412 C220.085436,62.4374292 220.103868,63.0129177 220.289724,63.6014622 C220.438204,64.0719906 220.772796,64.5980711 220.945852,64.8394793 C221.0759,65.0189354 221.453501,65.3535277 221.862077,65.6195119 C222.357694,65.9415602 222.889918,66.1704244 222.896062,66.1770804 C223.223998,66.3130165 223.422398,66.6412088 223.422398,66.9939771 L223.422398,69.0494029 C223.422398,69.3530191 223.279806,69.6312914 223.032254,69.7984595 C222.896318,69.8854996 222.735294,69.9349076 222.568126,69.9349076 C222.450366,69.9349076 222.320318,69.9039316 222.215101,69.8545236 L216.637113,67.1550013 L212.061621,65.0376234 C211.752117,64.8891433 211.554228,64.567095 211.554228,64.2207267 L211.554228,61.8926608 C211.554228,61.4597644 211.845301,61.0941961 212.241333,61.013556 C212.247733,61.013556 212.260021,61.013556 212.272309,61.007668 C212.817333,60.8960519 213.194934,60.7662598 213.41151,60.6792197 C213.770678,60.5307396 214.111159,60.2957314 214.284471,60.1221633 C214.457783,59.9552511 214.754999,59.5651068 214.878647,59.2182265 C215.002551,58.8652022 215.008695,58.5062899 215.002551,58.4381938 L215.002551,55.5584474 C214.983863,14.9204607 214.971575,9.41671203 214.983863,9.39802401 C214.983863,9.32378395 214.996151,8.90266359 214.891191,8.50663125 C214.779575,8.07962289 214.532279,7.63392651 214.346167,7.41095032 C214.172855,7.21895015 213.770678,6.84774984 213.324726,6.64320566 C212.835765,6.40205346 212.303285,6.29658137 212.297141,6.29658137 C211.894709,6.22822931 211.597492,5.869317 211.585204,5.43590863 L211.560116,3.48595497 C211.554228,3.25069077 211.6405,3.01542657 211.801525,2.84185842 C211.962549,2.67494628 212.179381,2.5756182 212.414645,2.5756182 L224.177599,2.5756182 C224.586175,2.5756182 224.933056,2.87283445 225.019584,3.2875548 C230.47418,30.3178498 231.130053,33.5618846 231.192005,33.9023649 C231.488965,33.9023649 231.959494,33.9085089 232.269254,33.9149089 C232.764614,31.4135308 238.330315,3.44857894 238.361291,3.26912279 C238.441675,2.85440243 238.800844,2.55718618 239.197132,2.55718618 L253.467608,2.55718618 C253.938136,2.55718618 254.321881,2.95961852 254.321881,3.44857894 L254.321881,5.3926446 C254.321881,5.80736495 254.037209,6.17882127 253.647064,6.25946134 C253.510872,6.29683737 253.028056,6.42048547 252.563671,6.63731766 C252.173783,6.81677381 251.820759,7.08301404 251.641047,7.2688702 C251.443158,7.47315837 251.157974,7.8569027 251.027926,8.22221501 C250.873302,8.64333537 250.842326,9.09517575 250.835926,9.18784783 C250.835926,10.1475927 250.866902,75.122752 250.866902,75.6304005 C250.866902,75.6368005 250.879446,76.0883849 251.089878,76.5778573 C251.244502,76.9244816 251.640791,77.400898 251.807959,77.5683221 C251.919575,77.6917142 252.328151,77.9523225 252.736983,78.1008026 C253.176536,78.2618267 253.640664,78.3173788 253.647064,78.3173788 C254.080217,78.3667868 254.402265,78.7443871 254.408665,79.1903395 C254.420955,81.3138613 254.420955,81.3138613 254.420955,81.3138613 C254.421465,81.5488695 254.328793,81.7713337 254.173657,81.9449019 M213.888694,58.2702577 C213.87615,58.5797619 213.73407,58.8582902 213.486262,59.0871544 C213.189302,59.3536506 212.774325,59.3907706 212.681397,59.3907706 C212.508085,59.3907706 212.303541,59.2916985 212.495541,58.3877618 C212.681397,57.490225 213.814198,51.4972599 213.814198,51.4972599 C213.844918,51.2061877 214.067894,50.7912113 214.117559,51.4662839 C214.167223,52.1533885 213.907126,57.9853294 213.888694,58.2702577 M209.715891,64.0033826 C209.647539,63.9782945 201.89662,60.8952839 198.243753,59.6073468 C194.863526,58.4187378 190.06557,56.9019365 189.142945,56.6047203 L189.117857,56.5988323 C188.746401,56.4808162 188.504737,56.1403359 188.504737,55.7443035 L188.504737,53.6763338 C188.504737,53.2122054 188.857761,52.822317 189.297313,52.791341 L189.309857,52.784941 C189.687458,52.753965 190.046626,52.6799809 190.331298,52.5809088 C190.721187,52.4508607 190.999715,52.2340285 191.099043,52.1224124 C191.241379,51.9613883 191.427235,51.7012921 191.526307,51.3549238 C191.656355,50.8905394 191.693219,50.3334829 191.705763,50.1783468 L191.705763,50.1724588 L191.705763,9.58362417 C191.705763,9.57773617 191.699619,8.93363962 191.526307,8.32051909 C191.414691,7.93063076 191.179683,7.52819842 190.993827,7.29907822 C190.727587,6.97114194 189.718434,6.47578152 188.932257,6.20339729 C188.579233,6.07334918 188.337825,5.71443687 188.350369,5.33043654 L188.306849,3.44217893 C188.325281,2.96550653 188.696737,2.5817622 189.161377,2.5817622 L203.400877,2.5817622 C203.871406,2.5817622 204.25515,2.98419454 204.25515,3.47955497 L204.25515,5.33683655 C204.25515,5.72083688 204.019886,6.06131717 203.685294,6.17267726 C201.797292,6.76710977 201.363884,7.67104654 201.215404,7.9744068 C201.004971,8.42624718 200.967595,8.85965555 200.961451,8.90291959 C200.967595,15.4593412 200.967595,32.6023958 200.973995,42.8485485 C200.973995,49.0271138 200.973995,54.0915661 200.973995,54.8531668 C202.107052,55.3175512 203.159469,55.5587034 204.094126,55.5587034 C204.960943,55.5587034 205.406639,55.3482712 205.412783,55.3482712 L205.449903,55.3298392 C207.028656,54.7167186 207.783857,52.6244289 207.876785,52.3643326 C207.957169,52.0673724 210.377907,43.1398768 210.402739,43.0469487 L210.408627,43.0410607 L210.408627,43.0346607 C210.414771,43.0100847 210.61906,42.4776042 211.213748,42.4776042 C211.715252,42.4776042 213.238198,42.4834922 213.238198,42.4834922 C213.491894,42.4834922 213.727158,42.6015083 213.882038,42.7993965 C214.043062,42.9972847 214.111415,43.2573809 214.074039,43.5238771 L210.860724,63.316278 C210.669236,64.1948707 209.814963,64.0402466 209.715891,64.0033826 M185.446814,55.168303 C185.29219,55.2922071 185.106334,55.3544152 184.920478,55.3544152 C184.815262,55.3544152 184.394397,55.2489431 184.264349,55.2118231 C183.03862,54.8964308 170.82357,51.9987643 170.699922,51.9677883 C170.309777,51.8874042 170.025105,51.5156919 170.025105,51.1073716 L170.025105,49.1259299 C170.025105,48.6863775 170.353041,48.3028892 170.767762,48.2468251 C170.910354,48.2283931 171.374482,48.141865 171.77077,47.9188889 C172.179603,47.6897687 172.563347,47.2504723 172.730515,47.0333841 C172.804499,46.928424 173.027476,46.4824716 173.139092,46.0057992 C173.256596,45.5042948 173.26274,44.9777023 173.26274,44.9777023 L173.256596,42.5016682 C173.250708,33.5058206 173.219476,9.68269625 173.219476,8.97664765 L173.219476,8.97075965 C173.206932,8.80359151 173.15138,8.36403913 173.021588,8.01101483 C172.897683,7.67667854 172.656019,7.35488627 172.532371,7.18771813 L172.520083,7.16288611 C172.439699,7.05767002 172.191891,6.82240582 171.906963,6.61197364 L171.219602,6.19085328 C170.990226,6.04826116 170.74293,5.73875689 170.74293,5.3921326 L170.74293,3.50413099 C170.74293,3.01517057 171.120786,2.61273823 171.591058,2.61273823 L183.948445,2.5753622 C184.177565,2.5753622 184.394397,2.67469028 184.555165,2.83545842 C184.716189,3.00262656 184.802974,3.23174676 184.802974,3.46701096 L184.802974,5.47917267 C184.802974,5.81965296 184.555165,6.13530123 184.326301,6.27174935 L183.781533,6.61222964 C183.44694,6.86592585 183.088028,7.23738217 182.95798,7.41069432 C182.865052,7.54074243 182.697884,7.8627907 182.6175,8.16000696 C182.462876,8.70477542 182.407068,9.28666392 182.394523,9.36090398 C182.394523,10.2400087 182.407068,47.7762967 182.407068,47.7762967 C182.407068,47.8013848 182.444188,48.3894173 182.580636,48.9528737 C182.902428,50.395435 185.125022,51.4478519 185.13731,51.4478519 C185.502622,51.559468 185.762462,51.9058363 185.762462,52.3018686 L185.775007,54.4689104 C185.775262,54.7474387 185.651102,55.0013909 185.446814,55.168303 M168.316047,14.5241724 C168.316047,15.0195328 167.926159,15.4219651 167.461775,15.4219651 L164.056716,15.4219651 C163.586187,15.4219651 163.196043,15.0195328 163.196043,14.5241724 L163.208587,11.6577379 C163.190155,11.5031138 163.140491,10.9767774 162.917515,10.4445529 C162.713227,9.96148049 162.261386,9.41671203 162.007434,9.18759183 C161.784458,8.98970366 161.282953,8.61184734 160.793993,8.4449352 C160.0882,8.19712699 159.333,8.17255097 159.333,8.17255097 L155.05498,8.17255097 C155.05498,9.89978444 155.073412,21.2047541 155.079556,23.0436036 L158.472583,23.0497477 C158.559111,23.0372036 158.918023,22.9939396 159.21524,22.8577475 C159.543432,22.7031234 159.852936,22.3623871 159.952008,22.257171 C160.082056,22.1145789 160.397705,21.6627385 160.571017,21.2541621 C160.744585,20.8330418 160.806537,20.4060334 160.806537,20.3996334 C160.868489,19.960081 161.227657,19.6260007 161.654666,19.6260007 L164.533644,19.6260007 C164.997773,19.6260007 165.387917,20.0222891 165.387917,20.5112495 L165.387917,30.8749063 C165.387917,31.3641227 164.998029,31.7665551 164.533644,31.7665551 L161.722762,31.7665551 C161.314186,31.7665551 160.967817,31.4693388 160.887177,31.0546185 L160.887177,31.0484745 L160.887177,31.0423305 L160.881033,31.0300425 C160.862345,30.9371144 160.744841,30.448154 160.571273,30.0083456 C160.397961,29.5687932 159.407496,28.200472 158.373767,28.200472 L155.104644,28.206616 C155.117188,30.7079942 155.154052,43.2694129 155.154052,43.2694129 C155.154052,43.2878449 155.172484,43.7399413 155.35194,44.1979257 C155.475845,44.532518 155.791493,44.9659263 155.971205,45.1515265 C156.125829,45.3125506 156.62119,45.6655749 157.060998,45.8634631 C157.444486,46.0370312 157.810055,46.0925833 157.810055,46.0925833 C158.237063,46.1486473 158.552967,46.5321357 158.552967,46.971688 L158.552967,48.8852897 C158.552967,49.1387299 158.453639,49.3803941 158.268039,49.5473062 C158.113415,49.7021864 157.909127,49.7766824 157.698438,49.7766824 C157.667462,49.7766824 157.636486,49.7766824 157.60551,49.7702824 L155.704965,49.5537062 C152.448386,49.1822499 151.860353,49.1141539 150.981249,49.0522018 C148.987775,48.9221537 145.483388,48.5752734 144.077947,48.4390813 L144.003963,48.4331933 C143.56441,48.3896733 143.236218,48.0056729 143.236218,47.5418005 L143.236218,45.5232388 C143.236218,45.0836864 143.533434,44.7181181 143.954555,44.6377341 C143.954555,44.6377341 144.480635,44.551206 144.94502,44.3036538 C145.347452,44.0991096 145.737596,43.7276533 145.886076,43.5420531 C146.009724,43.393573 146.244989,42.9785966 146.362493,42.5761643 C146.486397,42.1179239 146.511229,41.6353635 146.517373,41.5360354 C146.517373,41.034787 146.442877,9.20013584 146.442877,9.20013584 C146.442877,9.19399184 146.418301,8.61184734 146.244989,8.11059891 C146.114941,7.72045458 145.805436,7.35514227 145.706364,7.25607019 C145.570172,7.09504605 145.180028,6.77299777 144.765307,6.5687096 C144.307067,6.34598941 143.817851,6.25306133 143.811707,6.25306133 C143.409274,6.17882127 143.112314,5.80736495 143.112314,5.38010059 L143.10617,3.46701096 C143.10617,3.23174676 143.192954,3.00288256 143.353978,2.83545842 C143.514746,2.66854627 143.731579,2.5753622 143.960443,2.5753622 L167.461775,2.5753622 C167.925903,2.5753622 168.316047,2.97165053 168.316047,3.46675496 L168.316047,14.5241724 L168.316047,14.5241724 Z M140.462712,15.8860935 C140.462712,16.369166 140.085111,16.7715983 139.608439,16.7715983 L136.46962,16.7715983 C136.005236,16.7715983 135.621492,16.369166 135.621492,15.8860935 L135.621492,13.5956596 C135.627636,13.3726834 135.658868,12.2086504 135.305843,11.0323294 C135.144819,10.524937 134.791795,9.98605651 134.451315,9.46612007 C133.60933,8.17843897 131.8204,7.57786246 130.872688,7.57786246 C130.006127,7.57786246 128.990574,7.99258281 128.359277,8.61159134 C127.994221,8.95821564 127.703149,9.34835997 127.560813,9.67040824 C127.257196,10.3452248 127.251308,10.9890654 127.251308,10.9954654 L127.251308,16.375566 C127.251308,16.381454 127.269741,16.9822865 127.467885,17.576463 C127.622765,18.0160154 127.975533,18.5359518 128.111981,18.734096 C128.247917,18.9383841 129.040494,19.5883687 129.802095,20.1085611 L131.356016,21.111314 C133.219442,22.318611 136.32754,24.3369167 136.358516,24.3556048 C136.451188,24.4173008 137.299573,25.0240213 138.060918,25.822742 C138.661494,26.4542946 139.156599,27.2404712 139.422839,27.7729517 C139.689079,28.2992881 140.072823,29.2155129 140.25868,30.0759296 C140.493944,31.1716106 140.493944,32.1994515 140.493944,32.2119955 L140.493944,40.0993622 L140.493944,40.1055062 C140.4814,40.2230103 140.308344,42.9596526 138.61183,44.9590143 C137.577845,46.1665674 136.488308,47.0515601 135.373939,47.5840406 C133.795442,48.3210652 132.470385,48.4754333 130.959984,48.4754333 C129.30699,48.4754333 127.566957,48.1723291 126.29182,47.6518806 C125.394027,47.2929683 124.131178,46.5377677 123.449961,46.1169033 C123.462505,46.7233678 123.475049,47.5410325 123.475049,47.5528085 C123.475049,47.7883287 123.388265,48.0049049 123.233641,48.1782171 C123.078761,48.3392412 122.855785,48.4442013 122.626921,48.4442013 L119.580262,48.4442013 C119.350886,48.4442013 119.140454,48.3451292 118.973541,48.1782171 C118.812517,48.0113049 118.725989,47.7883287 118.725989,47.5466645 L118.725989,33.1584283 C118.725989,32.6694679 119.109478,32.2731795 119.580262,32.2731795 L122.551912,32.2731795 C123.009897,32.2731795 123.400041,32.6630678 123.400041,33.1525403 L123.431017,38.3652167 C123.431017,38.3713607 123.443561,38.9903692 123.653993,39.7025618 C123.827306,40.2908503 124.167786,40.9224029 124.508266,41.3061472 C125.015915,41.8696037 125.709419,42.3462761 126.309996,42.5382763 C126.6195,42.6498924 126.966124,42.6929004 127.381101,42.6929004 C127.393389,42.6929004 128.675182,42.6744684 129.36203,42.3713641 C129.857647,42.1545319 130.389871,41.7149796 130.89752,41.102115 C131.076976,40.8791389 131.31224,40.5015385 131.417456,40.0806742 C131.665008,39.1705934 131.665008,38.1181765 131.665008,37.9942724 L131.665008,33.8091808 C131.665008,33.8030368 131.646576,33.0352922 131.479408,32.4098836 C131.399024,32.0942354 131.188336,31.7783311 131.082864,31.6111629 L131.045744,31.5617549 C130.971504,31.4442508 130.754671,31.1718666 130.439023,30.9056263 C129.993327,30.528026 129.43627,30.1629697 129.275246,30.0574976 C128.996462,29.8777855 122.613609,25.6555739 122.588777,25.6368859 C122.471272,25.5565018 121.882984,25.1230934 121.307239,24.5286609 C120.725351,23.9344844 120.137318,23.1480517 119.81527,22.5351872 C119.530342,21.9965628 119.171174,21.123602 118.998117,20.3003053 C118.762853,19.1982244 118.762853,18.1583515 118.762853,18.1148314 L118.762853,8.80999151 L118.762853,8.80384751 L118.762853,8.7974475 C118.768741,8.6799434 118.979429,6.01139712 120.873831,4.27187564 C121.697384,3.516419 122.465128,2.85414643 123.523945,2.42073806 C125.084011,1.7646095 126.84222,1.62816139 127.393133,1.62816139 C127.393133,1.62816139 128.111469,1.55392132 130.296943,1.96275367 C131.182192,2.12377781 132.160369,2.51981015 133.21893,3.03385859 C133.930866,3.38048288 134.884467,4.06169946 135.503476,4.52582786 L135.503476,3.47929897 C135.503476,2.98393854 135.887476,2.5815062 136.358004,2.5815062 L139.608183,2.5815062 C140.084855,2.5815062 140.462456,2.98393854 140.462456,3.47929897 L140.462456,15.8860935 L140.462712,15.8860935 Z M116.819044,47.9002008 C116.819044,48.3456412 116.491107,48.7296415 116.057443,48.7793056 C116.057443,48.7793056 104.096345,50.1169067 104.065369,50.1169067 C103.854937,50.1169067 103.650648,50.0365227 103.495768,49.8875305 C103.316056,49.7265064 103.21084,49.4856102 103.21084,49.231402 L103.21084,47.4048404 C103.21084,47.0149521 103.452248,46.6808718 103.805272,46.5628557 C103.811417,46.5569677 104.213849,46.4202636 104.585305,46.1358473 C104.869977,45.9192711 105.16105,45.5288708 105.223002,45.4113667 C105.297242,45.2628866 105.421146,44.9224063 105.445978,44.600358 C105.445978,44.519974 105.452122,44.4393339 105.452122,44.3589498 C105.452122,43.9874935 105.322074,43.1268208 105.322074,43.1268208 L105.185882,42.3222121 L104.758873,39.7898579 C104.455513,37.9819844 104.127321,36.0007987 103.984985,35.177502 L96.2896181,35.177502 L95.7881137,38.4896328 L95.7323056,38.8920652 C95.2740652,41.8946917 94.6550567,46.0180872 94.6489127,46.0677513 C94.6489127,46.0677513 94.4940326,46.866216 94.983249,47.2747923 C95.0823211,47.3618324 95.4166573,47.6152726 95.7448496,47.7023127 C96.0295219,47.7762967 96.5125943,47.7826967 96.5125943,47.7826967 C96.7355705,47.7826967 96.9521467,47.8692248 97.1067708,48.0302489 C97.2739389,48.1971611 97.366867,48.4326813 97.366867,48.6743455 L97.366867,50.5129391 C97.366867,50.9279154 97.0819388,51.2993717 96.6856504,51.3800118 L88.1544432,53.1505093 C88.0988911,53.1630533 88.0492271,53.1689413 87.993675,53.1689413 C87.7955308,53.1689413 87.5973867,53.0944453 87.4489066,52.9643972 C87.2507624,52.797485 87.1394023,52.5432768 87.1394023,52.2772926 L87.1394023,50.6427312 C87.1394023,50.3703469 87.2569064,50.1166507 87.4611946,49.9492266 C87.4673386,49.9366826 87.974987,49.5222182 88.3897074,49.0148258 C88.7053556,48.6308255 88.9902839,48.123433 89.151308,47.8134168 C89.3184761,47.5103125 89.5908604,46.3030155 89.7209085,45.5478148 C90.0119807,43.5727731 94.970961,9.94279248 94.977105,9.91181645 C94.977105,9.90567244 95.1007531,9.27411991 95.020369,8.61159134 C94.964817,8.15975096 94.7541288,7.65824653 94.5746726,7.36103028 C94.4261925,7.12576607 94.1289762,6.8037178 93.79464,6.60582963 C93.2744475,6.30861338 92.692559,6.19110928 92.624463,6.17856527 C92.2220306,6.09178119 91.9248144,5.72646888 91.9312144,5.29331651 L91.9435024,3.44217893 C91.9496464,2.96550653 92.3272467,2.56307419 92.7916311,2.56307419 L111.878751,2.56307419 C112.34928,2.56307419 112.733024,2.96525053 112.733024,3.44832294 L112.733024,5.3985326 C112.733024,5.63994081 112.633952,5.88134901 112.46064,6.04237315 C112.306016,6.20339729 112.095328,6.28378136 111.878751,6.28378136 C111.860319,6.28378136 111.135839,6.28992536 110.832478,6.37670944 C110.386782,6.48806953 109.953374,6.77888578 109.817182,6.90278988 C109.501533,7.18157412 109.297245,7.42298233 109.216605,7.60883849 C109.006173,8.11623092 108.999773,8.39501516 108.999773,8.66739939 C108.999773,8.66739939 114.187873,42.241828 114.224993,42.5078122 C114.231137,42.5137002 114.231137,42.5203562 114.231137,42.5262443 C114.330209,42.9473646 114.44157,43.2322929 114.509666,43.399205 C114.645858,43.6961653 114.881122,43.9752055 114.967906,44.0742776 C115.054434,44.1858937 115.320674,44.4083579 115.636579,44.58167 L116.231011,44.8292222 C116.571747,44.9777023 116.819044,45.3307266 116.819044,45.6712069 L116.819044,47.9002008 Z M84.9042644,49.6274343 C84.3285199,51.3920438 83.0902468,53.1195333 82.118214,54.0419021 C80.5023406,55.5832794 78.8616352,56.6484963 77.2273298,57.2114408 C76.4037771,57.496369 75.017024,57.8368493 73.0855023,57.8368493 C73.0855023,57.8368493 72.5097578,57.8427373 72.3303017,57.8427373 C71.3705568,57.8427373 70.39878,57.7503212 69.4638672,57.5583211 C67.6127296,57.1868648 65.7677361,56.4127201 64.8763433,55.6329434 C64.1644067,55.0013909 62.8705816,53.7139658 62.2577171,52.1600445 C61.5148044,50.2530988 61.5580685,48.2225051 61.5580685,48.2099611 L61.5580685,10.2771288 L61.5580685,10.2709848 C61.5703565,9.99885652 61.6755726,8.57472731 62.4681493,7.02080599 C63.2420379,5.50400469 65.1983916,3.67744314 66.832697,2.95321852 C66.9317691,2.89741047 69.3463631,1.69011344 72.1014375,1.69011344 C72.3925097,1.69011344 72.683326,1.70265745 72.9682542,1.73337748 C74.4046714,1.8759696 76.1070729,2.30323396 77.6238742,2.91584249 C78.3050908,3.20051473 78.9983393,3.53510701 79.6854439,3.91885134 L79.6854439,3.516419 C79.6854439,3.02105858 80.0755883,2.61888223 80.5461167,2.61888223 L84.5330641,2.61888223 C84.9974485,2.61888223 85.3811928,3.02105858 85.3811928,3.51027499 L85.3750488,18.8825761 C85.3750488,19.1178403 85.2885207,19.3469605 85.1274966,19.5141286 C84.9664724,19.6812968 84.7434962,19.7742249 84.5269201,19.7742249 L80.6761648,19.7742249 C80.2056364,19.7742249 79.8280361,19.3779365 79.8280361,18.8889761 L79.8280361,13.2116593 C79.8218921,13.0631791 79.6298919,9.58362417 77.4876821,7.93703077 C76.7322254,7.36743028 75.9150727,7.07661403 75.042112,7.07661403 C73.7728629,7.07661403 72.720446,7.69562256 72.2995816,8.05479087 C71.2594528,8.94618363 70.7085403,10.3083608 70.7085403,11.9859302 L70.6837083,46.866216 C70.6959963,47.0518161 70.7640923,47.6897687 71.0119005,48.3336092 C71.2533087,48.9646497 71.7673572,49.6765864 72.1449575,50.0605867 C72.4854378,50.401067 73.1047023,50.8470193 73.6369268,51.0326195 C74.1384312,51.1995316 74.6276476,51.2246197 74.8751998,51.2246197 C74.8813438,51.2246197 76.0453768,51.2061877 76.9677456,50.8470193 C77.6364182,50.5805231 78.3112348,50.0170666 78.7262111,49.5775143 C78.9676193,49.317418 79.4320037,48.5995934 79.6547239,47.8070168 C79.9148201,46.884392 79.9148201,45.9064711 79.9148201,45.8629511 L79.8899881,34.6695976 C79.8899881,34.4281894 79.9765162,34.2054692 80.1375403,34.031901 C80.3047085,33.8708769 80.5089966,33.7718048 80.7381168,33.7718048 L84.6201041,33.7718048 C85.0906325,33.7718048 85.4743769,34.1742371 85.4743769,34.6631976 L85.4743769,45.5777669 C85.4736089,45.6589189 85.5542489,47.6649366 84.9042644,49.6274343 M255.963098,77.7037462 C255.963098,77.2147858 255.60393,76.8062095 255.14569,76.7568014 L253.790168,76.5893773 C253.790168,76.5893773 252.434135,76.4593292 252.434135,75.5182724 L252.403159,9.08826375 C252.427991,8.28979907 252.440279,8.0977989 255.207642,7.39815031 L255.213786,7.3920063 C255.610074,7.28039021 255.888602,6.90278988 255.888602,6.46938152 L255.888602,1.88825761 C255.888602,1.60972937 255.802074,1.33120113 255.64105,1.170177 C255.473882,0.990720845 255.232474,0.89139276 254.991065,0.89139276 L237.891275,0.885504755 C237.458122,0.885504755 237.074122,1.20729703 236.987338,1.65299341 C236.987338,1.65299341 233.056199,21.3839542 231.67559,28.2995441 C230.28858,21.4459063 226.345153,1.85728158 226.295745,1.65299341 C226.208705,1.20729703 225.831361,0.885504755 225.397696,0.885504755 L210.861236,0.885504755 C210.619828,0.885504755 210.378163,0.984576839 210.205107,1.170177 C210.050483,1.33120113 209.963955,1.59744136 209.963955,1.88825761 L209.963955,6.46963752 C209.963955,6.90278988 210.242483,7.28064621 210.638516,7.3922623 L210.644916,7.3922623 C212.025525,7.7450306 212.724917,7.98643881 213.040566,8.22810301 C213.281974,8.40141516 213.294262,8.55629529 213.306806,9.01427968 L213.31295,9.08237574 C213.31295,9.59002418 213.325238,37.567776 213.325238,40.7496027 L210.000819,40.7437147 C209.586099,40.7437147 209.220786,41.028387 209.109426,41.4369633 C209.07845,41.5421794 206.255536,51.8810042 206.168752,52.2030525 C206.125488,52.3395006 205.723055,53.4415816 204.893615,53.7636298 L204.881071,53.7636298 L204.868527,53.7695178 C204.868527,53.7695178 204.633518,53.8811339 204.181422,53.8811339 C203.685806,53.8811339 203.134893,53.7572298 202.540717,53.5096776 C202.534573,50.2840749 202.515885,9.75130431 202.515885,9.08877575 C202.522029,9.04551171 202.522029,9.00839168 202.522029,8.96512764 C202.534317,8.52557527 202.546861,8.38323915 202.775725,8.215815 C203.097773,7.9805508 203.77259,7.7452866 205.128111,7.39891831 L205.128111,7.3927743 L205.134511,7.3927743 C205.536687,7.28115821 205.815471,6.90355789 205.815471,6.47014952 L205.815471,1.88825761 C205.815471,1.60972937 205.716143,1.33120113 205.567663,1.170177 C205.394351,0.990720845 205.152943,0.89139276 204.905135,0.89139276 L187.92976,0.885504755 C187.688352,0.885504755 187.446688,0.984576839 187.279776,1.170177 C187.118752,1.33120113 187.031967,1.59744136 187.031967,1.88825761 L187.031967,6.52544556 C187.031967,6.95859793 187.310496,7.33645425 187.706784,7.45395835 L187.712928,7.45395835 C189.626018,7.82541467 190.022306,8.61799135 190.034594,9.07623174 L190.040482,50.0792747 C190.034594,50.1847468 189.922978,50.9647794 189.136545,51.0577075 L187.70064,51.1693236 C187.589024,51.1752116 187.477664,51.2064437 187.372448,51.2494517 C187.372448,51.2494517 187.434144,50.3519149 186.703775,50.1599148 C186.703775,50.1599148 183.924125,49.7948585 184.023197,47.7762967 L184.016797,9.08826375 C184.041885,8.38887115 184.326557,8.15360695 185.236638,7.63955851 C185.30499,7.60243848 186.233503,7.16314211 186.233503,6.46963752 L186.233503,1.88825761 C186.233503,1.60972937 186.134431,1.33120113 185.979807,1.170177 C185.806494,0.990720845 185.570974,0.89139276 185.323678,0.89139276 L170.279313,0.885504755 C170.037905,0.885504755 169.815185,0.978176834 169.641617,1.15174498 C169.468304,0.978176834 169.245328,0.885504755 169.004176,0.885504755 L142.406521,0.89139276 C142.171513,0.89139276 141.942393,0.984320839 141.769081,1.15174498 C141.601913,0.984576839 141.379193,0.885504755 141.143672,0.885504755 L134.791539,0.885504755 C134.382963,0.885504755 134.036338,1.176577 133.931122,1.57875335 C133.918578,1.57286534 131.628144,0.600832512 130.631279,0.377856322 C129.108334,0.0435200371 127.616109,0.00640000546 127.448941,0 L127.393133,0 C126.606956,0 124.657002,0.192000164 122.923369,0.916224781 C121.629288,1.45484924 120.712807,2.24128191 119.809126,3.07072262 C117.45034,5.23136446 117.177956,8.38272715 117.153124,8.72935144 L117.153124,8.74778346 L117.153124,8.76032747 L117.14698,18.1209754 C117.14698,18.3314076 117.159524,19.4396326 117.419364,20.6653616 C117.67946,21.9097787 118.230373,23.0302916 118.397541,23.3397959 C118.787429,24.0891085 119.487334,25.0237653 120.180582,25.7295579 C120.842855,26.4105185 121.493096,26.8935909 121.672552,27.029783 L121.72836,27.0671591 L121.746792,27.0730471 L121.752936,27.0791911 C122.025064,27.2586472 128.284525,31.3943308 128.402285,31.4749708 C128.451694,31.5120909 129.027438,31.9268112 129.423726,32.2117395 L129.727343,32.5335317 L129.745775,32.5583638 C129.881711,32.7687959 129.912687,32.849436 129.925231,32.86198 C130.011759,33.1899163 130.048879,33.6791327 130.048879,33.8524449 C130.048879,33.9143969 130.042735,36.5888312 130.042735,37.9881284 L130.042735,37.9940164 C130.055279,38.662689 129.801327,39.6162898 129.194606,40.2662743 C128.717678,40.7677788 128.104813,41.027875 127.355501,41.027875 C127.064428,41.027875 126.321772,40.9536349 125.727595,40.3282264 C125.226091,39.7960019 124.978283,39.0098253 124.996971,37.9942724 L124.996971,37.9883844 C124.996971,37.3752639 125.002859,31.6052749 125.002859,31.5433229 C125.002859,31.0169864 124.588138,30.5838341 124.080234,30.5838341 L118.062693,30.5838341 C117.555044,30.5838341 117.140068,31.0169864 117.140068,31.5494669 L117.11498,43.448613 C117.11498,43.448613 116.118371,43.349541 115.802723,42.1174119 C115.51165,40.2601303 110.763102,9.93639247 110.676574,9.37293599 C110.58979,8.87757557 110.645598,8.51866326 110.831198,8.28339906 C111.066463,7.99232681 111.481183,7.96135079 111.642207,7.96135079 C111.685471,7.96135079 113.400417,7.96749479 113.419105,7.96749479 C113.654369,7.96749479 113.877345,7.86842271 114.044257,7.70739857 C114.230113,7.52154241 114.341473,7.2678462 114.341473,7.00774997 L114.347617,1.84448157 C114.347617,1.31814512 113.932897,0.890880759 113.424993,0.890880759 L91.2361738,0.890880759 C90.9886216,0.890880759 90.7472134,0.990208844 90.5800452,1.169665 C90.4254211,1.33068913 90.332493,1.60921737 90.332493,1.88774561 L90.332493,6.46912552 C90.332493,6.90227788 90.6110212,7.28013421 91.0073096,7.3917503 C91.0073096,7.3917503 92.9698073,7.56506245 93.3228316,8.19021498 C93.4528797,8.43162319 93.5519518,8.66688739 93.5148317,9.04474371 L88.1224431,45.2808066 C87.973707,46.1412233 87.7632748,46.9338 87.7138668,47.0513041 C87.7138668,47.0513041 87.3982185,47.8687128 86.8903141,48.2091931 C87.0574822,46.964776 87.0823142,45.6397189 87.0884582,45.5777669 L87.0884582,33.0534682 C87.0884582,32.5273877 86.6798819,32.0939794 86.1660895,32.0939794 L79.1888035,32.0939794 C78.9473953,32.0939794 78.7121311,32.1930514 78.538819,32.3725076 C78.3655068,32.5583638 78.2664347,32.799772 78.2664347,33.0598682 L78.2664347,45.9435912 C78.2851227,46.7361678 77.9817625,47.8689688 77.2636819,48.6367135 C76.7063694,49.231146 75.9696008,49.5347622 75.084352,49.5347622 C74.7438717,49.5347622 73.858367,49.4543782 73.1589744,48.7048095 C72.5647979,48.073257 72.2737256,47.1514002 72.2985576,45.9497352 L72.2985576,45.9438472 C72.2924136,45.3929347 72.3108456,10.9829214 72.3108456,10.9829214 C72.3108456,10.9209693 72.3541097,10.3762008 72.6451819,9.8498644 C73.0289263,9.12563978 73.6914548,8.76672747 74.6015356,8.76672747 C77.436994,8.76672747 78.0995226,10.7786332 78.2108827,13.8247798 L78.2108827,13.8928758 L78.2108827,20.4989615 C78.2108827,21.0252979 78.619459,21.4584503 79.1271075,21.4584503 L86.0672734,21.4584503 C86.3086816,21.4584503 86.5500898,21.3532342 86.7234019,21.1799221 C86.9031141,20.9940659 86.9957862,20.7526577 86.9957862,20.4925615 L86.9957862,1.84499357 C86.9896422,1.31865712 86.5562338,0.885504755 86.0362973,0.885504755 L79.0093474,0.885504755 C78.4830109,0.885504755 78.2106267,1.35603316 78.2106267,1.35603316 L78.2044827,1.35603316 C76.5453453,0.680960581 74.6942077,0.210432179 73.1154543,0.0558080476 C72.7872621,0.0248320212 72.4529258,0.00640000546 72.1185895,0.00640000546 C69.1343949,0.00640000546 66.5590327,1.21984104 66.1814324,1.4118412 C66.1814324,1.4118412 62.8009495,3.13293067 61.04274,6.23462932 C59.9841791,8.0980549 60.1452033,10.1227606 60.1513473,10.2899288 L60.1574913,48.2534811 L60.1513473,48.2906012 C60.1636353,51.4911159 61.2037642,54.2275022 63.1539738,56.1966559 C65.3023277,58.3695858 68.5340744,59.5272187 72.4961898,59.5272187 C72.5704299,59.5272187 72.9109102,59.5213307 72.9357422,59.5213307 C76.198465,59.4842107 79.0710434,58.5743859 81.4608054,56.8282084 C83.5349192,55.3178072 84.8162003,53.4845896 85.5158489,52.2217405 L85.5158489,54.2651343 C85.583945,55.0571989 86.2526175,55.4166232 86.7170019,55.4166232 C86.760266,55.4166232 98.4676679,52.8471491 98.4676679,52.8471491 C98.7894602,52.6925249 98.9814604,52.3640766 98.9814604,51.9926203 L98.9814604,47.0026641 C98.9814604,46.7425678 98.8823883,46.4891276 98.7029321,46.3155595 C98.52962,46.1361033 98.3066438,46.0431753 98.0652356,46.0431753 C98.0590916,46.0431753 96.3441461,46.0866953 96.2821941,46.0802953 C96.4183862,45.1643265 97.6689473,36.8558394 97.6689473,36.8558394 L102.628183,36.8558394 C102.869592,38.2797126 103.730264,43.418149 103.779672,43.7092213 C103.779672,43.7092213 103.915865,44.8978303 102.937688,45.0777984 C102.337111,45.1827585 101.550935,45.5173508 101.606743,46.2413194 L101.594199,47.3928084 L101.594199,51.1944116 C101.594199,51.4603959 101.711959,51.7210041 101.897559,51.9063483 C102.070871,52.0673724 102.287703,52.1477565 102.510679,52.1539005 L102.553943,52.1480125 C106.763867,51.4545079 117.418596,50.2594988 117.418596,50.2594988 C117.554788,50.2474668 117.672548,50.1914028 117.759076,50.1174187 C117.920101,50.2039468 118.043749,50.2594988 118.161509,50.2594988 C118.161509,50.2594988 122.724201,50.0180906 124.643434,49.9374506 C124.643434,49.9374506 125.107563,49.8634665 125.113963,49.1453859 C125.113963,49.1389859 125.113963,49.0650018 125.113963,48.9592737 C125.336939,49.0708898 125.528683,49.1571619 125.701995,49.22577 C126.32126,49.4792102 127.027052,49.6773544 127.788397,49.8383785 C128.809838,50.0488107 129.899375,50.1604268 130.958448,50.1604268 C132.221553,50.1604268 133.261426,50.0429227 134.233458,49.7828264 C134.834035,49.6218023 135.428211,49.3988261 136.041332,49.1077539 C137.372277,48.4828573 138.641526,47.4611605 139.823991,46.0741513 C141.854585,43.6846452 142.102137,40.5701466 142.102137,40.2112343 C142.102137,40.0379221 142.108281,32.2125075 142.108281,32.2125075 C142.108281,32.0886034 142.102137,30.9616904 141.835897,29.7175293 C141.619321,28.6896885 141.179768,27.6311276 140.85132,26.981143 C140.696696,26.6716387 140.114807,25.5943898 139.210871,24.640789 C138.344054,23.7368522 137.198965,22.9135555 137.198965,22.9135555 C137.198965,22.9135555 137.186421,22.9074115 130.648687,18.6726559 C129.064046,17.6696471 128.853358,16.9579665 128.859502,16.3323019 L128.859502,11.2491616 C128.872046,11.0261854 129.020526,9.32378395 130.852976,9.32378395 C133.347954,9.32378395 133.930098,11.1255135 134.010482,13.8247798 C134.010482,14.115852 134.004594,17.3598868 134.004594,17.4896789 C134.004594,18.0221594 134.419059,18.4494237 134.920563,18.4494237 L141.155192,18.4494237 C141.662585,18.4494237 142.083705,18.0221594 142.083705,17.4958229 L142.065273,7.35488627 C142.102649,7.36743028 144.065147,7.73274259 144.572795,8.22784701 C144.783227,8.42573518 144.820347,8.54349528 144.838779,9.00787968 L144.900732,41.4861154 C144.727419,43.0402927 142.560634,43.2138608 142.560634,43.2138608 C142.120825,43.2878449 141.792633,43.6902772 141.792633,44.1549176 L141.786745,49.0084258 C141.786745,49.5040422 142.145657,49.9123626 142.622586,49.9679146 L143.594618,50.0795307 L143.867003,50.0979627 C149.030271,50.389035 154.038659,50.8969394 159.282824,51.639852 C159.282824,51.639852 159.604872,51.6703161 159.864712,51.3984438 C160.050312,51.2064437 160.168073,50.9524914 160.168073,50.6798512 L160.168073,45.5849349 C160.168073,45.1018625 159.83988,44.7058301 159.381896,44.631334 C159.381896,44.631334 156.843398,44.2967418 156.763014,43.1887728 C156.763014,42.8173165 156.725894,29.8903295 156.725894,29.8903295 C157.388422,29.8903295 158.242695,29.8903295 158.360455,29.8903295 C159.16532,29.8529535 159.39444,31.8466832 159.561352,32.6763799 C159.64788,33.1220762 160.025736,33.4441245 160.459145,33.4441245 L166.07451,33.4441245 C166.581902,33.4441245 167.003022,33.0107161 167.003022,32.4843797 L167.003022,18.9015201 C167.003022,18.3751837 166.581902,17.9417753 166.07451,17.9417753 L160.317065,17.9417753 C159.858568,17.9417753 159.462536,18.3006876 159.400584,18.765328 L159.208584,20.1395372 C159.208584,20.1395372 159.010696,21.2851381 158.354311,21.3593782 L156.68903,21.3593782 C156.68903,18.1337755 156.676486,11.3546337 156.670342,9.86266441 L159.326344,9.86266441 C159.487368,9.86880841 159.908232,9.91207245 160.286089,10.0421206 C160.453001,10.0979286 160.762505,10.2958168 160.948361,10.4632409 C161.072009,10.574857 161.363082,10.9463133 161.437578,11.1316575 C161.542538,11.3730657 161.573514,11.6272739 161.586058,11.73249 L161.586058,16.1405578 C161.586058,16.6727822 162.000778,17.1000466 162.508683,17.1000466 L169.003152,17.1000466 C169.510545,17.1000466 169.931665,16.6727822 169.931665,16.1405578 L169.931665,7.35488627 C169.968785,7.37357429 171.572114,7.81312666 171.60309,8.74163945 L171.60309,8.79130349 C171.609234,9.18119183 171.640466,44.9531263 171.640466,44.9777023 C171.640466,44.9777023 171.621778,46.4018316 170.557329,46.5812877 L169.219728,46.7673999 C168.774032,46.8354959 168.427152,47.2379283 168.421264,47.7143447 L168.40872,52.4014527 C168.40872,52.7168449 168.563344,53.0140612 168.823696,53.1999174 C168.823696,53.1999174 186.721695,57.446961 186.734239,57.446961 C186.808735,57.446961 186.876831,57.428529 186.938783,57.3914089 C186.994335,57.465393 187.056287,57.527345 187.136672,57.5644651 L187.18608,57.5895531 C188.288161,57.9049454 189.291169,58.1960176 190.250658,58.4870899 C204.087726,62.6417174 216.216248,68.3681863 223.954623,72.4480618 C223.954623,72.4480618 224.171711,72.5655659 224.561599,72.3305577 C224.833728,72.1631335 224.98272,71.8474853 224.98272,71.519037 L224.995008,65.8729522 C224.995008,65.4830638 224.772288,65.1364395 224.425151,64.9815594 C224.425151,64.9815594 221.651645,64.1149987 221.651645,62.3196691 C221.651645,60.5181956 221.670077,42.3967081 221.682621,32.3361556 C223.682495,41.9384678 228.554691,65.2106796 228.610499,65.4705198 C228.629187,65.5695919 228.746691,66.0710963 228.944835,66.3066165 C229.124291,66.5295927 229.452484,66.5790008 229.694148,66.5790008 C229.725124,66.5790008 231.365829,66.5726008 231.365829,66.5726008 C231.402949,66.5667127 231.724742,66.5231927 231.984838,66.2689845 C232.226246,66.0339763 232.38727,65.5073838 232.38727,65.5073838 C232.38727,65.5073838 237.129418,41.8949477 239.073228,32.2429715 C239.06734,44.3773818 239.042508,74.1747832 239.042508,74.6332796 C239.02382,75.2087681 238.930892,75.7847686 238.87534,76.0013448 C238.732748,76.4408972 237.996235,76.6513293 237.860043,76.6764174 C237.779659,76.6889614 237.507274,76.7258254 236.54753,76.8804495 C236.095433,76.9549456 235.767241,77.3509779 235.761353,77.8279064 L235.755209,82.8734147 C235.755209,83.4058951 236.169929,83.8393035 236.677834,83.8393035 L255.077593,83.8393035 C255.325402,83.8393035 255.560666,83.7276874 255.733722,83.5543752 C255.90089,83.3687751 256,83.1273669 256,82.8734147 C256,82.8734147 256,82.8734147 255.963098,77.7037462" id="Shape"></path>
                <path d="M101.960535,64.9628714 C99.2364366,64.9628714 96.6672184,66.2193205 94.9212969,68.4173383 L80.6323887,68.4792904 C80.3413165,68.4667464 79.8275241,68.1756741 79.8275241,67.6247617 C79.8398121,67.0241851 80.2916525,66.7891769 80.6879408,66.7702329 C80.972613,66.7891769 81.2388533,67.0241851 81.3875894,67.2346173 C81.5547575,67.4701375 81.8271418,67.6122176 82.124358,67.6122176 C82.3347902,67.6122176 82.5390784,67.5441216 82.6939585,67.4081855 C83.0963908,67.0861372 83.0467268,66.4051766 82.7684546,65.9407922 C82.3721662,65.2966957 81.5737015,64.9068073 80.6323887,64.8883753 L80.5952687,64.8883753 C79.9762602,64.8883753 79.2888996,65.2042796 78.8060832,65.711928 C78.4594589,66.0708403 78.0570265,66.6898489 78.0631706,67.6124736 C78.0693146,69.5690833 79.728452,70.380092 80.6139567,70.380092 C80.6323887,70.380092 80.6449328,70.380092 80.6572208,70.380092 C80.7191728,70.380092 95.3485613,70.330684 96.0791859,70.32454 L96.153426,70.32454 L96.190546,70.2684759 C97.5217471,68.3123782 99.682389,67.1419452 101.960791,67.1419452 C105.867354,67.1419452 109.049437,70.4789081 109.049437,74.5649276 C109.049437,78.6573471 105.867098,81.9884219 101.960791,81.9884219 C99.6020049,81.9884219 97.410387,80.7624369 96.0853299,78.7070111 L96.0482099,78.638915 L95.9739698,78.638915 L47.1017362,78.582851 C46.0554633,78.626371 44.8049022,79.8523561 44.8233833,81.3133493 C44.8484222,83.1089349 46.1793674,84.0558797 47.4795925,84.0622797 L47.4918805,84.0622797 C48.2534811,84.0622797 49.0580898,83.5543752 49.3614501,83.2138949 C49.8506665,82.6568385 49.9187626,82.062406 49.5411622,81.6412856 L49.5350182,81.6412856 L49.5288742,81.6353976 C49.3801381,81.4989495 49.2068259,81.4308534 49.0025378,81.4308534 C48.5939614,81.4308534 48.2225051,81.6973496 48.079913,81.8458298 C47.9311769,81.9943099 47.7207447,82.1737661 47.4793365,82.1737661 C47.0336401,82.161222 46.6496398,81.7587897 46.6557838,81.3192373 C46.6557838,80.879685 47.0210961,80.4961966 47.4296724,80.4961966 C47.4483605,80.4961966 93.1443994,80.5392047 94.7912488,80.5392047 C96.5494583,82.8485826 99.1557965,84.1736398 101.960535,84.1736398 C107.018587,84.1736398 111.129439,79.8582441 111.129439,74.5646716 C111.129439,69.2718671 107.018587,64.9628714 101.960535,64.9628714" id="Path"></path>
                <path d="M218.61881,78.582851 L169.740177,78.638915 L169.665937,78.638915 L169.622673,78.7008671 C168.304015,80.7562928 166.106254,81.9884219 163.747212,81.9884219 C159.840648,81.9884219 156.66471,78.6573471 156.66471,74.5649276 C156.66471,70.4730201 159.840648,67.1483452 163.747212,67.1483452 C166.031758,67.1483452 168.186255,68.3123782 169.517457,70.2684759 L169.560721,70.330428 L169.628817,70.330428 C170.365841,70.330428 185.86819,70.379836 185.930143,70.379836 C185.936287,70.379836 185.948575,70.379836 185.960863,70.379836 C186.846367,70.379836 188.511905,69.5688273 188.517793,67.6122176 C188.523937,66.6895929 188.11536,66.0708403 187.77488,65.705784 C187.28592,65.1978796 186.598815,64.8822313 185.979551,64.8822313 L185.948575,64.8822313 C185.001374,64.9006633 184.202909,65.2966957 183.812765,65.9346482 C183.53398,66.4051766 183.484572,67.0802492 183.880861,67.4140735 C184.041885,67.5379776 184.246173,67.6060736 184.450461,67.6060736 C184.747678,67.6060736 185.026206,67.4701375 185.18723,67.2405053 C185.341854,67.0239291 185.60835,66.7825209 185.893022,66.7640889 C186.282911,66.7891769 186.741151,67.0241851 186.747551,67.6245057 C186.753439,68.1820741 186.233503,68.4728904 185.942431,68.4790344 L170.798994,68.4173383 C169.040784,66.2193205 166.47771,64.9562154 163.747212,64.9562154 C158.695559,64.9562154 154.578564,69.2716111 154.578564,74.5646716 C154.578564,79.8646441 158.695559,84.1672398 163.747212,84.1672398 C166.558094,84.1672398 169.164688,82.8488386 170.922642,80.5333167 C172.569747,80.5333167 218.228666,80.4897966 218.228666,80.4897966 C218.240954,80.4897966 218.259642,80.4897966 218.284218,80.4897966 C218.69305,80.4897966 219.052219,80.879685 219.058107,81.3192373 C219.064251,81.7651897 218.680506,82.161222 218.228666,82.1737661 C217.987258,82.1737661 217.770426,81.9881659 217.634234,81.8391738 C217.485753,81.7032377 217.114297,81.4305974 216.711609,81.4305974 C216.513721,81.4305974 216.327864,81.4986935 216.179128,81.6410296 L216.17324,81.6410296 L216.17324,81.6474296 C215.79564,82.056006 215.857592,82.6563265 216.346808,83.2200389 C216.656313,83.5605192 217.454777,84.0681677 218.216378,84.0681677 L218.23481,84.0622797 C219.535035,84.0558797 220.86598,83.1086789 220.885122,81.3133493 C220.9031,79.8523561 219.664827,78.626371 218.61881,78.582851" id="Path"></path>
                <path d="M163.747212,72.4227177 C162.676107,72.4227177 161.803146,73.3391985 161.803146,74.4597115 C161.803146,75.5802244 162.676107,76.4967052 163.747212,76.4967052 C164.465804,76.4967052 165.109133,76.0942729 165.449869,75.4317443 L208.30405,75.3761923 C208.805554,75.3761923 209.214386,74.9550719 209.214386,74.4287355 C209.214386,73.908799 208.805554,73.4817906 208.30405,73.4817906 L165.480589,73.5373427 C165.152653,72.8563821 164.477836,72.4227177 163.747212,72.4227177" id="Path"></path>
                <path d="M100.245589,75.4378883 C100.58607,76.0942729 101.223766,76.4969612 101.941847,76.4969612 C103.012952,76.4969612 103.885913,75.5804804 103.885913,74.4599675 C103.885913,73.3394545 103.012952,72.4229737 101.941847,72.4229737 C101.211222,72.4229737 100.542806,72.8563821 100.214613,73.5375987 L57.434417,73.4820466 C56.9329125,73.4820466 56.5243362,73.909055 56.5243362,74.4289915 C56.5243362,74.9555839 56.9329125,75.3764483 57.434417,75.3764483 L100.245589,75.4378883 Z" id="Path"></path>
                <path d="M233.068743,80.0192682 C232.876743,79.8953641 214.062262,68.008762 190.121122,60.8271879 C170.872978,55.0446549 151.724161,52.1162684 133.206898,52.1162684 C119.815526,52.1162684 103.056472,52.9953732 80.2734764,59.4401787 C55.8187996,66.3683126 35.5120943,78.7436191 34.6639656,79.2702116 C34.069533,79.6291239 33.8777889,80.4158126 34.2182692,81.0281651 C34.2182692,81.0281651 34.4783654,81.5237815 34.9734698,81.6167096 C35.3387821,81.7032377 35.8960946,81.4741175 35.8960946,81.4741175 C36.7503673,80.954181 56.7846884,68.7450186 80.917573,61.9100688 C103.42204,55.5395033 119.98295,54.6790866 133.207154,54.6790866 C151.495297,54.6790866 170.415505,57.5764971 189.446818,63.29119 C213.078198,70.37958 231.595717,82.087238 231.787718,82.1985981 C232.363206,82.5636544 233.118663,82.3780542 233.471431,81.7710777 C233.823687,81.1707572 233.644231,80.3848365 233.068743,80.0192682" id="Path"></path>
                <path d="M126.328684,74.2433913 L124.223594,74.1939833 C124.118378,74.1875832 124.025706,74.2743673 124.006762,74.3854714 L123.660137,76.3856011 C123.480681,77.2091538 123.214697,77.9950745 123.140201,78.2180507 C122.867817,79.0039714 122.595433,79.5740838 122.323304,79.9020201 C121.827688,80.5025966 121.202535,80.7004848 120.998247,80.7004848 C120.843367,80.7004848 120.540007,80.5269167 120.366695,80.1308843 C120.211814,79.771972 120.156262,79.2269475 120.125286,78.8987553 C120.125286,78.8987553 120.069478,69.0302028 120.069478,64.4362789 C120.069478,63.1053338 120.069478,62.207797 120.081766,62.0838929 L120.081766,62.0780049 C120.081766,62.0716049 120.081766,62.0595729 120.081766,62.0529169 C120.081766,62.0403729 120.075878,62.0344849 120.075878,62.0219409 L120.075878,61.9973649 C120.075878,61.8547727 120.088422,61.5949325 120.162406,61.3473803 C120.230758,61.1489801 120.360551,60.969268 120.466023,60.8333319 C120.472167,60.8274439 120.540263,60.7342598 120.540263,60.7342598 C120.651879,60.5673476 120.985959,60.3686915 121.431912,60.2143233 C121.51844,60.1892353 121.580392,60.0968192 121.580392,60.0038912 L121.555304,58.2828017 C121.549416,58.2141936 121.524328,58.1588976 121.47492,58.1153775 C121.431912,58.0782575 121.375847,58.0598255 121.320295,58.0598255 L113.469793,58.7282421 C113.358177,58.7341301 113.271649,58.8398582 113.271649,58.9512183 L113.259361,60.5361156 C113.259361,60.6164997 113.327457,60.7091718 113.401697,60.7465478 L114.107489,61.0990601 C114.416994,61.3094923 114.571874,61.5759885 114.615138,61.6499726 C114.701666,61.7989647 114.844258,62.220085 114.924642,62.6529814 C114.924642,62.6593814 115.029858,63.7120543 115.029858,63.7179423 C115.029858,63.9718945 115.085666,78.9353633 115.085666,78.9353633 C115.085666,78.9353633 115.066978,79.3319076 114.955618,79.721796 C114.856546,80.0684203 114.664546,80.3533485 114.60285,80.4273326 C114.503778,80.5699247 114.256225,80.8054449 114.058081,80.941381 L113.408097,81.3128373 C113.340001,81.3499574 113.278049,81.4367414 113.278049,81.5232695 L113.327457,83.0093508 C113.333601,83.1268549 113.426529,83.2197829 113.537889,83.2197829 L125.468267,83.238215 C125.573227,83.238215 125.666155,83.1511749 125.672299,83.0336708 L126.539372,74.4901755 C126.54526,74.4282235 126.526828,74.3662714 126.483564,74.3166074 C126.440044,74.2743673 126.384236,74.2433913 126.328684,74.2433913" id="Path"></path>
                <path d="M136.407668,80.2609324 C136.35186,80.2238124 136.265076,80.2174124 136.203124,80.2363564 L135.578228,80.4654766 C135.225203,80.5394607 134.816627,80.5645487 134.562675,80.5645487 C134.401651,80.5645487 133.584754,80.5394607 133.157234,80.1060523 C132.705393,79.6419239 132.637297,78.7689632 132.631153,78.4225949 C132.618609,77.9331224 132.618609,74.4661115 132.625009,68.6590025 L132.631153,68.4050503 C132.625009,68.3369543 132.625009,68.1636421 132.717681,68.0955461 C132.786033,68.039994 132.990065,67.996474 133.083249,68.002618 C133.107825,68.015162 133.132657,68.021562 133.132657,68.021562 C133.169778,68.033594 133.206898,68.015162 133.237618,68.009018 C133.479026,68.009018 135.627636,68.002618 135.627636,68.002618 C135.714164,68.002618 135.794548,67.9411779 135.831924,67.8541378 C135.90002,67.6501057 136.023668,67.2166973 136.098164,66.6097208 L136.160116,65.5511599 L136.160116,65.4520878 C136.153716,65.3220397 136.054644,65.2045356 135.943028,65.2045356 L133.187954,65.2045356 C132.866161,65.2291116 132.711537,65.1861036 132.680561,65.1610156 C132.612465,65.0990635 132.581489,64.9444394 132.581489,64.8264233 L132.581489,60.7345158 C132.581489,60.6664197 132.556401,60.6044677 132.501105,60.5550596 C132.451697,60.5115396 132.377201,60.4989956 132.314993,60.5179396 L127.832941,61.7434126 C127.740013,61.7685007 127.671917,61.8550287 127.671917,61.9605008 L127.671917,64.8640553 C127.671917,65.0250794 127.646829,65.1425835 127.597421,65.1794476 C127.554157,65.2229676 127.411821,65.2475436 127.25694,65.2355116 L125.071467,65.2355116 C124.948075,65.2355116 124.85489,65.3345837 124.85489,65.4579758 L124.842346,67.7304897 C124.842346,67.7919298 124.867434,67.8421058 124.904298,67.8851139 C124.941419,67.9286339 125.003371,67.9532099 125.058923,67.9532099 L127.151724,67.9532099 C127.281773,67.9411779 127.510637,67.9657539 127.584877,68.064826 C127.634285,68.1142341 127.677549,68.2442822 127.677549,68.4739144 L127.671661,68.5914185 L127.671661,79.3639077 C127.677549,79.4563237 127.708781,80.1933484 127.950189,80.898885 C128.154477,81.5120055 128.569198,82.056774 128.767342,82.2674621 C128.953198,82.4594623 129.46059,82.8990147 130.079855,83.1465669 C130.637167,83.3695431 131.212656,83.4189511 131.274608,83.4250951 C131.29304,83.4250951 133.565298,83.4250951 133.565298,83.4250951 C133.596274,83.4192071 134.320499,83.332679 134.320499,83.332679 C134.351475,83.326279 134.530931,83.276615 134.530931,83.276615 C134.543475,83.270727 135.422323,83.0042308 135.422323,83.0042308 C135.824756,82.8496066 136.004212,82.7072705 136.2149,82.5027263 C136.468852,82.2613181 136.524404,82.088262 136.524404,81.9827899 L136.505972,80.4414126 C136.50674,80.3664045 136.463476,80.3044525 136.407668,80.2609324" id="Path"></path>
                <path d="M145.89862,78.1683866 C145.89222,78.7932832 145.267068,79.8833321 144.121723,79.8833321 C142.951802,79.8833321 142.258297,78.9543073 142.264441,78.1558426 C142.270585,77.6543382 142.245753,69.6617554 142.245753,69.4078032 C142.245753,69.0179148 142.499705,67.5569216 143.998075,67.5569216 C145.63878,67.5569216 145.880188,68.9623628 145.898876,69.259323 C145.917052,69.4822992 145.910908,77.6914582 145.89862,78.1683866 M152.721026,81.1894452 C152.45453,81.1835572 151.779969,81.1280052 151.352449,80.7808689 C150.776961,80.3164845 150.739585,79.2453796 150.739585,79.2333475 C150.727296,78.626371 150.708608,58.9018102 150.708608,58.703922 C150.708608,58.59845 150.634368,58.5055219 150.535296,58.4809459 C149.965696,58.3880178 148.002942,58.0659695 146.121085,58.0229615 L143.508346,58.0104175 C143.452794,58.0104175 143.39673,58.0349935 143.353722,58.0723695 C143.310202,58.1153775 143.29177,58.1714416 143.29177,58.2269936 L143.29177,59.9419391 C143.29177,60.0535552 143.372154,60.1585153 143.489658,60.1649153 C143.743611,60.1833473 143.978619,60.2330114 144.177019,60.3133954 C144.542331,60.4618755 144.882812,60.7713798 145.01286,60.9014279 C145.087356,60.981812 145.483388,61.3903883 145.656956,61.7994767 C145.743484,62.0099089 145.81798,62.3381011 145.81798,62.5359893 C145.81798,62.5359893 145.81798,62.5669653 145.81798,62.5920534 C145.805436,62.6225174 145.792892,62.6476054 145.792892,62.6476054 C145.799036,62.6350614 145.811324,62.6417174 145.81798,62.6291734 L145.81798,65.2106796 C145.81158,65.3222957 145.780604,65.4956078 145.718908,65.5821359 C145.669244,65.656632 145.570172,65.693752 145.483388,65.693752 C145.427836,65.668664 145.180028,65.5452719 145.180028,65.5452719 C144.963196,65.4277678 144.616571,65.2232236 144.207995,65.0808875 C143.564154,64.8643113 142.777722,64.7839272 142.493049,64.7839272 C142.158713,64.7839272 140.053879,65.0130474 138.926966,66.0160563 C137.509237,67.2791614 137.515125,69.5386193 137.515125,69.5634513 C137.515125,69.5570513 137.527669,79.9393962 137.527669,79.9393962 C137.527669,79.9519402 137.577077,81.2147892 138.456438,82.12487 C139.261303,82.9543107 140.381816,83.4128071 141.087608,83.4314951 C141.087608,83.4314951 142.98201,83.6419273 144.158075,83.0224068 C144.665979,82.7564226 145.315964,82.2490301 145.452156,82.131014 L145.6567,82.131014 C145.699964,82.2180541 145.916796,82.6698945 146.232189,82.9671107 C146.486141,83.2085189 146.839165,83.270727 147.000189,83.270727 L152.71437,83.270727 C152.83213,83.270727 152.931204,83.1716549 152.931204,83.0416068 L152.931204,81.4131894 C152.931714,81.2949173 152.832642,81.1894452 152.721026,81.1894452" id="Shape"></path>
                <path d="M101.328982,28.9989367 C101.099862,29.0050807 99.1867726,28.9927927 98.9950284,28.9927927 C98.7968842,28.9927927 98.6420041,28.8258806 98.6729801,28.5842164 C98.7287882,28.20636 99.9854932,17.3286548 99.9916372,17.2792467 C100.003925,17.2298387 100.034901,17.2050067 100.072021,17.2050067 C100.109397,17.2050067 100.146517,17.2359827 100.158805,17.2792467 C100.171093,17.3227668 101.582679,28.4231922 101.613655,28.5903604 C101.644887,28.7636725 101.558103,28.9927927 101.328982,28.9989367 M99.5956049,11.9116902 L96.8901946,30.3298819 L103.403096,30.3298819 L100.449878,11.8991461 L99.5956049,11.9116902 Z" id="Shape"></path>
                <path d="M104.300633,31.1224585 C104.139865,31.3267467 103.898201,31.4445068 103.650648,31.4445068 L96.6485304,31.4445068 C96.3948342,31.4445068 96.15957,31.3267467 95.9924018,31.1288585 C95.8377777,30.9307144 95.7632816,30.6706181 95.8065457,30.4169219 L98.574164,11.5589219 C98.6361161,11.1257695 98.9888844,10.8037212 99.4100047,10.8037212 L100.623446,10.7911772 C101.04431,10.7911772 101.403478,11.1068255 101.471575,11.5340898 L104.492889,30.4043779 C104.535897,30.6644741 104.461657,30.9304584 104.300633,31.1224585 M114.175585,44.8169342 C114.070369,44.6935421 113.742177,44.3095418 113.550433,43.8574454 C113.315169,43.3313649 113.191264,42.7553644 113.18512,42.7310444 L113.18512,42.7246444 L108.257116,11.2061536 C108.257116,11.1936095 108.07766,10.2092887 108.021852,9.75104831 C107.947612,9.16915982 107.947612,8.83482353 107.947612,8.66765539 C107.947612,8.35815113 107.947612,7.88147872 108.250972,7.16928611 C108.461404,6.65549367 108.925789,6.23462932 109.130077,6.05491716 C109.371485,5.84448498 109.94723,5.46662866 110.566238,5.30560452 C110.987359,5.18810042 111.420511,5.16966841 111.637343,5.16966841 L111.674463,5.16966841 L111.674463,3.67129913 L93.0023193,3.67129913 L92.9900313,5.12614837 C93.2562715,5.18810042 93.794896,5.34912456 94.3025444,5.64019681 C94.8350248,5.94970107 95.2497452,6.42022947 95.4663214,6.76070976 C95.6954416,7.13856609 95.9926578,7.80698266 96.0794419,8.48179923 C96.17237,9.32378395 96.0236339,10.0979286 96.0174899,10.1225046 L90.7674374,45.720871 C90.7551494,45.801255 90.4146691,47.7327767 90.0803328,48.3643292 C90.0803328,48.3643292 89.5911164,49.255722 89.18894,49.7387944 C88.8110837,50.2031788 88.3779313,50.5871791 88.1982192,50.7482033 L88.1982192,52.0107963 L96.3085621,50.3332269 L96.3085621,48.8906657 C96.0855859,48.8847777 95.7822257,48.8471456 95.4788654,48.7667616 C94.9463849,48.6308255 94.4448805,48.2716572 94.2592804,48.085801 C94.0672802,47.9002008 93.7516319,47.4358164 93.6277278,46.934312 C93.5102237,46.4018316 93.5967518,45.8941831 93.6028958,45.8757511 L95.3055533,34.5707815 C95.3178413,34.4778534 95.3611053,34.2919972 95.5036974,34.1808931 C95.6337455,34.0879651 95.8009137,34.063133 95.8874417,34.063133 L104.220761,34.063133 C104.233049,34.063133 104.257881,34.063133 104.264025,34.063133 C104.356953,34.063133 104.536409,34.0879651 104.697433,34.1931812 C104.926553,34.3478053 104.963673,34.5710375 104.969817,34.6204455 L106.418523,43.2384369 C106.424667,43.2635249 106.548571,43.9874935 106.505307,44.6748541 C106.467931,45.1822465 106.294875,45.6653189 106.158683,45.9379592 C106.02249,46.1913994 105.64489,46.6995598 105.211482,47.0333841 C104.852313,47.3057683 104.480857,47.4729365 104.276569,47.5599765 L104.276569,48.9899938 L115.754851,47.7025687 L115.754851,45.8324871 C115.612515,45.776935 115.37725,45.6840069 115.154274,45.5665028 C114.720354,45.3307266 114.348897,45.0153344 114.175585,44.8169342" id="Shape"></path>
                <path d="M136.562292,5.64608481 C136.568436,5.71443687 136.53746,6.08589319 136.35186,6.18470927 C136.054644,6.34573341 135.819636,6.12890123 135.763572,6.0979252 L135.751284,6.0979252 L135.74514,6.09178119 L135.726708,6.07334918 C135.411059,5.81965296 133.76421,4.51942785 132.767089,4.03661144 C131.782768,3.55353903 130.879088,3.21945874 130.080367,3.03974659 C128.786286,2.75481835 127.467629,2.72998633 127.418221,2.72998633 L127.387245,2.72998633 C126.898284,2.72998633 125.319531,2.86003444 123.914346,3.44192293 C123.010409,3.81977926 122.323304,4.41395576 121.580392,5.10106035 C120.044902,6.51264555 119.83447,8.74752746 119.821926,8.85914355 L119.828326,18.1145754 C119.828326,18.1271195 119.828326,19.0866083 120.038758,20.0647851 C120.181094,20.7767217 120.502887,21.5319224 120.744295,22.0024508 C121.023079,22.5226432 121.543016,23.2222918 122.05092,23.7422282 C122.595689,24.2995407 123.165289,24.7019731 123.183977,24.7204051 L129.839215,29.1159288 C129.845359,29.1220728 130.545007,29.5680252 131.114352,30.0446976 C131.485808,30.3667459 131.77688,30.7133702 131.919472,30.9299464 L131.950448,30.9734664 C132.092785,31.2025866 132.371569,31.6109069 132.507505,32.1124114 C132.712049,32.8863 132.730481,33.7840928 132.730481,33.7963808 L132.730481,37.9937604 C132.730481,38.0431684 132.743025,39.2691535 132.445809,40.3776344 C132.309617,40.8788829 132.031089,41.4239073 131.702896,41.8201957 C131.275632,42.3403881 130.600815,43.0333807 129.777519,43.392805 C128.910446,43.7704053 127.412589,43.8072693 127.400045,43.8072693 C126.873708,43.8072693 126.40958,43.7332853 125.988459,43.5968372 C125.208427,43.343397 124.366442,42.7673965 123.734889,42.0677479 C123.282793,41.5603554 122.861929,40.7800668 122.638953,40.0248661 C122.385256,39.1580494 122.372968,38.4089927 122.372968,38.3780167 L122.335592,33.3755165 L119.815782,33.3755165 L119.790694,47.3364884 L122.409576,47.3364884 L122.3786,45.2994946 C122.372712,45.1016065 122.440552,44.7365501 122.731625,44.631078 C122.781033,44.612646 122.836585,44.600102 122.898537,44.600102 C123.158633,44.600102 123.425129,44.7979902 123.480425,44.8415102 C123.82705,45.0644864 125.597803,46.1908874 126.668908,46.6245517 C127.826285,47.0950801 129.42987,47.3736084 130.959472,47.3736084 C132.327537,47.3736084 133.528434,47.2376723 134.933875,46.5751437 C135.911796,46.1107593 136.883829,45.3181826 137.818997,44.2227577 C139.249015,42.5387883 139.422583,40.1613142 139.428727,40.0499541 L139.428727,32.2122515 C139.428727,32.2061075 139.422583,31.2896267 139.218295,30.3237379 C139.063671,29.5746812 138.729078,28.7575285 138.48767,28.2870001 C138.25855,27.8287597 137.819253,27.1416551 137.305205,26.6030307 C136.6181,25.8788061 135.794804,25.2905176 135.769972,25.2720855 L129.238382,21.0373299 C129.17003,20.9940659 127.616109,19.929105 127.238508,19.3720485 C127.077484,19.1426723 126.668908,18.5300638 126.47102,17.9417753 C126.210668,17.1740306 126.186092,16.437262 126.186092,16.406542 L126.186092,10.9954654 C126.186092,10.9580893 126.186092,10.1161046 126.594668,9.21242385 C126.792812,8.75418346 127.164524,8.25267904 127.634797,7.79469465 C128.45195,7.00211797 129.752175,6.46963752 130.872432,6.46963752 C131.993201,6.46963752 134.197106,7.11962207 135.330163,8.84096754 L135.348595,8.86579956 C135.726452,9.45383206 136.11634,10.0482646 136.30834,10.6982491 C136.747893,12.1408104 136.685941,13.5459955 136.679797,13.6512116 L136.679797,15.6633734 L139.403895,15.6633734 L139.403895,3.69613115 L136.562036,3.69613115 L136.562036,5.64608481 L136.562292,5.64608481 Z" id="Path"></path>
                <path d="M27.1726312,66.7023929 C27.1664872,66.7397689 26.6649827,70.4359 26.4978146,71.3088608 C26.3367905,72.1879655 25.9714781,73.0483823 25.853974,73.3327985 L25.829142,73.4014066 C25.4576857,74.3299194 24.8077011,75.1844481 23.8912204,75.9519368 C21.9658427,77.5739541 19.8671529,77.6484502 19.8423209,77.6484502 C19.8423209,77.6484502 14.6048125,77.6420502 14.5922684,77.6420502 C14.4931964,77.6420502 13.9855479,77.6049302 13.9855479,76.8686735 L13.9978359,8.71117543 L13.9978359,8.70503142 L13.9978359,8.69888742 C14.0039799,8.64307937 14.1401721,7.2747582 15.248397,6.19750928 C15.9355016,5.5104047 16.9633425,5.21958845 17.4028948,5.12026037 L17.4028948,3.71456317 L2.66829027,3.71456317 L2.67443428,5.07034032 C3.20691473,5.20038843 4.32128368,5.55955674 5.0393643,6.43866149 C5.99910911,7.60883849 6.03008514,8.97101565 6.03008514,8.98304766 C6.03622915,11.6638819 6.16627726,74.5462396 6.16627726,74.6391676 C6.16627726,74.7072637 6.23437331,76.3976331 5.54112472,77.437762 C4.61261193,78.8493472 3.36179487,79.2392356 2.92249849,79.3441956 L2.91021048,81.0901171 L29.1911929,81.0220211 L30.9803784,59.6193788 L28.0335599,59.6134908 L27.1726312,66.7023929 Z" id="Path"></path>
                <path d="M144.171131,5.20038843 C144.400251,5.26234049 144.802683,5.36755658 145.205116,5.56570074 C145.762172,5.83808498 146.270077,6.26534934 146.474109,6.49446954 C146.610557,6.63706166 147.043965,7.13856609 147.247998,7.7388866 C147.483262,8.41370317 147.50195,9.13792779 147.50195,9.16890382 L147.582334,41.5419234 C147.582334,41.5667554 147.563646,42.21674 147.38419,42.8854126 C147.223166,43.448869 146.913405,44.0000375 146.696829,44.2598777 C146.504829,44.4889979 146.003324,44.9969024 145.421436,45.2938626 C144.981884,45.5229828 144.542331,45.6404869 144.295035,45.702439 L144.295035,47.3495444 C145.143164,47.4299284 148.956799,47.8136728 151.049345,47.9501209 C151.959682,48.0120729 152.560002,48.086057 155.915653,48.4641693 L157.494406,48.6497695 L157.494406,47.1578002 C157.302406,47.1142802 156.980614,47.0402961 156.640134,46.879272 C156.070277,46.6253197 155.457669,46.1857674 155.216004,45.9256712 C154.993028,45.696551 154.571908,45.1330945 154.367876,44.619046 C154.114179,43.9629175 154.095491,43.362597 154.089091,43.2939889 L154.045827,27.8971118 C154.039683,27.8103277 154.027395,27.4759914 154.194563,27.2655592 C154.299524,27.1477991 154.491524,27.0922471 154.801028,27.0922471 C154.9001,27.0922471 154.980484,27.0981351 155.005572,27.1045351 L158.392199,27.0983911 C159.22164,27.1109351 159.970696,27.4762474 160.633225,28.17564 C161.233801,28.8197366 161.51873,29.5006972 161.549706,29.5810812 C161.722762,30.0022016 161.828234,30.4230659 161.883786,30.6583301 L164.323212,30.6583301 L164.323212,20.7339697 L161.828234,20.7339697 C161.790858,20.9505459 161.70433,21.3158582 161.543306,21.6996025 C161.320586,22.232083 160.924297,22.7952834 160.726409,23.0121156 C160.485001,23.2783558 160.113289,23.6498122 159.655304,23.8663883 C159.135368,24.1077966 158.559367,24.1451726 158.534535,24.1513166 L158.528391,24.1513166 L154.64666,24.1513166 C154.492036,24.1513166 154.300036,24.1264846 154.169987,24.0274125 C154.003075,23.8727884 154.015363,23.5942601 154.021507,23.5200201 L153.996675,7.7450306 C153.984387,7.68333455 153.959299,7.3861183 154.139011,7.21869415 C154.262916,7.08864604 154.46106,7.06407002 154.61594,7.06407002 C154.634372,7.06407002 154.64666,7.06407002 154.64666,7.06407002 L159.333512,7.07021403 C159.346056,7.07021403 160.243593,7.08275804 161.134985,7.39840631 C161.735562,7.60269448 162.35457,8.04224686 162.695051,8.35175112 C163.017099,8.63642336 163.598987,9.31763994 163.89006,9.99245652 C164.236684,10.8157532 164.261516,11.5770979 164.261516,11.6206179 L164.261516,14.3137402 L167.251855,14.3137402 L167.251855,3.68358714 L144.165499,3.68358714 L144.171131,5.20038843 Z" id="Path"></path>
                <path d="M84.415048,34.8805417 L80.948037,34.8805417 L80.985157,45.8634631 C80.985157,45.8760071 80.985157,47.0213521 80.6756528,48.117033 C80.4217006,49.0150818 79.8830761,49.9185066 79.4870438,50.3519149 C79.2456356,50.6058671 78.3849628,51.4724279 77.3448339,51.8748602 C76.199489,52.3269566 74.8682878,52.3328446 74.8559998,52.3328446 C74.5526396,52.3328446 73.952063,52.3018686 73.3082225,52.0794044 C72.5962859,51.8313402 71.8223972,51.2742837 71.4012769,50.8593074 C70.9678685,50.407723 70.342716,49.5657383 70.0268117,48.7547296 C69.6614994,47.8198168 69.6305234,46.940712 69.6243794,46.903336 C69.6243794,46.903336 69.6863314,13.7441397 69.6614994,12.1095783 C69.6305234,10.0044885 70.2372439,8.52506327 71.6362851,7.32391024 C72.3359337,6.71744573 73.6794228,6.01754113 75.1713921,6.01754113 C76.230209,6.01754113 77.2145298,6.36416543 78.1120666,7.05152601 C80.7186608,9.03885571 80.885573,13.1310192 80.885573,13.1804272 L80.885573,18.6718879 L84.3093199,18.6718879 L84.2783438,3.72659518 L80.7493808,3.72659518 L80.7493808,4.68019599 C80.7493808,4.71757202 80.8113329,5.10131635 80.4831406,5.24979648 C80.0929963,5.42336462 79.6288679,5.15072439 79.5605158,5.10746035 C79.2261795,4.91546019 78.3409308,4.40166775 77.2327058,3.94982737 C75.8272646,3.38022688 74.1929593,2.95936252 72.8681581,2.83520242 C72.6203499,2.8103704 72.3605097,2.79808239 72.1004135,2.79808239 C69.5931473,2.79808239 67.3147454,3.93702736 67.2899134,3.94957137 C65.8412081,4.58726791 64.0643106,6.24026132 63.4079261,7.54023043 C62.6711574,8.97639165 62.6156054,10.3014488 62.6156054,10.3078488 L62.6156054,48.2094491 C62.6156054,48.2278811 62.5846294,50.0603307 63.2407579,51.7384121 C63.7606944,53.0693572 64.9247273,54.2149582 65.5624239,54.7843027 C66.4353846,55.5576794 68.3049542,56.2017759 69.6609874,56.4744161 C70.5400921,56.6479843 71.4378849,56.7404004 72.3418217,56.7404004 C72.4408938,56.7404004 73.0908783,56.7345124 73.1218543,56.7345124 C73.914431,56.7345124 75.4622083,56.6600163 76.8922256,56.1649119 C78.3657628,55.6575194 79.9135401,54.6419666 81.3993654,53.2303814 C82.2661821,52.3883967 83.3866951,50.8529074 83.9004875,49.27441 C84.476232,47.5098005 84.41428,45.6399749 84.41428,45.6153989 L84.41428,34.8805417 L84.415048,34.8805417 Z" id="Path"></path>
                <path d="M208.898738,52.6984129 L208.892594,52.7229889 C208.725426,53.1935173 207.833777,55.5835354 205.846703,56.3635681 C205.723055,56.4255201 205.128367,56.6730723 204.094638,56.6730723 C202.912173,56.6730723 201.618348,56.35768 200.225451,55.7386715 L199.903402,55.5896794 L199.903402,54.8590548 C199.903402,54.4136144 199.872426,9.41696803 199.903402,8.88448757 C199.927978,8.3335751 200.033451,8.01767084 200.256171,7.5038784 C200.497579,6.95885393 201.011371,6.38925345 201.228204,6.20979729 C202.008492,5.55366873 202.831789,5.26259649 203.190957,5.1635244 L203.190957,3.68998715 L189.471394,3.68998715 L189.415585,5.20678844 C189.948066,5.3987886 191.285411,5.94970107 191.805348,6.58765362 C192.046756,6.88461387 192.387236,7.43578234 192.542116,8.00538282 C192.764836,8.78541549 192.764836,9.54676014 192.764836,9.57799217 L192.764836,50.1852588 C192.764836,50.2162348 192.74026,50.9837235 192.542116,51.6708281 C192.39338,52.2283965 192.09642,52.6308289 191.879588,52.8722371 C191.619491,53.1691973 191.142819,53.4661576 190.666403,53.6338377 C190.238882,53.7823179 189.811874,53.8442699 189.570466,53.8752459 L189.570466,55.5837914 C190.468258,55.8687196 195.204518,57.3668329 198.584745,58.5618419 C201.928108,59.7379069 208.540082,62.3509012 209.858483,62.8708376 L212.991158,43.5917172 L211.393972,43.5853172 C210.198707,47.9314329 208.91717,52.6239169 208.898738,52.6984129" id="Path"></path>
                <path d="M183.818653,52.0484284 C183.205532,51.664428 182.543516,51.0638515 182.326683,50.7604913 C182.202779,50.5810351 181.763227,49.9558826 181.558939,49.274922 C181.336219,48.5320094 181.342107,47.7949847 181.342107,47.7640087 L181.336219,9.31149594 L181.336219,9.30535193 C181.336219,9.29280792 181.404315,8.54375128 181.596315,7.85024669 C181.719963,7.42323833 181.936795,6.98982996 182.097819,6.75456576 C182.308251,6.46989352 182.766236,6.01779713 183.168924,5.71443687 C183.398044,5.53498072 183.614621,5.41082061 183.744669,5.34298056 L183.744669,3.67744314 L171.802258,3.72096317 L171.802258,5.25619648 C171.969427,5.34298056 172.247955,5.50400469 172.526483,5.71443687 C172.879507,5.9806771 173.207444,6.27763735 173.355924,6.48218153 L173.362324,6.49446954 C173.516948,6.69875771 173.826452,7.11347806 174.012308,7.60909449 C174.222741,8.19072698 174.278293,8.82867953 174.284693,8.90291959 L174.284693,8.9090636 L174.321813,44.9720703 C174.321813,44.9971584 174.321813,45.6161669 174.167188,46.2661514 C174.04354,46.8296079 173.764756,47.4427284 173.573012,47.7025687 C173.516948,47.7829527 172.978579,48.4946333 172.278931,48.8911777 C171.832978,49.1451299 171.36245,49.262634 171.096466,49.312298 L171.096466,50.9284274 C172.383891,51.2315317 183.08854,53.7884619 184.710557,54.1908942 L184.704669,52.4698047 C184.506013,52.4014527 184.165533,52.2647486 183.818653,52.0484284" id="Path"></path>
                <path d="M252.390615,79.1463075 C251.821015,78.9358753 251.288534,78.595395 251.05967,78.3603868 C250.836694,78.1248666 250.347733,77.5493781 250.125013,77.0353297 C249.815253,76.3108491 249.809365,75.6672645 249.809365,75.6362885 L249.778389,9.17504782 C249.778389,9.1502158 249.803221,8.49408724 250.038485,7.83155868 C250.230485,7.28064621 250.626774,6.75430976 250.898902,6.48218153 C251.196118,6.17242126 251.685335,5.83194097 252.124887,5.6276528 C252.570327,5.42336462 253.01628,5.28717251 253.263832,5.22522045 L253.263832,3.66515512 L239.371212,3.66515512 L233.248199,34.4468774 L233.248199,34.4594214 L233.242055,34.4655654 C233.242055,34.4778534 233.155271,34.7318056 233.043911,34.8554537 C232.926407,34.9977898 232.697286,35.0164779 232.635334,35.0226219 L232.62919,35.0226219 L230.914501,35.0039338 L230.908357,35.0039338 L230.902213,35.0039338 C230.877381,35.0039338 230.605253,34.9729578 230.41914,34.7625256 C230.264516,34.5766695 230.177732,34.2487332 230.165444,34.1808931 L224.011199,3.68358714 L212.625589,3.68358714 L212.644021,5.24390847 C212.891829,5.29971652 213.337526,5.41722062 213.777078,5.64019681 C214.327991,5.90618104 214.854327,6.35187742 215.133111,6.6803257 C215.40524,6.99597396 215.758008,7.59040647 215.913144,8.215559 C216.067768,8.82227952 216.043192,9.39802401 216.036792,9.45997606 L216.067768,58.4248818 C216.067768,58.4558578 216.080056,59.0134263 215.869624,59.5953148 C215.684024,60.1213953 215.300024,60.6538757 215.015351,60.9262599 C214.780087,61.1612681 214.334391,61.4892044 213.789622,61.7121806 C213.35007,61.8916368 212.860853,62.0096529 212.613045,62.0652049 L212.613045,64.0771106 C213.120694,64.3000868 214.891447,65.1052075 217.083065,66.1450804 C219.169467,67.1416892 221.559229,68.3054662 222.370238,68.7020106 L222.370238,67.1355452 C222.159805,67.0426172 221.726397,66.826041 221.305533,66.5536567 C220.816316,66.2441525 220.320956,65.8107441 220.09798,65.5071278 C219.831995,65.1420715 219.460539,64.516663 219.281083,63.9470625 C219.033275,63.1854619 219.020987,62.4676373 219.020987,62.4305172 L219.058107,22.2008509 C219.058107,22.1883069 219.052219,21.8852027 219.219131,21.7367225 C219.330747,21.6251064 219.491515,21.6064184 219.603131,21.6064184 C219.633851,21.6064184 219.671227,21.6064184 219.683259,21.6125624 C219.819451,21.6064184 221.781949,21.6064184 221.831613,21.6064184 C221.955517,21.6064184 222.067133,21.6373944 222.141117,21.6993465 C222.271165,21.8109626 222.32083,22.0459708 222.339262,22.1388989 L230.529989,61.4956044 L238.417611,22.1573309 C238.442443,22.0582588 238.504139,21.8168506 238.628043,21.6993465 C238.714572,21.6251064 238.84462,21.5941304 239.011788,21.5941304 C239.042764,21.5941304 239.067596,21.5941304 239.08014,21.5941304 L241.123022,21.6125624 C241.141454,21.6064184 241.160142,21.6064184 241.191118,21.6064184 C241.302734,21.6064184 241.469646,21.6315064 241.606094,21.7490105 C241.810126,21.9471547 241.803982,22.268947 241.803982,22.299923 L241.766606,74.6949757 L241.766606,74.7195517 C241.760462,75.3075842 241.692366,76.7565454 241.24027,77.474626 C240.757197,78.2485147 239.890893,79.2141475 238.485195,79.4555557 L238.485195,81.0965171 L253.356248,81.0965171 L253.343704,79.3874597 C253.12764,79.3567397 252.762327,79.2763556 252.390615,79.1463075" id="Path"></path>
            </g>
        </g>
    </g>
</svg>