<?xml version="1.0" encoding="UTF-8"?>
<svg width="142px" height="116px" viewBox="0 0 142 116" version="1.1" xmlns="http://www.w3.org/2000/svg" xmlns:xlink="http://www.w3.org/1999/xlink">
    <title>nasa</title>
    <g id="icons" stroke="none" stroke-width="1" fill="none" fill-rule="evenodd">
        <g id="Client-logos" transform="translate(-973.000000, -137.000000)" fill-rule="nonzero">
            <g id="nasa" transform="translate(973.195045, 137.000000)">
                <circle id="Oval" fill="#0B3D91" cx="65.8908321" cy="58" r="58"></circle>
                <g id="Group" transform="translate(23.009268, 4.281365)" fill="#FFFFFF">
                    <circle id="Oval" cx="39.4570503" cy="6.859143" r="1"></circle>
                    <circle id="Oval" cx="46.1326856" cy="7.72610862" r="1"></circle>
                    <circle id="Oval" cx="54.8890384" cy="19.5168411" r="1"></circle>
                    <circle id="Oval" cx="6.859143" cy="80.2044345" r="1"></circle>
                    <circle id="Oval" cx="8.54972596" cy="85.4062282" r="1"></circle>
                    <circle id="Oval" cx="0.48694569" cy="80.9847035" r="1"></circle>
                    <circle id="Oval" cx="26.9293971" cy="91.2033383" r="1"></circle>
                    <circle id="Oval" cx="68.4021425" cy="82.5885899" r="1"></circle>
                    <circle id="Oval" cx="80.4544096" cy="69.4974091" r="1"></circle>
                    <circle id="Oval" cx="21.3808171" cy="23.3199302" r="1"></circle>
                    <circle id="Oval" cx="34.6453911" cy="13.5781266" r="1"></circle>
                    <circle id="Oval" cx="33.2047833" cy="12.6244644" r="1"></circle>
                    <circle id="Oval" cx="31.9043348" cy="11.6708022" r="1"></circle>
                    <circle id="Oval" cx="23.4615346" cy="25.8355755" r="1"></circle>
                    <circle id="Oval" cx="43.0000498" cy="0.48694569" r="1"></circle>
                    <circle id="Oval" cx="46.2092676" cy="14.5317887" r="1"></circle>
                    <circle id="Oval" cx="41.1476333" cy="11.7892875" r="1"></circle>
                    <circle id="Oval" cx="32.4779771" cy="15.5186846" r="1"></circle>
                    <circle id="Oval" cx="70.7111609" cy="95.4529148" r="1"></circle>
                    <circle id="Oval" cx="6.03552566" cy="83.4989038" r="1"></circle>
                    <circle id="Oval" cx="39.9338814" cy="89.7844046" r="1"></circle>
                    <circle id="Oval" cx="16.1241156" cy="83.1087693" r="1"></circle>
                    <circle id="Oval" cx="20.3404584" cy="89.9910314" r="1"></circle>
                    <circle id="Oval" cx="51.3778276" cy="85.6562033" r="1"></circle>
                    <circle id="Oval" cx="68.4888391" cy="75.9996512" r="1"></circle>
                    <circle id="Oval" cx="81.4615346" cy="81.9268062" r="1"></circle>
                    <circle id="Oval" cx="85.8830593" cy="84.756004" r="1"></circle>
                    <circle id="Oval" cx="86.6098655" cy="77.04001" r="1"></circle>
                    <circle id="Oval" cx="22.1061784" cy="66.1162431" r="1"></circle>
                    <circle id="Oval" cx="22.291131" cy="77.3000997" r="1"></circle>
                    <circle id="Oval" cx="26.1924763" cy="85.536273" r="1"></circle>
                    <circle id="Oval" cx="72.9219233" cy="76.9533134" r="1"></circle>
                    <circle id="Oval" cx="89.7410563" cy="75.9996512" r="1"></circle>
                    <circle id="Oval" cx="81.4181863" cy="72.4450922" r="1"></circle>
                    <circle id="Oval" cx="72.9219233" cy="72.7918784" r="1"></circle>
                    <path d="M55.3962133,6.45166916 L57.0131041,6.29706029 L55.3991031,6.2060289 C55.3485301,5.89392128 55.0985551,5.64972596 54.7835575,5.60926756 L54.6289487,3.9996014 L54.5364723,5.62227205 C54.2445939,5.68729447 54.0206278,5.93148979 53.9845042,6.23492775 L52.3314898,6.38520179 L53.9960638,6.47478824 C54.0567514,6.75366218 54.2821624,6.97184853 54.5653712,7.02386647 L54.7156452,8.68266069 L54.8037867,7.02675635 C55.1028899,6.97618336 55.3398605,6.74643747 55.3962133,6.45166916 Z" id="Path"></path>
                    <path d="M28.1070254,24.4527653 L29.7239163,24.2981565 L28.1099153,24.2071251 C28.0607872,23.8950174 27.8093672,23.6508221 27.4943697,23.6103637 L27.3397608,22.0006976 L27.2487294,23.6233682 C26.9554061,23.6883906 26.73144,23.9325859 26.6953164,24.2360239 L25.0423019,24.386298 L26.7068759,24.4758844 C26.7675635,24.7547583 26.9929746,24.9729447 27.2761834,25.0249626 L27.4264574,26.6837569 L27.5160438,25.0278525 C27.815147,24.9787245 28.0521176,24.7475336 28.1070254,24.4527653 Z" id="Path"></path>
                    <path d="M88.5562033,72.046288 L90.1730942,71.8916791 L88.5590932,71.8006477 C88.5099651,71.4885401 88.2585451,71.2443448 87.9435476,71.2038864 L87.7889387,69.5942202 L87.6979073,71.2168909 C87.4060289,71.2819133 87.1820628,71.5261086 87.1459392,71.8295466 L85.4929248,71.9798206 L87.1574988,72.0694071 C87.2181863,72.348281 87.4435974,72.5664674 87.7268062,72.6184853 L87.8770802,74.2772795 L87.9666667,72.6213752 C88.2628799,72.5722471 88.4998505,72.3425012 88.5562033,72.046288 Z" id="Path"></path>
                    <path d="M22.645142,96.9310912 L24.2620329,96.7764823 L22.6480319,96.6854509 C22.5974589,96.3733433 22.3474838,96.129148 22.0324863,96.0886896 L21.8778774,94.4804684 L21.786846,96.1016941 C21.4935227,96.1667165 21.2695566,96.4109118 21.233433,96.7143498 L19.5804185,96.8646238 L21.2449925,96.9542103 C21.3056801,97.2330842 21.5310912,97.4527155 21.8143,97.5032885 L21.964574,99.1620827 L22.0541604,97.5061784 C22.3518186,97.4570503 22.5902342,97.2258595 22.645142,96.9310912 Z" id="Path"></path>
                    <path d="M83.419432,84.7935725 L85.0363229,84.6389636 L83.4223219,84.5479322 C83.3731938,84.2358246 83.1217738,83.9916293 82.8067763,83.9511709 L82.6521674,82.3415047 L82.561136,83.9627304 C82.2692576,84.0277529 82.0452915,84.2719482 82.0091679,84.5753861 L80.3561535,84.7256602 L82.0207275,84.8152466 C82.081415,85.0941206 82.3068261,85.3123069 82.5900349,85.3643249 L82.7403089,87.0231191 L82.8298954,85.3672147 C83.1261086,85.3195316 83.3645242,85.0883408 83.419432,84.7935725 Z" id="Path"></path>
                </g>
                <path d="M79.6452417,44.1068759 C72.9016941,46.728002 66.3243149,49.0673642 60.77429,50.8041854 C49.4965122,54.3356253 18.6397608,63.8953662 0,75.9461883 L1.56053812,76.5530643 C12.9177877,70.1375187 20.3,68.1218236 27.3961136,65.8893871 C35.1121076,63.4618834 60.0561535,57.6243149 71.3512706,54.445441 C75.1673642,53.3718485 79.636572,51.9659193 84.3702043,50.2551071 C83.2691579,48.719133 82.107424,47.1788241 80.8850025,45.6414051 C80.4760837,45.1226707 80.0613852,44.6111609 79.6452417,44.1068759 Z M87.8843049,55.4626806 C86.2515197,56.5651719 84.8831589,57.445142 83.9251619,58 C78.376582,61.2077728 51.3258097,79.6741405 45.1717987,83.922272 C39.0177877,88.1704036 21.9371201,104.295964 16.9087195,108.977578 L16.7353264,110.883458 C32.9475835,96.3184355 38.0337818,92.7263079 44.4782262,87.8236173 C52.4543099,81.754858 68.9541106,70.5276532 74.5619332,66.9297459 C79.9226707,63.4907823 84.7574489,60.3278027 89.0966119,57.4335825 C89.0258097,57.3150972 88.9550075,57.1966119 88.8842053,57.0766816 C88.5576482,56.5406079 88.2238665,56.0030892 87.8843049,55.4626806 Z M113.227155,28.696562 C105.329098,33.3261584 92.8809168,38.9137519 80.8040857,43.6546089 C81.0930742,44.0086198 81.3806178,44.3655207 81.6667165,44.7253114 C83.016293,46.424564 84.2892875,48.1353762 85.487145,49.8476333 C94.9804185,46.3508719 105.39701,41.6576981 113.662083,35.9776283 C109.724614,39.7084704 96.7071251,49.4372696 88.7700548,54.8601395 C89.1789736,55.5262581 89.5748879,56.1923767 89.9577977,56.8556054 C101.982611,48.8087195 110.07429,42.8858994 114.789138,38.9253114 C121.29138,33.463428 136.116492,21.2392128 141.751769,4.85356253 C131.866916,17.426009 120.180219,24.6203787 113.227155,28.696562 Z" id="Shape" fill="#FC3D21"></path>
                <path d="M58.427703,72.3612855 C57.1489287,70.7516193 55.3803189,68.5957648 54.0524165,66.9239661 C52.276582,64.6886398 50.6336821,62.4301943 49.1280518,60.1746388 C48.6367713,60.2974589 48.1469357,60.420279 47.6571001,60.5430992 C49.4748381,63.3795217 51.493423,66.2116094 53.6926258,68.9801196 C55.2994021,71.0030394 56.7602392,72.6314898 57.5087195,73.6443946 C57.6604385,73.8495765 57.9609865,74.3032885 58.3670154,74.9072745 C58.8351769,74.5893871 59.3076731,74.2686099 59.7845042,73.9449427 C59.3235675,73.4435476 58.8684106,72.9161435 58.427703,72.3612855 Z M67.7620329,80.8344295 C66.7115595,79.8403089 64.1641256,78.1800698 61.5126557,75.6889885 C60.9274539,76.0906826 60.3364723,76.4981565 59.7440458,76.9085202 C61.4563029,79.3215745 63.7884405,82.285152 65.614848,83.1492277 C68.3660189,84.452566 69.1072745,82.108869 67.7620329,80.8344295 Z M81.6667165,44.7253114 C66.5063777,25.6433981 47.9865471,15.1603388 40.0017937,21.5050822 C33.8000997,26.4323368 36.3460887,40.8326358 44.8943697,55.9597409 C45.3365222,55.8080219 45.7743398,55.6591928 46.2078226,55.5118087 C37.5800698,40.7733931 35.2190334,27.0767813 41.0681614,22.4284006 C48.418585,16.5879422 66.1668161,27.1114599 80.8878924,45.6399601 C83.9352765,49.4748381 86.6142003,53.3241654 88.8827603,57.0766816 C97.5697559,71.4538615 100.235675,84.4554559 94.2333832,89.7627304 C92.396861,91.386846 86.7847035,92.0240658 79.4328351,88.715147 C79.3302441,88.8437469 79.4949676,89.1919781 79.6235675,89.2772297 C85.9697559,91.8289985 92.0486298,92.8014449 95.1176881,90.3638266 C102.492676,84.503139 96.8270553,63.8072247 81.6667165,44.7253114 Z" id="Shape" fill="#FFFFFF"></path>
                <g id="Group" transform="translate(16.647185, 46.684654)" fill="#FFFFFF">
                    <path d="M-2.56673385e-15,0.30488291 L9.71001495,0.30488291 L17.8594918,14.1329846 C17.8594918,14.1329846 17.8594918,4.11953164 17.8594918,3.33926258 C17.8594918,2.12551071 16.3206278,0.543298455 15.7787743,0.30488291 C16.4289985,0.30488291 22.1076233,0.30488291 22.4977578,0.30488291 C22.0859492,0.413253612 20.7638266,2.01714001 20.7638266,3.33926258 C20.7638266,3.9894868 20.7638266,18.5111609 20.7638266,19.2047334 C20.7638266,20.1800698 22.1726457,21.5238665 22.8445441,22.0440458 L13.4813154,22.0440458 L5.20179372,8.15092177 C5.20179372,8.15092177 5.20179372,18.5111609 5.20179372,19.0746886 C5.20179372,20.1583956 6.26382661,21.1987544 7.36920777,22.0873941 L0.216741405,22.0873941 C1.23542601,21.6539113 2.21076233,20.2884405 2.29745889,19.2047334 C2.38415546,18.1210264 2.29745889,4.14120578 2.29745889,3.53432985 C2.29745889,2.21220727 1.0186846,1.12850025 -2.56673385e-15,0.30488291 Z" id="Path"></path>
                    <path d="M88.8206278,22.0440458 L101.738416,22.0440458 C101.023169,21.8706527 100.221226,21.0253612 99.7877429,19.8983059 C99.3542601,18.7712506 92.5052317,0.30488291 92.5052317,0.30488291 L87.5938714,0.30488291 C86.2009467,1.30767314 84.7083209,2.3653712 83.1145491,3.47942202 C83.1102143,3.51988042 83.1058794,3.56033881 83.0986547,3.59935227 C82.8848032,4.8998007 79.0412556,18.8203787 78.8071749,19.5081714 C78.4820628,20.4618336 76.813154,21.5238665 76.1412556,22.0873941 L83.0986547,22.0873941 C82.4050822,21.3071251 81.8415546,20.5485301 81.9715994,19.6815645 C82.1016442,18.8145989 82.4917788,17.0806677 82.4917788,17.0806677 L89.6875934,17.0806677 C90.0127055,17.9476333 90.2554559,18.7264574 90.3811659,19.4648231 C90.5328849,20.3534629 89.622571,21.3504733 88.8206278,22.0440458 Z M83.142003,14.3063777 L85.5695067,6.37364225 L88.7772795,14.3063777 L83.142003,14.3063777 Z M82.0481814,1.09671151 C82.4050822,0.833731938 82.763428,0.569307424 83.1203288,0.30488291 L81.2346786,0.30488291 C81.4225212,0.478276034 81.7331839,0.751370204 82.0481814,1.09671151 Z" id="Shape"></path>
                    <path d="M32.6412556,19.6815645 C32.7713004,18.8145989 33.161435,17.0806677 33.161435,17.0806677 L40.3572496,17.0806677 C40.6823617,17.9476333 40.9251121,18.7264574 41.0508221,19.4648231 C41.2025411,20.3534629 40.2922272,21.3504733 39.490284,22.0440458 L50.863428,22.0440458 C51.1003986,21.8851021 51.3359243,21.7261584 51.5714499,21.5686597 C51.1307424,21.1785252 50.7247135,20.5933234 50.4573991,19.8983059 C50.0239163,18.7712506 43.1748879,0.30488291 43.1748879,0.30488291 L31.9043348,0.30488291 C32.4461883,0.803388142 34.0067265,2.14718485 33.7683109,3.59935227 C33.5559043,4.8998007 29.7109118,18.8203787 29.4768311,19.5081714 C29.151719,20.4618336 27.4828102,21.5238665 26.8109118,22.0873941 L33.7683109,22.0873941 C33.0747384,21.3071251 32.5112108,20.5485301 32.6412556,19.6815645 Z M36.2391629,6.37364225 L39.4469357,14.3063777 L33.8116592,14.3063777 L36.2391629,6.37364225 Z" id="Shape"></path>
                    <path d="M71.9278027,11.095715 C69.8066268,12.508869 67.5684106,13.9841555 65.2102641,15.5244644 C66.2679621,16.037419 67.1103637,16.6818635 67.1912805,17.5141505 C67.3415546,19.0775785 64.2002491,19.8332835 61.3609367,19.5081714 C60.7930742,19.443149 60.2353264,19.2943199 59.7035874,19.0949178 C59.1140508,19.4749377 58.5187344,19.8578475 57.9147484,20.2450922 C57.3006477,20.6395615 56.5550573,21.1250623 55.703986,21.6857 L55.703986,23.9296961 C56.2675137,22.8243149 57.5000498,21.8345291 58.4566019,21.7839562 C58.8684106,21.762282 60.2989038,23.0844046 66.1942701,22.7592925 C69.0552566,22.6017937 74.5821624,19.5515197 74.4954659,16.0403089 C74.4434479,13.9653712 73.3597409,12.3470354 71.9278027,11.095715 Z M55.7025411,16.51714 L55.7025411,18.8030394 C56.2241654,18.4548082 56.738565,18.1123568 57.24285,17.778575 C56.4495765,17.2266069 55.8874938,16.7107623 55.7025411,16.51714 Z M69.9121076,9.6608869 C69.3630294,9.33577479 68.8067265,9.05112108 68.2735426,8.79970105 C65.4992526,7.49925262 62.5949178,7.26083707 61.9880419,5.50523169 C61.5603388,4.26691579 62.7683109,3.12107623 65.715994,3.16442451 C68.6636771,3.2077728 71.3946188,4.96337818 72.1315396,5.59192825 L72.1315396,0 C71.9147982,0.216741405 70.9640259,1.30767314 70.0941704,1.12705531 C68.4252616,0.780269058 65.5859492,0.328001993 62.3348281,0.346786248 C58.6068759,0.368460389 55.3991031,3.24967613 55.2907324,6.89237668 C55.1390135,11.9857997 59.2137519,13.3729447 61.5112108,14.1748879 C61.7481814,14.2572496 62.0183857,14.3453911 62.311709,14.4393124 C64.5152466,13.0059292 66.2578475,11.901993 67.2779771,11.3139013 C67.9628799,10.919432 68.8601893,10.3530144 69.9121076,9.6608869 Z" id="Shape"></path>
                </g>
            </g>
        </g>
    </g>
</svg>