<?xml version="1.0" encoding="UTF-8"?>
<svg width="173px" height="116px" viewBox="0 0 173 116" version="1.1" xmlns="http://www.w3.org/2000/svg" xmlns:xlink="http://www.w3.org/1999/xlink">
    <title>osu-d</title>
    <g id="icons" stroke="none" stroke-width="1" fill="none" fill-rule="evenodd">
        <g id="Client-logos---dark-mode" transform="translate(-1457.000000, -136.000000)" fill-rule="nonzero">
            <g id="osu-d" transform="translate(1457.269099, 136.000000)">
                <path d="M76.784927,14.6165699 L80.2597313,11.1410952 L91.5194914,11.1410952 L94.9936252,14.6165699 L94.9936252,37.7716515 L91.5194914,41.2457853 L80.2597313,41.2457853 L76.784927,37.7716515 L76.784927,14.6165699 L76.784927,14.6165699 Z M103.766115,10.836723 L95.1773212,2.27139431 L76.5824592,2.27139431 L67.9494177,10.9097992 L67.9494177,41.4871377 L76.5817888,50.1248721 L95.1773212,50.1248721 L103.766115,41.5823378 L103.766115,10.836723 Z" id="Shape" fill="#BB0000"></path>
                <path d="M66.8217656,41.9845918 L66.8217656,10.228649 L76.1701488,0.890322208 L95.7116486,0.888310938 L105.097575,10.228649 L104.932651,42.0516342 L95.6446063,51.3390088 L76.1701488,51.3383384 L66.8217656,41.9845918 L66.8217656,41.9845918 Z M75.7752695,0 L65.9394885,9.83242884 L65.9394885,42.3881867 L75.7068863,52.2789423 L96.0508828,52.2789423 L105.816269,42.4458431 L105.883312,9.83242884 L96.1179252,0 L75.7752695,0 L75.7752695,0 Z" id="Shape" fill="#FFFFFF"></path>
                <path d="M81.2774339,13.3675712 L90.5125155,13.3675712 L92.7148562,15.5699119 L92.7148562,36.8632279 L90.5949776,38.9844473 L81.193631,38.9844473 L79.1052622,36.8954082 L79.1052622,15.5404132 L81.2774339,13.3675712 Z M93.6051784,15.2373819 L90.8463864,12.4785898 L80.8926109,12.4785898 L78.1720329,15.1998382 L78.1720329,37.2125184 L80.8336136,39.8734287 L90.9670626,39.8734287 L93.6071897,37.233972 L93.6071897,15.2373819 L93.6051784,15.2373819 L93.6051784,15.2373819 Z M12.3900939,69.4169744 L12.0971189,67.3916255 L8.39168906,67.3916255 L8.39168906,80.4870048 L10.3654154,80.7799798 L10.3654154,82.0229447 L3.34273082,82.0229447 L3.34273082,80.7799798 L5.31712758,80.4870048 L5.31712758,67.3922959 L1.61102731,67.3922959 L1.3180523,69.4176448 L0,69.4176448 L0,65.6860685 L13.706135,65.6860685 L13.706135,69.4176448 L12.3900939,69.4169744 L12.3900939,69.4169744 Z M22.5597457,82.0242855 L22.5597457,80.8537263 L24.3886606,80.5600809 L24.3886606,76.0977431 L19.5120012,76.0977431 L19.5120012,80.5600809 L21.3409161,80.8537263 L21.3409161,82.0242855 L14.6836122,82.0242855 L14.6836122,80.8537263 L16.5856032,80.5600809 L16.5856032,70.684745 L14.6836122,70.3910996 L14.6836122,69.2205404 L21.3409161,69.2205404 L21.3409161,70.3910996 L19.5120012,70.684745 L19.5120012,74.5369975 L24.3886606,74.5369975 L24.3886606,70.684745 L22.5597457,70.3910996 L22.5597457,69.2205404 L29.2170496,69.2205404 L29.2170496,70.3910996 L27.3157289,70.684745 L27.3157289,80.5600809 L29.2170496,80.8537263 L29.2170496,82.0242855 L22.5597457,82.0242855 Z M41.6775379,82.0242855 L30.630302,82.0242855 L30.630302,80.8537263 L32.532293,80.5600809 L32.532293,70.684745 L30.630302,70.3910996 L30.630302,69.2205404 L41.6775379,69.2205404 L41.6775379,72.6108713 L40.434573,72.6108713 L40.1409276,70.7826268 L35.4600318,70.7826268 L35.4600318,74.5866089 L38.3850889,74.5866089 L38.6787343,72.9521167 L39.7755469,72.9521167 L39.7755469,77.6839647 L38.6787343,77.6839647 L38.3850889,76.0494726 L35.4600318,76.0494726 L35.4600318,80.46354 L40.1409276,80.46354 L40.434573,78.6339546 L41.6775379,78.6339546 L41.6775379,82.0242855 Z M57.2105765,82.3172605 C52.1388239,82.3172605 49.9197226,79.2916399 49.9197226,73.8062361 C49.9197226,68.3436266 52.1629591,65.3917526 57.2360526,65.3917526 C62.3078052,65.3917526 64.5275769,68.4167028 64.5275769,73.9021066 C64.5275769,79.3660569 62.2843404,82.3172605 57.2105765,82.3172605 L57.2105765,82.3172605 Z M57.2360526,67.1730675 C54.5288831,67.1730675 53.1397659,69.3438983 53.1397659,73.8303713 C53.1397659,78.3423205 54.4806126,80.5379569 57.1871117,80.5379569 C59.8949516,80.5379569 61.2840688,78.3671261 61.2840688,73.8799827 C61.2833984,69.3673631 59.9425517,67.1730675 57.2360526,67.1730675 L57.2360526,67.1730675 Z M73.7204219,82.0242855 L73.7204219,80.8537263 L75.5493368,80.5600809 L75.5493368,76.0977431 L70.6733478,76.0977431 L70.6733478,80.5600809 L72.5029331,80.8537263 L72.5029331,82.0242855 L65.8442884,82.0242855 L65.8442884,80.8537263 L67.7462794,80.5600809 L67.7462794,70.684745 L65.8442884,70.3910996 L65.8442884,69.2205404 L72.5029331,69.2205404 L72.5029331,70.3910996 L70.6733478,70.684745 L70.6733478,74.5369975 L75.5493368,74.5369975 L75.5493368,70.684745 L73.7204219,70.3910996 L73.7204219,69.2205404 L80.3783962,69.2205404 L80.3783962,70.3910996 L78.4764051,70.684745 L78.4764051,80.5600809 L80.3783962,80.8537263 L80.3783962,82.0242855 L73.7204219,82.0242855 Z M81.9626066,82.0242855 L81.9626066,80.8537263 L83.8645976,80.5600809 L83.8645976,70.684745 L81.9626066,70.3910996 L81.9626066,69.2205404 L88.693657,69.2205404 L88.693657,70.3910996 L86.7909955,70.684745 L86.7909955,80.5600809 L88.693657,80.8537263 L88.693657,82.0242855 L81.9626066,82.0242855 Z M95.9121052,82.2676492 C91.5952492,82.2676492 89.7173934,79.8521139 89.7173934,75.6103453 C89.7173934,71.3679064 91.6187141,69.0019824 95.93557,69.0019824 C100.251756,69.0019824 102.128941,71.4168473 102.128941,75.6592862 C102.129611,79.903066 100.228291,82.2676492 95.9121052,82.2676492 L95.9121052,82.2676492 Z M95.93557,70.684745 C93.8860858,70.684745 92.7906141,72.1724144 92.7906141,75.6110157 C92.7906141,79.0730819 93.8378153,80.585557 95.8872995,80.585557 C97.9354429,80.585557 99.0577315,79.0978876 99.0577315,75.6592862 C99.0577315,72.1972201 97.9837133,70.684745 95.93557,70.684745 L95.93557,70.684745 Z M115.468354,82.3172605 C112.639838,82.3172605 110.371796,81.3417945 110.371796,81.3417945 L110.371796,77.8549227 L111.760913,77.8549227 L112.078023,80.0981592 C112.078023,80.0981592 113.126566,80.46354 114.980957,80.46354 C116.882277,80.46354 118.589845,79.8299899 118.589845,77.7570409 C118.589845,75.8791851 117.272464,75.6110157 115.663447,75.0740066 C113.103771,74.2205577 110.395931,73.4897963 110.395931,69.9774483 C110.395931,67.1241266 112.176576,65.3917526 115.908822,65.3917526 C117.616391,65.3917526 119.394353,65.7832799 120.784811,66.3189481 L120.784811,69.587262 L119.394353,69.587262 L119.078584,67.4895073 C119.078584,67.4895073 117.614379,67.1723971 116.199116,67.1723971 C114.785193,67.1723971 113.322329,67.6611357 113.322329,69.5376506 C113.322329,73.6098021 121.516914,70.9267678 121.516914,77.4385898 C121.516914,80.5131513 119.517041,82.3172605 115.468354,82.3172605 L115.468354,82.3172605 Z M133.075012,72.757694 L132.782708,70.7832972 L129.952851,70.7832972 L129.952851,80.5607513 L131.855512,80.8543968 L131.855512,82.0249559 L125.125132,82.0249559 L125.125132,80.8543968 L127.027794,80.5607513 L127.027794,70.7832972 L124.197937,70.7832972 L123.905632,72.757694 L122.660656,72.757694 L122.660656,69.2212108 L134.318648,69.2212108 L134.318648,72.757694 L133.075012,72.757694 L133.075012,72.757694 Z M142.146511,82.0242855 L142.146511,80.8537263 L143.974755,80.5600809 L143.073706,78.2451091 L138.196376,78.2451091 L137.292646,80.5600809 L139.122901,80.8537263 L139.122901,82.0242855 L133.538275,82.0242855 L133.538275,80.8537263 L135.36786,80.5600809 L139.757122,69.2205404 L142.562173,69.2205404 L146.951435,80.5600809 L148.78102,80.8537263 L148.78102,82.0242855 L142.146511,82.0242855 L142.146511,82.0242855 Z M140.632695,71.6850166 L138.779645,76.7574397 L142.486415,76.7574397 L140.632695,71.6850166 Z M158.40964,72.757694 L158.115995,70.7832972 L155.287479,70.7832972 L155.287479,80.5607513 L157.19014,80.8543968 L157.19014,82.0249559 L150.458419,82.0249559 L150.458419,80.8543968 L152.361081,80.5607513 L152.361081,70.7832972 L149.531224,70.7832972 L149.238919,72.757694 L147.995284,72.757694 L147.995284,69.2212108 L159.653276,69.2212108 L159.653276,72.757694 L158.40964,72.757694 L158.40964,72.757694 Z M171.82213,82.0242855 L160.774223,82.0242855 L160.774223,80.8537263 L162.676885,80.5600809 L162.676885,70.684745 L160.774223,70.3910996 L160.774223,69.2205404 L171.82213,69.2205404 L171.82213,72.6108713 L170.579165,72.6108713 L170.284849,70.7826268 L165.605294,70.7826268 L165.605294,74.5866089 L168.52901,74.5866089 L168.823326,72.9521167 L169.920809,72.9521167 L169.920809,77.6839647 L168.823326,77.6839647 L168.52901,76.0494726 L165.605294,76.0494726 L165.605294,80.46354 L170.284849,80.46354 L170.579165,78.6339546 L171.82213,78.6339546 L171.82213,82.0242855 Z M34.8117324,91.3719983 L34.8117324,99.7120647 C34.8117324,102.516446 34.6407745,103.735946 33.324063,105.052657 C32.3727323,106.004658 30.8119867,106.46591 28.495674,106.46591 C26.2028262,106.46591 24.4959283,105.83303 23.423251,104.759682 C22.0341338,103.369224 22.1802861,101.296275 22.1802861,99.4928363 L22.1802861,91.3719983 L20.2052189,91.0790233 L20.2052189,89.8360584 L27.2285739,89.8360584 L27.2285739,91.0790233 L25.2528363,91.3719983 L25.2528363,100.932235 C25.2528363,103.615269 26.7411761,104.687947 29.0333536,104.687947 C30.2535241,104.687947 31.2537957,104.444583 31.911481,103.737287 C32.4967606,103.127201 32.8138708,102.176541 32.8138708,100.932235 L32.8138708,91.3719983 L30.8388036,91.0790233 L30.8388036,89.8360584 L36.7888109,89.8360584 L36.7888109,91.0790233 L34.8117324,91.3719983 L34.8117324,91.3719983 Z M50.1986187,94.8354053 L50.1986187,106.174946 L47.9064413,106.174946 L41.3946193,97.0290305 L41.3946193,104.710071 L43.2972807,105.003716 L43.2972807,106.174275 L37.566502,106.174275 L37.566502,105.003716 L39.468493,104.710071 L39.468493,94.8354053 L37.566502,94.5417599 L37.566502,93.3712007 L42.0295102,93.3712007 L48.2724924,102.102124 L48.2724924,94.8340644 L46.3711718,94.540419 L46.3711718,93.3698598 L52.1012802,93.3698598 L52.1012802,94.540419 L50.1986187,94.8354053 L50.1986187,94.8354053 Z M53.6124144,106.174946 L53.6124144,105.004387 L55.5157463,104.710741 L55.5157463,94.8360757 L53.6124144,94.5424303 L53.6124144,93.3718711 L60.3427944,93.3718711 L60.3427944,94.5424303 L58.4408034,94.8360757 L58.4408034,104.710741 L60.3427944,105.004387 L60.3427944,106.174946 L53.6124144,106.174946 L53.6124144,106.174946 Z M74.6335385,94.8354053 L70.3656235,106.174946 L67.5364369,106.174946 L63.2678515,94.8354053 L61.4402774,94.5417599 L61.4402774,93.3712007 L68.0721052,93.3712007 L68.0721052,94.5417599 L66.2431903,94.8354053 L69.4873689,103.615269 L72.705401,94.8354053 L70.8771565,94.5417599 L70.8771565,93.3712007 L76.4611126,93.3712007 L76.4611126,94.5417599 L74.6335385,94.8354053 L74.6335385,94.8354053 Z M88.509961,106.174946 L77.4620546,106.174946 L77.4620546,105.004387 L79.3633752,104.710741 L79.3633752,94.8360757 L77.4620546,94.5424303 L77.4620546,93.3718711 L88.509961,93.3718711 L88.509961,96.7628724 L87.2649848,96.7628724 L86.9726802,94.9332871 L82.2897732,94.9332871 L82.2897732,98.7392805 L85.2161711,98.7392805 L85.5098165,97.1047883 L86.6072995,97.1047883 L86.6072995,101.835966 L85.5098165,101.835966 L85.2161711,100.201474 L82.2897732,100.201474 L82.2897732,104.615541 L86.9726802,104.615541 L87.2649848,102.785956 L88.509961,102.785956 L88.509961,106.174946 L88.509961,106.174946 Z M99.726814,106.174946 L98.5314492,103.248548 C97.7262708,101.297616 97.238873,100.395226 95.5326456,100.395226 L95.3127467,100.395226 L95.3127467,104.711412 L97.142332,105.005057 L97.142332,106.175616 L90.4836873,106.175616 L90.4836873,105.005057 L92.3850079,104.711412 L92.3850079,94.8360757 L90.4836873,94.5424303 L90.4836873,93.3718711 L96.9472388,93.3718711 C98.2632799,93.3718711 99.7992198,93.4449473 100.799491,94.3721428 C101.456506,94.982228 101.823228,95.8108713 101.823228,96.7615316 C101.823228,98.249201 100.847762,99.5900477 99.5069152,100.00504 C100.579593,100.808877 101.506118,103.443641 102.043127,104.711412 L103.872712,105.005057 L103.872712,106.175616 L99.726814,106.175616 L99.726814,106.174946 L99.726814,106.174946 Z M98.3611617,95.3228031 C97.8724231,94.8105996 96.8238809,94.8595405 96.1668661,94.8595405 L95.3134171,94.8595405 L95.3134171,98.9564976 L95.8269614,98.9564976 C96.6542638,98.9564976 97.8013582,99.0543794 98.410773,98.371218 C98.8009594,97.9327612 98.8995116,97.4205577 98.8995116,96.8600838 C98.8961595,96.298269 98.7761537,95.7626008 98.3611617,95.3228031 L98.3611617,95.3228031 Z M109.65042,106.41898 C107.261032,106.41898 105.261159,105.615142 105.261159,105.615142 L105.261159,102.299228 L106.578541,102.299228 L106.89431,104.395642 C106.89431,104.395642 107.821506,104.664482 109.261575,104.664482 C110.82232,104.664482 112.015004,104.150938 112.015004,102.76048 C112.015004,101.786355 111.479335,101.444439 110.674157,101.176269 C108.309574,100.371761 105.284624,100.030516 105.284624,96.8352781 C105.284624,94.5424303 106.870175,93.1519723 110.015801,93.1519723 C111.45453,93.1519723 112.942199,93.4456177 114.236116,93.9088802 L114.236116,97.0793122 L112.918734,97.0793122 L112.601624,95.0807802 C112.601624,95.0807802 111.527606,94.8374166 110.333582,94.8374166 C109.138217,94.8374166 108.089004,95.2510678 108.089004,96.4953735 C108.089004,99.3500361 114.844191,97.4473747 114.844191,102.518457 C114.845531,105.004387 113.040751,106.41898 109.65042,106.41898 L109.65042,106.41898 Z M116.552429,106.174946 L116.552429,105.004387 L118.453749,104.710741 L118.453749,94.8360757 L116.552429,94.5424303 L116.552429,93.3718711 L123.282809,93.3718711 L123.282809,94.5424303 L121.380147,94.8360757 L121.380147,104.710741 L123.282809,105.004387 L123.282809,106.174946 L116.552429,106.174946 Z M135.086282,96.9083543 L134.792637,94.9326167 L131.964121,94.9326167 L131.964121,104.711412 L133.866782,105.005057 L133.866782,106.175616 L127.135732,106.175616 L127.135732,105.005057 L129.038393,104.711412 L129.038393,94.9326167 L126.207195,94.9326167 L125.916232,96.9083543 L124.672596,96.9083543 L124.672596,93.3718711 L136.330588,93.3718711 L136.330588,96.9083543 L135.086282,96.9083543 Z M149.790678,94.8354053 L146.059101,100.615125 L146.059101,104.710071 L147.961763,105.003716 L147.961763,106.174275 L141.231383,106.174275 L141.231383,105.003716 L143.134044,104.710071 L143.134044,100.615125 L139.352186,94.8354053 L137.522601,94.5417599 L137.522601,93.3712007 L144.302592,93.3712007 L144.302592,94.5417599 L142.473007,94.8354053 L145.10643,98.9813033 L147.716388,94.8354053 L145.960549,94.5417599 L145.960549,93.3712007 L151.618252,93.3712007 L151.618252,94.5417599 L149.790678,94.8354053 L149.790678,94.8354053 Z M19.2304233,115.08085 L19.2304233,116 L152.593047,116 L152.593047,115.08085 L19.2304233,115.08085 Z" id="Shape" fill="#FFFFFF"></path>
            </g>
        </g>
    </g>
</svg>