<?xml version="1.0" encoding="UTF-8"?>
<svg width="257px" height="54px" viewBox="0 0 257 54" version="1.1" xmlns="http://www.w3.org/2000/svg" xmlns:xlink="http://www.w3.org/1999/xlink">
    <title>pixar</title>
    <g id="icons" stroke="none" stroke-width="1" fill="none" fill-rule="evenodd">
        <g id="Client-logos" transform="translate(-304.000000, -168.000000)" fill="#000000">
            <g id="pixar" transform="translate(304.695045, 168.000000)">
                <path d="M18.6331859,46.2914836 C21.4802087,46.6644231 24.356926,46.9088522 27.1867458,47.1977231 L28.0065584,50.6547402 C23.2753801,50.358396 18.4232665,50.289277 13.6674085,50.289277 C9.13877556,50.289277 4.52125984,50.341091 0,50.6547402 L0.651877287,47.2051965 C3.03226374,46.90148 5.41756571,46.698932 7.81280016,46.3162649 C8.03009268,42.1431641 8.0671615,29.1572271 8.0671615,23.2507019 L8.0671615,20.541919 C8.0671615,18.5294549 8.03009268,7.82263061 7.81280016,4.40769835 C5.43487132,3.91136631 2.9606863,3.80763528 0.558079014,3.59034304 L0.0691198249,0.227122694 L17.0206958,0.165478016 C24.4606579,0.165478016 30.9326338,0.758065935 34.4784332,2.20507798 C41.0196321,4.93116644 41.7875296,9.5215461 41.7875296,11.5240775 C41.7875296,23.4235528 30.1226528,28.8510512 19.9665344,30.2634512 L20.3912887,26.5521761 C26.5422434,25.0187364 31.0288923,21.5863973 31.0288923,13.9908894 C31.0288923,10.1832538 29.1547677,7.15099011 26.0730454,5.61755263 C24.2507377,4.72124676 21.3493416,4.31134016 18.6232531,4.22491473 C18.4232665,7.32629858 18.371452,15.5589381 18.371452,20.7320755 L18.371452,23.6161668 C18.371452,28.9127979 18.4232665,42.5629006 18.6331859,46.2914836 Z M67.5717071,46.3260965 C69.9150238,46.7433736 72.3102585,46.9606662 74.6437466,47.1977231 L75.4733879,50.6991819 C70.6459531,50.2374631 65.5148018,50.289277 60.7071284,50.289277 C56.7439479,50.289277 52.7461544,50.410314 48.8249591,50.6547402 L49.4867694,47.1532814 C51.8473912,47.0323456 54.2598298,46.698932 56.5957743,46.2989599 C56.8402035,42.4394072 56.9094265,31.1597579 56.9094265,24.9742947 L56.9094265,20.949368 C56.9094265,18.8776145 56.8402035,7.99793909 56.6303873,4.46934302 C54.2598298,4.11135323 51.9165131,3.84214418 49.56572,3.59034304 L48.7459045,0.0691198249 C53.5808156,0.59258763 58.8329027,0.506162201 63.6332038,0.506162201 C67.5445704,0.506162201 71.6040065,0.513637348 75.5080009,0.0617469819 L74.6437466,3.59034304 C72.2831219,3.84214418 69.9150238,4.23484749 67.5618754,4.53856544 C67.3890246,6.92632474 67.3099729,13.8255137 67.3099729,21.3073578 L67.3099729,25.5150681 C67.3099729,33.6241116 67.3890246,43.5555641 67.5717071,46.3260965 Z M116.779845,38.9824912 C113.140145,34.6785247 110.02883,30.7326492 108.25342,28.623826 C105.831049,31.90062 99.8727095,41.256689 97.1886069,46.4471305 C98.862741,46.7606815 100.534419,47.0323456 102.233334,47.2051965 L102.712361,50.5584846 L101.571524,50.5584846 C100.482605,50.5584846 94.6551313,50.289277 90.7437647,50.289277 C87.7634189,50.289277 84.8545446,50.4448229 81.8667225,50.6818769 L83.0248646,47.2051965 C84.5409964,46.9879039 86.1953691,46.8298005 87.6152454,46.2914836 C90.5264722,44.3309379 102.240706,28.8066096 105.324888,24.8532592 C102.956787,21.8209955 99.7689805,17.6405221 96.7540218,13.753834 C93.6624678,9.8005859 90.7857499,6.18556441 89.2449379,4.51132708 C87.6843643,4.03230065 86.0471955,3.82494088 84.4619447,3.51866301 L83.965613,0 C87.7214337,0.627198839 91.874669,0.506162201 95.5958797,0.506162201 C99.8727095,0.506162201 104.176679,0.348159332 108.453408,0.165478016 L107.450912,3.59034304 C105.779235,3.77302436 104.104997,3.98048643 102.443254,4.30396731 C104.324748,7.32629858 109.305374,14.6773779 111.483212,17.5960804 C113.801851,14.4527128 118.44415,7.78812171 120.466443,4.27683154 L119.263859,4.03230065 C118.251535,3.84961933 117.251499,3.69407408 116.276037,3.54590138 L115.604398,0.113561202 C119.167603,0.409906314 122.765321,0.506162201 126.370511,0.506162201 C129.106431,0.506162201 131.842347,0.348159332 134.578371,0.113561202 L134.25489,3.46684879 C132.642398,3.88412795 131.032467,4.18047306 129.392842,4.58300682 L128.837324,5.1385262 C126.449462,7.37073996 124.288926,9.87953618 122.13812,12.3093818 C118.984924,15.8799617 115.752568,19.6430533 114.280878,21.3864104 C121.841877,31.7351414 129.247229,42.2567247 137.008115,52.4227776 L131.494189,53.5116967 C126.091472,49.4274792 121.162762,44.0692037 116.779845,38.9824912 L116.779845,38.9824912 Z M179.185377,46.3952155 C177.113623,40.3578246 175.274011,34.0439522 172.713401,28.1794093 C169.700899,28.2411589 161.354801,28.623826 158.322538,28.9646119 C157.53969,31.4387972 154.759329,41.3331831 153.914839,46.3952155 C155.754452,46.8224282 157.660727,46.9879039 159.53495,47.1977231 L160.196659,50.6547402 C156.144595,50.410314 152.043174,50.289277 148.008314,50.289277 C144.968675,50.289277 141.919107,50.410314 138.906607,50.6818769 L139.393006,47.1977231 C141.449911,46.9879039 143.462375,46.7088647 145.482211,46.2914836 C148.156485,41.0196321 159.40398,10.7660113 161.823895,4.27683154 C160.144845,3.94587522 158.470607,3.77302436 156.789098,3.57057982 L156.650756,0.140697264 C160.13491,0.375295394 163.688185,0.506162201 167.199577,0.506162201 C171.686226,0.506162201 176.232165,0.45434798 180.676832,0.140697264 L180.178041,3.57057982 C178.575482,3.75571876 176.955621,3.94587522 175.380199,4.30396731 C176.590155,8.19802831 179.864493,17.6059109 182.234946,24.0778877 C184.089407,29.2165173 188.131538,40.209651 191.233025,46.2914836 C193.314608,46.698932 195.378888,46.9606662 197.470403,47.2323331 L197.976567,50.7757772 C193.872689,50.0892895 188.889604,50.289277 184.812863,50.289277 C180.57064,50.289277 176.21486,50.341091 171.97264,50.6818769 L172.792453,47.180418 C174.943157,46.9879039 177.05935,46.8051203 179.185377,46.3952155 L179.185377,46.3952155 Z M210.155491,4.46934302 C207.775105,4.12118369 205.303275,3.94587522 202.905685,3.7458883 L202.426658,0.348159332 L218.943546,0.279039507 C225.353879,0.279039507 234.344482,0.348159332 239.213902,2.28157065 C243.107963,3.82494088 245.703081,6.70657489 245.703081,10.9857614 C245.703081,15.6009222 240.860899,21.1691179 235.798867,24.2778746 C240.616369,32.4216319 249.824368,45.1852594 256,51.7263543 L250.120611,52.5190332 C245.216683,50.2621404 230.146704,33.1796979 225.815601,27.9448117 C223.934003,28.085509 222.000591,28.2411589 220.711583,28.2856005 L220.711583,29.0856488 C220.711583,33.1895266 220.825144,42.5530718 221.007927,46.3779104 C223.326567,46.7606815 225.711869,46.9879039 228.065118,47.1977231 L228.726827,50.6818769 C224.450099,50.3337187 220.032569,50.289277 215.755736,50.289277 C211.330837,50.289277 206.740456,50.289277 202.332758,50.6818769 L202.984635,47.180418 C205.372498,46.9879039 207.81207,46.7779866 210.135726,46.3260965 C210.345545,42.9357389 210.424597,31.194368 210.424597,24.6261365 L210.424597,20.4628662 C210.424597,18.1615323 210.345545,7.39552071 210.155491,4.46934302 L210.155491,4.46934302 Z M165.806837,7.6399493 C163.836359,13.0748206 161.075762,20.5764277 159.942297,23.8680706 L171.441696,24.0778877 C170.021923,19.8356673 167.320513,12.2031932 165.806837,7.6399493 Z M227.679891,22.9445263 C230.425743,21.9345567 234.806203,19.0430925 234.806203,12.9019698 C234.806203,9.43512067 231.756635,4.51132708 221.000451,4.22491473 C220.825144,8.17078994 220.711583,18.6776276 220.711583,23.0753934 L220.711583,24.1643131 C222.872217,24.1025661 225.267452,23.8334594 227.679891,22.9445263 Z" id="_47408984"></path>
            </g>
        </g>
    </g>
</svg>