<?xml version="1.0" encoding="UTF-8"?>
<svg width="238px" height="116px" viewBox="0 0 238 116" version="1.1" xmlns="http://www.w3.org/2000/svg" xmlns:xlink="http://www.w3.org/1999/xlink">
    <title>sap</title>
    <defs>
        <linearGradient x1="50%" y1="0%" x2="50%" y2="100.002222%" id="linearGradient-1">
            <stop stop-color="#00AEEF" offset="0%"></stop>
            <stop stop-color="#0097DC" offset="21.2%"></stop>
            <stop stop-color="#007CC5" offset="51.9%"></stop>
            <stop stop-color="#006CB8" offset="79.2%"></stop>
            <stop stop-color="#0066B3" offset="100%"></stop>
        </linearGradient>
    </defs>
    <g id="icons" stroke="none" stroke-width="1" fill="none" fill-rule="evenodd">
        <g id="Client-logos---light-mode" transform="translate(-1707.000000, -134.000000)">
            <g id="sap" transform="translate(1707.000000, 134.000000)">
                <polyline id="Path" fill="url(#linearGradient-1)" points="0 116 118.510756 116 234.490133 0 0 0 0 116"></polyline>
                <path d="M139.158756,23.2 L116,23.2 L116.077333,77.6684444 L95.9113778,23.1819556 L75.9155556,23.1819556 L58.7011556,68.6874667 C56.8709333,57.1080889 44.8997333,53.1125333 35.4805333,50.1197333 C29.2603556,48.1219556 22.6586667,45.1832889 22.7256889,41.9352889 C22.7772444,39.2698667 26.2572444,36.7977778 33.1734222,37.1664 C37.8134222,37.4164444 41.9120889,37.7902222 50.0656,41.7290667 L58.0824889,27.7575111 C50.6481778,23.9733333 40.368,21.5837333 31.9386667,21.576 L31.8871111,21.576 C22.0580444,21.576 13.8736,24.7595556 8.80053333,30.0053333 C5.26382222,33.6657778 3.35626667,38.3212444 3.27893333,43.4690667 C3.15004444,50.5528 5.74586667,55.5743111 11.2004444,59.5879111 C15.8095111,62.9648 21.7048889,65.1559111 26.8991111,66.7644444 C33.3048889,68.7493333 38.5377778,70.4764444 38.4733333,74.1523556 C38.4217778,75.4928 37.9165333,76.7456 36.9524444,77.7560889 C35.3542222,79.4058667 32.9053333,80.0245333 29.5155556,80.0915556 C22.9757333,80.2307556 18.1295111,79.2022222 10.4064889,74.6369778 L3.27377778,88.7889778 C10.9890667,93.1763556 19.1786667,95.3777778 28.4844444,95.3777778 L30.5776,95.3623111 C38.6769778,95.2153778 45.2503111,93.2743111 50.4728889,89.0725333 C50.7719111,88.8328 51.04,88.5904889 51.3184,88.3456 L50.4419556,92.8618667 L69.9815111,92.8 L73.4872889,83.8241778 C77.1735111,85.0821333 81.3649778,85.7781333 85.8142222,85.7781333 C90.1500444,85.7781333 94.2280889,85.1182222 97.8447111,83.9324444 L100.288444,92.8 L135.346222,92.8335111 L135.431289,72.3711111 L142.891378,72.3711111 C160.922933,72.3711111 171.582044,63.1942222 171.582044,47.8048889 C171.576889,30.6652444 161.214222,23.2 139.158756,23.2 Z M85.8142222,69.7598222 C83.1204444,69.7598222 80.5942222,69.2906667 78.4211556,68.4657778 L85.7317333,45.3817778 L85.8735111,45.3817778 L93.0655111,68.5302222 C90.9001778,69.3035556 88.4332444,69.7598222 85.8116444,69.7598222 L85.8142222,69.7598222 Z M140.514667,56.4971556 L135.426133,56.4971556 L135.426133,37.8933333 L140.517244,37.8933333 C147.2968,37.8933333 152.710133,40.1514667 152.710133,47.0753778 C152.704978,54.2416 147.2968,56.4971556 140.517244,56.4971556" id="Shape" fill="#FFFFFF"></path>
                <polygon id="Path" points="0 0 237.155556 0 237.155556 116 0 116"></polygon>
            </g>
        </g>
    </g>
</svg>