<?xml version="1.0" encoding="UTF-8"?><svg id="Layer_2" xmlns="http://www.w3.org/2000/svg" viewBox="0 0 256 256"><defs><style>.cls-1{opacity:.2;}.cls-1,.cls-2,.cls-3,.cls-4,.cls-5,.cls-6,.cls-7,.cls-8{fill-rule:evenodd;}.cls-9{fill:#213242;}.cls-10,.cls-2{fill:#2b1608;}.cls-3{fill:#5b2f11;}.cls-4{fill:#0f0803;}.cls-5{fill:#cc966e;}.cls-6{fill:#dda576;}.cls-7{fill:#edc5a4;}.cls-8{fill:#06090c;}</style></defs><path class="cls-1" d="M212.24,151.83c0-4.54-2.86-8.41-6.87-9.93,2.58-11.53,3.33-31.55,1.19-37.64-1.94-5.52-4.98-8.24-8.27-9.62,.05-.28,.1-.57,.15-.85,.06-.3,.13-.68,.2-1.13,0-.04,.01-.08,.02-.12,.1-.66,.21-1.45,.31-2.41h0c2.48-23.68-12.12-36.03-21.79-41.74-.33-.19-.68-.39-1.02-.58-1.9-6.73-13.67-6.95-17.25-7.44-.19-.03-.37-.04-.56-.05-12.85-4.06-28.33-6.53-42.1-4.53-4.65-1.93-11.86-.88-14.55-.75-3.57,.16-6.44,2.8-6.94,6.12-4.19-.57-9.78,.56-14.06,1.98-3.65,1.21-5.81,5.33-5.05,9.4-3.98,.6-8.66,2.63-12.25,4.69-3.16,1.81-4.62,5.83-3.65,9.48-.44,.21-.97,.47-1.71,.88-8.45,4.7-7.44,12.38-2.07,14.71-1.49,2.15-1.96,5.06-1.07,7.72-1.47,1.03-3.01,1.99-4.58,2.79-7.5,3.82-4.04,16.29,5.99,13.45-.05,.41-.17,1.47-.29,3.46h0c-.52,9.51,.6,23.96,2.83,32.17-.37,.14-.72,.29-1.07,.47-.18,.08-.29,.13-.29,.13h0c-3.29,1.82-5.52,5.32-5.52,9.33,0,21.04,9.53,28.3,13.64,29.07,0,.02,.01,.05,.02,.08,0,0,1.25,.24,2.19-.58,.03-.03,.06-.06,.09-.09,1.12,5.47,2.57,10.89,4.43,15.2,5.31,12.37,25.17,39,60.17,40.05,.03,0,.06,0,.09,0,.03,0,.06,0,.09,0,34.99-1.05,55.46-27.68,60.77-40.05,1.76-4.11,3.06-9.21,4.03-14.41,.4-.07,.76-.14,1.06-.2,.09-.02,.18-.03,.27-.06,.44-.09,.7-.16,.7-.16v-.05c4.48-1.59,12.72-9.24,12.72-28.81Z"/><path class="cls-7" d="M201.61,135.21c-5.87,0-10.63,4.76-10.63,10.63s1.05,29.14,6.92,29.14c3.61,0,14.34-6.81,14.34-29.14,0-5.87-4.76-10.63-10.63-10.63Z"/><path class="cls-5" d="M206.39,136.48s-2.27,6.22-3.86,8.94c0,0,.24,18.04-3.01,29.27,0,0-.94,.24-2.35,.47l.82-16.69,2.17-16.56,1.38-3.74s.63-2.27,1.28-2.27c1.6,0,3.57,.57,3.57,.57Z"/><path class="cls-7" d="M62.61,135.21c5.87,0,10.63,4.76,10.63,10.63s-1.05,29.14-6.92,29.14c-3.61,0-14.34-6.81-14.34-29.14,0-5.87,4.76-10.63,10.63-10.63Z"/><path class="cls-5" d="M57.5,136.5s2.61,5.72,5.3,7.98c0,0-.4,19.26,2.85,30.49,0,0,1.5,.31,2.44-.81l-.85-15.69-2.17-16.56-1.38-3.74s-.82-1.81-1.28-2.27c-1.17-1.17-4.91,.59-4.91,.59Z"/><path class="cls-2" d="M74.72,84.98c5.86-.31,4.37,2.86,4.96,14.23,.59,11.37-11.13,42.67-16.99,42.98-5.72,.3-8.61-37.28-5.54-46.03,3.77-10.75,11.72-10.88,17.57-11.18Z"/><path class="cls-4" d="M79.4,87.78c.12,2.19,.06,5.23,.28,9.35,.59,11.37-11.13,42.67-16.99,42.98-.18,0-.36-.02-.53-.08-.29-20.99,4.15-41.61,17.25-52.24Z"/><path class="cls-2" d="M188.99,87.08c-5.86-.31-4.37,2.86-4.96,14.23-.59,11.37,11.13,42.67,16.99,42.98,5.72,.3,8.61-37.28,5.54-46.03-3.77-10.75-11.72-10.88-17.57-11.18Z"/><path class="cls-4" d="M186.39,87.31c12.47,11.9,16.34,34.58,15.45,56.75-.27,.16-.54,.24-.82,.23-5.86-.31-17.59-31.6-16.99-42.98,.48-9.22-.4-13.04,2.36-14Z"/><path class="cls-7" d="M184.26,81.58c19.65,18.03,15.97,71.43,8.19,100.13-7.79,28.7-35.61,47.61-60.08,47.31-24.46-.29-52.71-20.04-60.05-48.92-7.33-28.88-11.06-78.89,8.87-96.44,19.93-17.55,83.41-20.11,103.06-2.08Z"/><path class="cls-5" d="M101.65,126.22c5.09,0,9.21,7.89,9.21,17.61s-3.53,17.62-9.21,17.61-9.21-7.89-9.21-17.61,4.13-17.61,9.21-17.61Z"/><path class="cls-5" d="M163.49,126.22c5.08,0,9.21,7.87,9.21,17.56s-3.39,17.47-9.21,17.56-9.21-7.87-9.21-17.56,4.13-17.56,9.21-17.56Z"/><ellipse class="cls-9" cx="101.65" cy="141.94" rx="9.21" ry="17.3"/><ellipse class="cls-9" cx="163.49" cy="141.94" rx="9.21" ry="17.3"/><path class="cls-5" d="M157.17,188.41c-7.14,3.12-15.57,4.91-24.6,4.91s-17.46-1.8-24.6-4.91c7.71,1.93,15.98,2.98,24.6,2.98s16.89-1.04,24.6-2.98Z"/><path class="cls-5" d="M122.46,167.13c3.04,1.72,6.62,2.72,10.44,2.72s7.39-.99,10.43-2.72c-2.57,3.84-6.29,7.26-10.43,7.26s-7.87-3.42-10.44-7.26Z"/><path class="cls-4" d="M69.41,101.37l-1.49,4.14s-2.96,.11-5.32-4.32c0,0-2.42,2.73-6.58,2.55,.15-2.66,.31-3.66,.31-3.66l3.18-3.01,3.66-1.55,1.97,.67,3.42,3.3,.84,1.89Z"/><g id="Hair"><path class="cls-5" d="M110.27,73.03c1.65,1.31,10.91-10.18,10.07-8.66-11.17,20.1-13.66,26.8-15.57,29.86-2.3,3.67-7.03,4.2-10.22,1.47-3.18-2.73-3.78-7.81-1.32-11.35,4.56-6.58,12.52-14.91,17.04-11.32Z"/><path class="cls-4" d="M83.15,49.04c4.38,8.69-9.51,14.54-13.09,16.59-3.57,2.04-7.97,.48-9.81-3.49-1.84-3.97-.43-8.86,3.14-10.9,6.64-3.8,17.03-7.58,19.75-2.19Z"/><path class="cls-5" d="M91.72,75.32c8.08,4.31-.25,17.98-2.12,21.93-1.87,3.96-6.27,5.49-9.83,3.41-3.56-2.07-4.94-6.97-3.07-10.93,3.47-7.35,10.01-17.09,15.02-14.42Z"/><path class="cls-5" d="M68.65,108.76c3.93,.94,7.61-1.91,8.45-6.28,.84-4.37,5.57-20.02-3.25-21.76"/><path class="cls-2" d="M100.47,39.04c2.86,9.44-11.76,12.34-15.61,13.62-3.85,1.28-7.91-1.16-9.06-5.45-1.15-4.28,1.05-8.79,4.9-10.07,7.16-2.37,18-3.96,19.78,1.9Z"/><path class="cls-2" d="M120.4,35.27c.64,8.67-14.17,7.72-18.19,7.9-4.02,.18-7.4-2.83-7.54-6.73-.14-3.9,3-7.21,7.02-7.39,4.02-.18,18.07-2.45,18.71,6.22Z"/><path class="cls-2" d="M176.39,44.43c-.4,5.13-12.67,5.9-19.16,5.01-3.99-.55-6.85-4.37-6.39-8.53,.46-4.16,4.08-7.08,8.07-6.54,3.99,.55,18.2,.75,17.49,10.05Z"/><path class="cls-5" d="M58.04,63.69c5.04-2.8,.63,.9,19.46-12.8,7.41-5.39,7.52-6.93,24.8-14.99,23.21-10.82,56.27,18.97,72.4,28.5,11.43,6.75,19.35,33.63,19.72,34.74-25.97-27.35-47.09-11.6-63.36-11.81-15.26-.2-41.24-10.88-66.19,11.88l-6.83-35.52Z"/><path class="cls-4" d="M78.33,72.24c4.22,8.79-9.78,14.32-13.4,16.28-3.61,1.96-7.98,.29-9.74-3.72-1.76-4.02-.26-8.87,3.35-10.83,6.71-3.64,17.17-7.18,19.79-1.73Z"/><path class="cls-2" d="M130.45,80.8c16.28,.21,46.46-12.46,65.32,17.41,11.14-33.05-7.18-49.06-18.61-55.81-16.13-9.53-51.66-19.41-74.87-8.59-17.28,8.05-17.38,9.59-24.8,14.99-18.84,13.71-14.43,10-19.46,12.8-8.75,4.86-7.36,12.92-1.49,14.93,3.69,1.27,9.28-2.25,9.28-2.25,0,0-7.42,8.42-15.5,12.54-9.34,4.76-1.68,23,14.54,8.2,24.96-22.76,50.33-14.42,65.59-14.22Z"/><path class="cls-4" d="M112.19,72.45s21.28,3.25,46.29-2.07c25.01-5.32,34.25,23.43,34.25,23.43,0,0-10.37-15.62-32.45-15.59-12.75,.01-22.48,5-51.67,.94-1.35-.19,3.59-6.7,3.59-6.7Z"/><path class="cls-2" d="M73.85,73.39c8.83,1.74,4.09,17.39,3.25,21.76-.84,4.37-4.72,7.15-8.65,6.22-3.93-.94-6.44-5.24-5.6-9.61,1.57-8.12,5.52-19.45,10.99-18.37Z"/><path class="cls-4" d="M122.3,61.81s-6.47,12.12-2.39,12.42l-3.28,.99-5.45-.69,2.44-5.27,7.85-7.1,.84-.34Z"/><path class="cls-2" d="M110.27,65.7c1.34,1.07,12.97-4.87,12.02-3.9-11.31,11.68-15.52,22.21-17.52,25.09-2.45,3.54-7.03,4.2-10.22,1.47-3.18-2.73-3.78-7.81-1.32-11.35,4.56-6.58,12.52-14.91,17.04-11.32Z"/><path class="cls-4" d="M106.73,60.18s-10.04,18.7-9.84,22.76c.26,5.24,1.66,7.08,1.66,7.08,0,0-2.11,.09-4.29-1.92-1.76-1.63-2.33-4.06-2.33-4.06l.48-7.35,5.05-8.67,9.27-7.83Z"/><path class="cls-2" d="M95.87,58.06c2.34,1.25,12.35,.43,10.86,2.12-12.1,13.75-15.8,26.94-17.13,29.75-1.87,3.96-6.27,5.49-9.83,3.41-.82-.48-1.53-1.11-2.1-1.84-1.92-2.44-2.41-6.04-.97-9.09,3.47-7.35,11.08-19.11,19.17-24.35Z"/></g><path class="cls-2" d="M200.07,130.38s-2.38,23.49-8.06,38.79c-5.44,14.66-25.32,15.65-26.99,15.7,.13,.16,.21,1.1-.68,5.48-1.58,7.83-4.58,3.77-4.58,3.77,0,0,.55-14.47-3.3-15.73-3.85-1.26-13.92-1.68-17.04-.21-1.72,.81-4.14,1.13-6.43,1.07-2.29,.1-4.62-.22-6.41-1.07-3.11-1.47-13.19-1.05-17.04,.21-3.85,1.26-3.3,15.73-3.3,15.73,0,0-3,4.06-4.58-3.77-.89-4.38-.81-5.31-.68-5.48-1.67-.06-21.55-1.04-26.99-15.7-5.68-15.31-8.98-38.79-8.98-38.79,0,0-.59,13.75-.2,19.56,.39,5.81,2.4,27.2,7.71,39.57,5.31,12.37,25.17,39,60.17,40.05,34.99-1.05,55.46-27.68,60.77-40.05,5.31-12.37,6.41-33.76,6.8-39.57,.39-5.81-.2-19.56-.2-19.56Zm-62.67,87.61c-1.06-1.25-2.63-3.75,.36-7.54,7.74-4.44,13.84-14.3,10.32-15.93-6.83,2.07-10.6,2.19-15.18,2.24h0c-4.58-.06-8.34-.17-15.18-2.24-3.52,1.63,2.58,11.49,10.32,15.93,3.22,4.09,1.15,6.68,.12,7.81-10.79-2.09-19.23-12.19-19.07-20.58,.05-2.7,1.76-7.74,1.76-7.74,0,0,8.98,2.16,19.66,1.05,2.37-.62,2.83-.62,4.76,0,7.62,.76,18.04-1.05,18.04-1.05,0,0,2.02,5.73,2.17,8.69,.41,7.92-8.17,16.89-18.09,19.37Z"/><g><path class="cls-4" d="M152.91,187.84s-10.3,1.8-17.84,1.05c-1.91-.62-2.37-.62-4.71,0-10.56,1.11-19.44-1.05-19.44-1.05l-.24,2.09s8.98,2.16,19.66,1.05c2.37-.62,2.83-.62,4.76,0,7.62,.76,18.95-1.05,18.95-1.05"/><path class="cls-4" d="M199.89,130.38s-.18,1.75-.55,4.58c.13,4.48,.23,10.55,0,13.93-.38,5.81-4.21,27.2-9.47,39.57-5.26,12.37-22.75,34.81-57.36,35.86-34.61-1.05-51.51-23.49-56.76-35.86-5.26-12.37-9.99-33.76-10.37-39.57-.24-3.6,.36-10.26,.49-14.8-.38-2.32-.57-3.72-.57-3.72,0,0-1.05,13.75-.66,19.56,.39,5.81,2.4,27.2,7.71,39.57,5.31,12.37,25.17,39,60.17,40.05,34.99-1.05,55.46-27.68,60.77-40.05,5.31-12.37,6.41-33.76,6.8-39.57,.39-5.81-.2-19.56-.2-19.56Z"/></g><path class="cls-8" d="M101.65,152.96c-4.51,0-8.27-6.11-9.05-14.16-.1,1.02-.16,2.07-.16,3.14,0,9.55,4.13,17.3,9.21,17.3s9.21-7.75,9.21-17.3c0-1.07-.06-2.12-.16-3.14-.79,8.05-4.54,14.16-9.05,14.16Z"/><path class="cls-8" d="M163.49,152.96c-4.51,0-8.27-6.11-9.05-14.16-.1,1.02-.16,2.07-.16,3.14,0,9.55,4.13,17.3,9.21,17.3s9.21-7.75,9.21-17.3c0-1.07-.06-2.12-.16-3.14-.79,8.05-4.54,14.16-9.05,14.16Z"/><g><path class="cls-6" d="M150.47,109.21c6.18-2.97,10.71-5.38,27.3,3.45,12.22,6.5-2.66,4.2-2.66,4.2,0,0-11.59-2.55-22.47-1.77-5.72,0-4.83-4.59-2.17-5.88Z"/><path class="cls-2" d="M150.57,108.71c6.18-2.97,10.61-5.28,27.2,3.55,12.22,6.5-2.66,3.55-2.66,3.55,0,0-11.59-2.55-22.47-1.77-5.72,0-4.73-4.04-2.07-5.32Z"/><path class="cls-4" d="M153.68,111.94c-3.1,0-4.22-1.19-4.18-2.48-1.74,1.66-1.73,4.58,3.13,4.58,10.87-.78,22.47,1.77,22.47,1.77,0,0,7.18,1.42,7.46,.11-3-.89-6.41-2.21-6.41-2.21,0,0-11.59-2.55-22.47-1.77Z"/></g><g><path class="cls-6" d="M112.07,109.21c-6.18-2.97-10.71-5.38-27.3,3.45-12.22,6.5,2.66,4.2,2.66,4.2,0,0,11.59-2.55,22.47-1.77,5.72,0,4.83-4.59,2.17-5.88Z"/><path class="cls-2" d="M111.98,108.71c-6.18-2.97-10.61-5.28-27.2,3.55-12.22,6.5,2.66,3.55,2.66,3.55,0,0,11.59-2.55,22.47-1.77,5.72,0,4.73-4.04,2.07-5.32Z"/><path class="cls-4" d="M108.86,111.94c3.1,0,4.22-1.19,4.18-2.48,1.74,1.66,1.73,4.58-3.13,4.58-10.87-.78-22.47,1.77-22.47,1.77,0,0-7.18,1.42-7.46,.11,3-.89,6.41-2.21,6.41-2.21,0,0,11.59-2.55,22.47-1.77Z"/></g><path class="cls-4" d="M188.46,85.81s5.65,2.17,10.5-1.67c-.31,3.1-.74,4.63-.74,4.63,0,0-3.21,.11-6.66,2.7l-3.11-5.65Z"/><path class="cls-3" d="M192.8,94.26s3.9,.69,8.44-3.91c-1.03-.82-2.88-1.67-2.88-1.67,0,0-2.96-.03-6.62,2.61l1.06,2.96Z"/><g><circle class="cls-10" cx="173.64" cy="163.9" r=".3"/><circle class="cls-10" cx="180.44" cy="160.06" r=".39"/><circle class="cls-10" cx="176.06" cy="167.7" r=".25"/><circle class="cls-10" cx="168.17" cy="166.71" r=".44"/><circle class="cls-10" cx="171.23" cy="167.5" r=".15"/><circle class="cls-10" cx="175.32" cy="158.39" r=".1"/><circle class="cls-10" cx="179.01" cy="164.45" r=".15"/><circle class="cls-10" cx="185.12" cy="167.21" r=".15"/><circle class="cls-10" cx="185.27" cy="163.02" r=".2"/><circle class="cls-10" cx="182.41" cy="161.54" r=".2"/><circle class="cls-10" cx="173.74" cy="171.98" r=".1"/><circle class="cls-10" cx="172.56" cy="169.82" r=".1"/><circle class="cls-10" cx="179.85" cy="168.54" r=".2"/><circle class="cls-10" cx="180.74" cy="171.29" r=".1"/><circle class="cls-10" cx="176.94" cy="170.85" r=".25"/></g><g><circle class="cls-10" cx="91.04" cy="163.9" r=".3"/><circle class="cls-10" cx="84.24" cy="160.06" r=".39"/><circle class="cls-10" cx="88.63" cy="167.7" r=".25"/><circle class="cls-10" cx="96.51" cy="166.71" r=".44"/><circle class="cls-10" cx="93.46" cy="167.5" r=".15"/><circle class="cls-10" cx="89.37" cy="158.39" r=".1"/><circle class="cls-10" cx="85.67" cy="164.45" r=".15"/><circle class="cls-10" cx="79.56" cy="167.21" r=".15"/><circle class="cls-10" cx="79.41" cy="163.02" r=".2"/><circle class="cls-10" cx="82.27" cy="161.54" r=".2"/><circle class="cls-10" cx="90.94" cy="171.98" r=".1"/><circle class="cls-10" cx="92.13" cy="169.82" r=".1"/><circle class="cls-10" cx="84.83" cy="168.54" r=".2"/><circle class="cls-10" cx="83.95" cy="171.29" r=".1"/><circle class="cls-10" cx="87.74" cy="170.85" r=".25"/></g></svg>