<?xml version="1.0" encoding="UTF-8"?>
<svg width="96px" height="96px" viewBox="0 0 96 96" version="1.1" xmlns="http://www.w3.org/2000/svg" xmlns:xlink="http://www.w3.org/1999/xlink">
    <title>Artboard</title>
    <g id="Artboard" stroke="none" stroke-width="1" fill="none" fill-rule="evenodd">
        <g id="favicon" transform="translate(10.105263, 0.459330)">
            <path d="M76.2332334,56.5798593 C76.2332334,54.4945004 74.9195491,52.7168928 73.0776353,52.018711 C74.262707,46.7226344 74.6072046,37.5268449 73.6242381,34.7295244 C72.7331377,32.194022 71.336774,30.944644 69.8255779,30.3107684 C69.8485444,30.182156 69.8715109,30.0489502 69.8944774,29.9203378 C69.9220372,29.7825387 69.9541903,29.6079933 69.9863434,29.4012947 C69.9863434,29.3829215 69.9909367,29.3645483 69.99553,29.3461751 C70.041463,29.0430172 70.0919893,28.6801464 70.1379223,28.2391894 L70.1379223,28.2391894 C71.2770611,17.3622516 64.570841,11.6895244 60.1291185,9.06674925 C59.9775396,8.97947653 59.816774,8.8876105 59.6606018,8.80033777 C58.7878745,5.7090459 53.3815587,5.60799327 51.7371568,5.3829215 C51.6498841,5.3691416 51.5672046,5.3645483 51.4799319,5.35995499 C45.5775396,3.49507461 38.467109,2.36052916 32.1421329,3.27918944 C30.0062477,2.39268227 26.6944774,2.87497892 25.4588793,2.93469184 C23.8190707,3.00818466 22.5007932,4.22081624 22.2711281,5.74579231 C20.3465348,5.48397413 17.7788793,6.00301719 15.8129463,6.655266 C14.1363912,7.21105547 13.1442381,9.10349566 13.493329,10.9729693 C11.6651951,11.2485674 9.51553,12.1810076 7.86653479,13.1272277 C6.41505154,13.9586153 5.74442953,15.8051225 6.18997977,17.4816775 C5.9878745,17.5781368 5.74442953,17.6975626 5.40452522,17.885888 C1.52318551,20.0447397 1.98710895,23.5723952 4.45371182,24.6426344 C3.76930991,25.6301942 3.55342474,26.9668449 3.96222857,28.1886631 C3.28701326,28.6617732 2.57964484,29.1027301 1.85849651,29.4701942 C-1.58647956,31.2248354 0.00280273222,36.9526823 4.60988407,35.6481847 C4.58691756,35.83651 4.53179795,36.3234 4.47667833,37.237467 L4.47667833,37.237467 C4.23782666,41.6056966 4.75227642,48.2430172 5.77658264,52.0141177 C5.60663048,52.0784239 5.44586493,52.1473234 5.28509938,52.2300028 C5.20241996,52.2667493 5.15189364,52.2897158 5.15189364,52.2897158 L5.15189364,52.2897158 C3.64069747,53.1256966 2.61639125,54.7333521 2.61639125,56.575266 C2.61639125,66.2395722 6.99380752,69.5743091 8.88165441,69.9279933 C8.88165441,69.9371799 8.88624771,69.9509598 8.89084101,69.9647397 C8.89084101,69.9647397 9.46500369,70.0749789 9.89677402,69.6983282 C9.91055393,69.6845483 9.92433383,69.6707684 9.93811374,69.6569885 C10.4525635,72.1695244 11.1185922,74.6590937 11.9729463,76.6388067 C14.4119893,82.3207205 23.534286,94.5526823 39.610841,95.0349789 C39.6246209,95.0349789 39.6384008,95.0349789 39.6521807,95.0349789 C39.6659606,95.0349789 39.6797405,95.0349789 39.6935204,95.0349789 C55.7654822,94.5526823 65.1679702,82.3207205 67.6070133,76.6388067 C68.4154343,74.7509598 69.0125635,72.408376 69.4581137,70.0198593 C69.6418458,69.9877062 69.8072046,69.9555531 69.9450037,69.9279933 C69.9863434,69.9188067 70.0276831,69.9142134 70.0690228,69.9004335 C70.2711281,69.8590937 70.3905539,69.8269406 70.3905539,69.8269406 L70.3905539,69.8039741 C72.448353,69.0736392 76.2332334,65.5597636 76.2332334,56.5706727 L76.2332334,56.5798593 Z" id="Path" fill="#000000" fill-rule="nonzero" opacity="0.2"></path>
            <path d="M71.3505539,48.9457923 C68.654286,48.9457923 66.4678745,51.1322038 66.4678745,53.8284717 C66.4678745,56.5247397 66.9501712,67.2133521 69.6464391,67.2133521 C71.3046209,67.2133521 76.2332334,64.0853138 76.2332334,53.8284717 C76.2332334,51.1322038 74.0468219,48.9457923 71.3505539,48.9457923 L71.3505539,48.9457923 Z" id="Path" fill="#EDC5A4"></path>
            <path d="M73.546152,49.5291416 C73.546152,49.5291416 72.5034726,52.3861751 71.7731377,53.6355531 C71.7731377,53.6355531 71.8833769,61.9218689 70.3905539,67.0801464 C70.3905539,67.0801464 69.9587836,67.1903856 69.3111281,67.2960315 L69.6877788,59.6298115 L70.6845252,52.0233043 L71.3184008,50.3054095 C71.3184008,50.3054095 71.6077788,49.2627301 71.9063434,49.2627301 C72.6412716,49.2627301 73.546152,49.5245483 73.546152,49.5245483 L73.546152,49.5291416 Z" id="Path" fill="#CC966E"></path>
            <path d="M7.50366398,48.9457923 C10.1999319,48.9457923 12.3863434,51.1322038 12.3863434,53.8284717 C12.3863434,56.5247397 11.9040468,67.2133521 9.20777881,67.2133521 C7.54959699,67.2133521 2.62098455,64.0853138 2.62098455,53.8284717 C2.62098455,51.1322038 4.80739603,48.9457923 7.50366398,48.9457923 L7.50366398,48.9457923 Z" id="Path" fill="#EDC5A4"></path>
            <path d="M5.15648694,49.5383282 C5.15648694,49.5383282 6.35533862,52.1656966 7.5909367,53.2037827 C7.5909367,53.2037827 7.40720465,62.0504813 8.90002761,67.2087588 C8.90002761,67.2087588 9.58902283,67.3511512 10.0207932,66.8367014 L9.63036254,59.6298115 L8.63361613,52.0233043 L7.99974053,50.3054095 C7.99974053,50.3054095 7.62308981,49.474022 7.41179795,49.2627301 C6.87438168,48.7253138 5.15648694,49.5337349 5.15648694,49.5337349 L5.15648694,49.5383282 Z" id="Path" fill="#CC966E"></path>
            <path d="M13.066152,25.8736392 C15.7578267,25.7312469 15.0734247,27.1873234 15.3444295,32.4099071 C15.6154343,37.6324909 10.232085,52.0095244 7.54041039,52.1519167 C4.91304197,52.2897158 3.58557785,35.028089 4.99572139,31.0089502 C6.72739603,26.0711512 10.3790707,26.0114382 13.066152,25.8736392 L13.066152,25.8736392 Z" id="Path" fill="#2B1608"></path>
            <path d="M15.2158171,27.1597636 C15.2709367,28.1656966 15.2433769,29.5620603 15.3444295,31.4545004 C15.6154343,36.6770842 10.232085,51.0541177 7.54041039,51.19651 C7.45773096,51.19651 7.37505154,51.1873234 7.29696541,51.1597636 C7.16375967,41.5184239 9.20318551,32.0470363 15.2204104,27.1643569 L15.2158171,27.1597636 Z" id="Path" fill="#0F0803"></path>
            <path d="M65.5538075,26.8382325 C62.8621329,26.6958402 63.5465348,28.1519167 63.27553,33.3745004 C63.0045252,38.5970842 68.3878745,52.9741177 71.0795491,53.11651 C73.7069176,53.2543091 75.0343817,35.9926823 73.6242381,31.9735435 C71.8925635,27.0357445 68.2408889,26.9760315 65.5538075,26.8382325 L65.5538075,26.8382325 Z" id="Path" fill="#2B1608"></path>
            <path d="M64.3595491,26.9438784 C70.087396,32.4099071 71.8650037,42.8275148 71.4561999,53.0108641 C71.3321807,53.0843569 71.2081616,53.1211033 71.0795491,53.11651 C68.3878745,52.9741177 62.9999319,38.6016775 63.27553,33.3745004 C63.4960085,29.1394765 63.0917979,27.3848354 64.3595491,26.9438784 Z" id="Path" fill="#0F0803"></path>
            <path d="M63.3811759,24.3119167 C72.4070133,32.5936392 70.7166783,57.1218689 67.1430898,70.304644 C63.564908,83.4874191 50.7863434,92.1733521 39.5465348,92.0355531 C28.3113195,91.9023473 15.3352429,82.830577 11.9637597,69.5651225 C8.59686972,56.2996679 6.88356828,33.3285674 16.038018,25.2673234 C25.1924678,17.2060794 54.3507453,16.0301942 63.3765826,24.3119167 L63.3811759,24.3119167 Z" id="Path" fill="#EDC5A4"></path>
            <path d="M25.4359128,44.8164143 C27.7739032,44.8164143 29.6663434,48.4405292 29.6663434,52.9052182 C29.6663434,57.3699071 28.044908,60.9986153 25.4359128,60.9940263 C22.8269176,60.9894287 21.2054822,57.3699071 21.2054822,52.9052182 C21.2054822,48.4405292 23.1025157,44.8164143 25.4359128,44.8164143 L25.4359128,44.8164143 Z" id="Path" fill="#CC966E"></path>
            <path d="M53.8408889,44.8164143 C56.174286,44.8164143 58.0713195,48.4313426 58.0713195,52.8822516 C58.0713195,57.3331607 56.5141903,60.9067493 53.8408889,60.948089 C51.1675874,60.9894287 49.6104582,57.3331607 49.6104582,52.8822516 C49.6104582,48.4313426 51.5074917,44.8164143 53.8408889,44.8164143 Z" id="Path" fill="#CC966E"></path>
            <ellipse id="Oval" fill="#213242" fill-rule="nonzero" cx="25.4359128" cy="52.0370842" rx="4.23043062" ry="7.94641148"></ellipse>
            <ellipse id="Oval" fill="#213242" fill-rule="nonzero" cx="53.8408889" cy="52.0370842" rx="4.23043062" ry="7.94641148"></ellipse>
            <path d="M50.9379223,73.382156 C47.6583051,74.815266 43.786152,75.637467 39.6384008,75.637467 C35.4906496,75.637467 31.6184965,74.8106727 28.3388793,73.382156 C31.8803147,74.2686631 35.678975,74.7509598 39.6384008,74.7509598 C43.5978267,74.7509598 47.3964869,74.2732564 50.9379223,73.382156 Z" id="Path" fill="#CC966E"></path>
            <path d="M34.9945731,63.6076105 C36.3909367,64.3976583 38.0353386,64.8569885 39.7899798,64.8569885 C41.5446209,64.8569885 43.1844295,64.4022516 44.5807932,63.6076105 C43.4003147,65.3714382 41.6916066,66.9423473 39.7899798,66.9423473 C37.888353,66.9423473 36.1750515,65.3714382 34.9945731,63.6076105 L34.9945731,63.6076105 Z" id="Path" fill="#CC966E"></path>
            <path d="M10.627109,33.4020603 L9.94270704,35.3036871 C9.94270704,35.3036871 8.58308981,35.3542134 7.49907067,33.3193808 C7.49907067,33.3193808 6.38749173,34.5733521 4.47667833,34.4906727 C4.54557785,33.2688545 4.61907067,32.8095244 4.61907067,32.8095244 L6.07974053,31.4269406 L7.76088886,30.7149789 L8.66576924,31.0227301 L10.2366783,32.5385196 L10.6225157,33.4066536 L10.627109,33.4020603 Z" id="Path" fill="#0F0803"></path>
            <g id="Hair" transform="translate(0.000781, 0.000000)">
                <path d="M29.3945579,20.384644 C30.1524527,20.9863665 34.4058498,15.7086631 34.0200125,16.4068449 C28.8892948,25.6393808 27.7455627,28.7168928 26.8682422,30.122443 C25.8117828,31.8081847 23.6391512,32.0516296 22.1738881,30.7976583 C20.7132182,29.5436871 20.4376201,27.2102899 21.5675723,25.5842612 C23.6621178,22.5618689 27.3183857,18.7356488 29.3945579,20.384644 L29.3945579,20.384644 Z" id="Path" fill="#CC966E"></path>
                <path d="M16.9375245,9.36531385 C18.9493905,13.3568928 12.5692948,16.0439741 10.9248929,16.9856009 C9.28508426,17.9226344 7.26403163,17.2060794 6.41886416,15.3825387 C5.5736967,13.5589981 6.2213522,11.3128737 7.86116081,10.3758402 C10.911113,8.63038562 15.6835532,6.89411767 16.9329311,9.36990715 L16.9375245,9.36531385 Z" id="Path" fill="#0F0803"></path>
                <path d="M20.8739838,21.43651 C24.5853713,23.4162229 20.7591512,29.695266 19.9002039,31.5096201 C19.0412565,33.3285674 17.0202039,34.0313426 15.3849886,33.0759359 C13.7497733,32.1251225 13.1158977,29.8744048 13.974845,28.0554574 C15.5687206,24.6793808 18.5727398,20.2055052 20.8739838,21.4319167 L20.8739838,21.43651 Z" id="Path" fill="#CC966E"></path>
                <path d="M10.2772374,36.79651 C12.0824048,37.2282804 13.7727398,35.9191894 14.1585771,33.9119167 C14.5444144,31.904644 16.717046,24.7161272 12.6657541,23.9168928" id="Path" fill="#CC966E"></path>
                <path d="M24.8931225,4.77201241 C26.2068067,9.10808897 19.4914,10.4401464 17.722979,11.028089 C15.9545579,11.6160315 14.0896776,10.495266 13.5614479,8.52473968 C13.0332182,6.55880667 14.0437445,4.48722772 15.8121656,3.89928514 C19.1009694,2.8106727 24.0801082,2.08033777 24.8977158,4.77201241 L24.8931225,4.77201241 Z" id="Path" fill="#2B1608"></path>
                <path d="M34.0475723,3.04033777 C34.3415436,7.02273011 27.5388642,6.58636648 25.692357,6.6690459 C23.8458498,6.75172533 22.2933139,5.3691416 22.2290077,3.57775404 C22.1647015,1.78636648 23.6069981,0.265983702 25.4535053,0.183304276 C27.3000125,0.10062485 33.753601,-0.942054575 34.0475723,3.04033777 L34.0475723,3.04033777 Z" id="Path" fill="#2B1608"></path>
                <path d="M59.765467,7.24780188 C59.581735,9.60416552 53.9457541,9.95784973 50.9647015,9.5490459 C49.1319742,9.29641432 47.81829,7.54177318 48.0295819,5.63095978 C48.2408737,3.72014638 49.9036489,2.37890236 51.7363761,2.62694064 C53.5691034,2.87957222 60.0961847,2.97143825 59.7700603,7.24320858 L59.765467,7.24780188 Z" id="Path" fill="#2B1608"></path>
                <path d="M5.40374455,16.0945004 C7.71876847,14.808376 5.69312254,16.5078976 14.3423091,10.2150746 C17.7459455,7.73928514 17.7964718,7.03191672 25.7336967,3.32971576 C36.3947493,-1.64023639 51.5802039,12.0432086 58.9891991,16.4206249 C64.2393426,19.5211033 67.8772374,31.8678976 68.0471895,32.377754 C56.1183857,19.8150746 46.4173331,27.0495244 38.9440316,26.953065 C31.9346536,26.861199 20.0012565,21.9555531 8.54096943,32.4099071 L5.40374455,16.0945004 Z" id="Path" fill="#CC966E"></path>
                <path d="M14.7235532,20.0217732 C16.6619264,24.0592851 10.2313044,26.5993808 8.56852924,27.4996679 C6.91034742,28.399955 4.90307469,27.6328737 4.09465364,25.7909598 C3.28623258,23.9444526 3.9752278,21.7167014 5.63340962,20.8164143 C8.71551488,19.1444526 13.5201082,17.5184239 14.7235532,20.0217732 L14.7235532,20.0217732 Z" id="Path" fill="#0F0803"></path>
                <path d="M38.6638402,23.9536392 C46.141735,24.0500985 60.0043187,18.2303856 68.6672852,31.950577 C73.784223,16.7697158 65.3692948,9.41584016 60.1191512,6.31536169 C52.710156,1.93794542 36.390156,-2.60023639 25.7291034,2.36971576 C17.7918785,6.06732341 17.7459455,6.77469184 14.3377158,9.25507461 C5.68393593,15.5524909 7.70958187,13.848376 5.39915124,15.1345004 C1.38001249,17.3668449 2.01848139,21.0690459 4.71474933,21.9922995 C6.40967756,22.5756488 8.97733306,20.9588067 8.97733306,20.9588067 C8.97733306,20.9588067 5.5691034,24.8263665 1.85771584,26.7188067 C-2.4324277,28.9052182 1.0860412,37.2834 8.53637612,30.4853138 C20.0012565,20.0309598 31.6544622,23.8617732 38.6638402,23.9536392 L38.6638402,23.9536392 Z" id="Path" fill="#2B1608"></path>
                <path d="M30.2764718,20.1182325 C30.2764718,20.1182325 40.0510173,21.6110555 51.5388642,19.1674191 C63.0267111,16.7237827 67.2709216,29.9295244 67.2709216,29.9295244 C67.2709216,29.9295244 62.507668,22.7547875 52.3656584,22.7685674 C46.5091991,22.7731607 42.0399168,25.0652182 28.6320699,23.2003378 C28.0119742,23.113065 30.2810651,20.1228258 30.2810651,20.1228258 L30.2764718,20.1182325 Z" id="Path" fill="#0F0803"></path>
                <path d="M12.6657541,20.5500028 C16.7216393,21.3492373 14.5444144,28.537754 14.1585771,30.5450268 C13.7727398,32.5522995 11.9905388,33.8292373 10.1853713,33.4020603 C8.38020388,32.9702899 7.22728522,30.9951703 7.61312254,28.9878976 C8.33427086,25.2581368 10.1486249,20.0539263 12.6611608,20.5500028 L12.6657541,20.5500028 Z" id="Path" fill="#2B1608"></path>
                <path d="M34.9202996,15.2309598 C34.9202996,15.2309598 31.9484335,20.7980411 33.8225005,20.9358402 L32.3158977,21.390577 L29.8125484,21.0736392 L30.9333139,18.6529693 L34.5390556,15.3917253 L34.9248929,15.2355531 L34.9202996,15.2309598 Z" id="Path" fill="#0F0803"></path>
                <path d="M29.3945579,17.017754 C30.0100603,17.5092373 35.3520699,14.7808162 34.9157063,15.2263665 C29.7206823,20.5913426 27.7869024,25.428089 26.8682422,26.7509598 C25.7428833,28.3769885 23.6391512,28.6801464 22.1738881,27.4261751 C20.7132182,26.1722038 20.4376201,23.8388067 21.5675723,22.212778 C23.6621178,19.1903856 27.3183857,15.3641655 29.3945579,17.0131607 L29.3945579,17.017754 Z" id="Path" fill="#2B1608"></path>
                <path d="M27.7685292,14.4822516 C27.7685292,14.4822516 23.1568546,23.0717253 23.2487206,24.9366057 C23.3681465,27.3434957 24.0112087,28.1886631 24.0112087,28.1886631 C24.0112087,28.1886631 23.0420221,28.2300028 22.0406823,27.3067493 C21.2322613,26.5580411 20.9704431,25.4418689 20.9704431,25.4418689 L21.1909216,22.0657923 L23.5105388,18.0834 L27.7685292,14.4868449 L27.7685292,14.4822516 Z" id="Path" fill="#0F0803"></path>
                <path d="M22.7802039,13.5084717 C23.8550364,14.0826344 28.4529311,13.7059837 27.7685292,14.4822516 C22.2106345,20.7980411 20.511113,26.8566057 19.9002039,28.1473234 C19.0412565,29.9662708 17.0202039,30.6690459 15.3849886,29.7136392 C15.0083378,29.4931607 14.6822134,29.2037827 14.4203953,28.8684717 C13.5384814,27.7477062 13.3134096,26.0941177 13.974845,24.6931607 C15.5687206,21.3170842 19.064223,15.9153617 22.7802039,13.5084717 L22.7802039,13.5084717 Z" id="Path" fill="#2B1608"></path>
            </g>
            <path d="M70.6431855,46.7272277 C70.6431855,46.7272277 69.5499798,57.5168928 66.9409846,64.544644 C64.4422286,71.2784239 55.3107453,71.7331607 54.543664,71.7561272 C54.6033769,71.8296201 54.6401233,72.2613904 54.2313195,74.2732564 C53.5055779,77.8698115 52.1275874,76.0049311 52.1275874,76.0049311 C52.1275874,76.0049311 52.380219,69.3584239 50.6117979,68.7796679 C48.8433769,68.2009119 44.2179223,68.0079933 42.7848123,68.6832086 C41.9947645,69.055266 40.8831855,69.2022516 39.8313195,69.1746918 C38.7794534,69.2206249 37.7092142,69.0736392 36.8870133,68.6832086 C35.4584965,68.0079933 30.8284487,68.2009119 29.0600276,68.7796679 C27.2916066,69.3584239 27.5442381,76.0049311 27.5442381,76.0049311 C27.5442381,76.0049311 26.1662477,77.8698115 25.4405061,74.2732564 C25.0317023,72.2613904 25.0684487,71.8342134 25.1281616,71.7561272 C24.3610802,71.7285674 15.229597,71.2784239 12.730841,64.544644 C10.1218458,57.5122995 8.60605632,46.7272277 8.60605632,46.7272277 C8.60605632,46.7272277 8.33505154,53.0430172 8.51419029,55.7117253 C8.69332905,58.3804335 9.61658264,68.2055052 12.0556257,73.8874191 C14.4946688,79.569333 23.6169654,91.8012947 39.6935204,92.2835914 C55.7654822,91.8012947 65.1679702,79.569333 67.6070133,73.8874191 C70.0460563,68.2055052 70.5513195,58.3804335 70.7304582,55.7117253 C70.909597,53.0430172 70.6385922,46.7272277 70.6385922,46.7272277 L70.6431855,46.7272277 Z M41.8569654,86.9691416 C41.3700755,86.3949789 40.6489271,85.2466536 42.0223243,83.5057923 C45.5775396,81.4663665 48.3794534,76.9373713 46.7626113,76.1886631 C43.6253865,77.1394765 41.8937118,77.1945961 39.7899798,77.2175626 L39.7899798,77.2175626 C37.6862477,77.1900028 35.9591664,77.1394765 32.8173482,76.1886631 C31.2005061,76.9373713 34.00242,81.4663665 37.5576353,83.5057923 C39.0366783,85.3844526 38.0858649,86.5741177 37.6127549,87.0931607 C32.6565826,86.1331607 28.7798362,81.4939263 28.853329,77.6401464 C28.8762956,76.399955 29.6617501,74.0849311 29.6617501,74.0849311 C29.6617501,74.0849311 33.7865348,75.0770842 38.6921807,74.5672277 C39.7807932,74.282443 39.992085,74.282443 40.8785922,74.5672277 C44.3786879,74.9163186 49.164908,74.0849311 49.164908,74.0849311 C49.164908,74.0849311 50.0927549,76.7168928 50.1616544,78.07651 C50.3499798,81.7144048 46.4089271,85.8345961 41.8523721,86.9737349 L41.8569654,86.9691416 Z" id="Shape" fill="#2B1608"></path>
            <g id="Group" transform="translate(8.396215, 46.722634)" fill="#0F0803">
                <path d="M40.5849613,26.3977033 C40.5849613,26.3977033 35.8538608,27.2244976 32.3905115,26.88 C31.5131909,26.5952153 31.3018991,26.5952153 30.2270665,26.88 C25.3765402,27.3898565 21.2976886,26.3977033 21.2976886,26.3977033 L21.1874493,27.3577033 C21.1874493,27.3577033 25.312234,28.3498565 30.2178799,27.84 C31.3064924,27.5552153 31.5177842,27.5552153 32.4042914,27.84 C35.9043871,28.1890909 41.1085976,27.3577033 41.1085976,27.3577033" id="Path"></path>
                <path d="M62.1642914,0.00459330144 C62.1642914,0.00459330144 62.081612,0.808421053 61.9116598,2.10832536 C61.9713728,4.1661244 62.0173058,6.95425837 61.9116598,8.50679426 C61.7371144,11.1755024 59.9778799,21.0005742 57.5618034,26.682488 C55.1457268,32.3644019 47.1120426,42.6717703 31.2146264,43.154067 C15.3172101,42.6717703 7.55453066,32.3644019 5.14304741,26.682488 C2.72697085,21.0005742 0.554339273,11.1755024 0.379793819,8.50679426 C0.269554584,6.85320574 0.54515267,3.79406699 0.604865589,1.70870813 C0.430320135,0.643062201 0.343047407,0 0.343047407,0 C0.343047407,0 -0.139249243,6.31578947 0.0398895125,8.98449761 C0.219028268,11.6532057 1.14228186,21.4782775 3.58132492,27.1601914 C6.02036798,32.8421053 15.1426646,45.074067 31.2192197,45.5563636 C47.2911814,45.074067 56.6936694,32.8421053 59.1327125,27.1601914 C61.5717555,21.4782775 62.0770187,11.6532057 62.2561575,8.98449761 C62.4352962,6.31578947 62.1642914,0 62.1642914,0 L62.1642914,0.00459330144 Z" id="Path"></path>
            </g>
            <path d="M25.4359128,57.0989024 C23.3643338,57.0989024 21.6372525,54.2923952 21.278975,50.5947875 C21.233042,51.0633043 21.2054822,51.5456009 21.2054822,52.0370842 C21.2054822,56.4236871 23.1025157,59.9834957 25.4359128,59.9834957 C27.7693099,59.9834957 29.6663434,56.4236871 29.6663434,52.0370842 C29.6663434,51.5456009 29.6387836,51.0633043 29.5928506,50.5947875 C29.2299798,54.2923952 27.5074917,57.0989024 25.4359128,57.0989024 L25.4359128,57.0989024 Z" id="Path" fill="#06090C"></path>
            <path d="M53.8408889,57.0989024 C51.7693099,57.0989024 50.0422286,54.2923952 49.6839511,50.5947875 C49.638018,51.0633043 49.6104582,51.5456009 49.6104582,52.0370842 C49.6104582,56.4236871 51.5074917,59.9834957 53.8408889,59.9834957 C56.174286,59.9834957 58.0713195,56.4236871 58.0713195,52.0370842 C58.0713195,51.5456009 58.0437597,51.0633043 57.9978267,50.5947875 C57.6349558,54.2923952 55.9124678,57.0989024 53.8408889,57.0989024 Z" id="Path" fill="#06090C"></path>
            <g id="Group" transform="translate(46.906791, 35.550617)">
                <path d="M0.953619072,1.45259166 C3.79227936,0.0883811373 5.87304491,-1.01860451 13.493332,3.03728066 C19.1063463,6.02292659 12.2715138,4.96646726 12.2715138,4.96646726 C12.2715138,4.96646726 6.94787745,3.7951754 1.95036548,4.15345291 C-0.677002937,4.15345291 -0.268199109,2.04512755 0.953619072,1.45259166 L0.953619072,1.45259166 Z" id="Path" fill="#DDA576"></path>
                <path d="M0.999552087,1.22292659 C3.83821237,-0.141283935 5.87304491,-1.20233657 13.493332,2.8535486 C19.1063463,5.83919453 12.2715138,4.48417061 12.2715138,4.48417061 C12.2715138,4.48417061 6.94787745,3.31287874 1.95036548,3.67115626 C-0.677002937,3.67115626 -0.222266095,1.81546248 0.999552087,1.22751989 L0.999552087,1.22292659 Z" id="Path" fill="#2B1608"></path>
                <path d="M2.42806883,2.70656296 C1.00414539,2.70656296 0.489695627,2.15996008 0.508068833,1.5674242 C-0.291165617,2.32991224 -0.286572315,3.67115626 1.94577218,3.67115626 C6.93869084,3.31287874 12.2669205,4.48417061 12.2669205,4.48417061 C12.2669205,4.48417061 15.5649109,5.13641941 15.6935234,4.53469693 C14.3155329,4.1258931 12.7492172,3.51957731 12.7492172,3.51957731 C12.7492172,3.51957731 7.42558079,2.34828544 2.42806883,2.70656296 Z" id="Path" fill="#0F0803"></path>
            </g>
            <g id="Group" transform="translate(15.469380, 35.550617)">
                <path d="M14.7527533,1.45259166 C11.914093,0.0883811373 9.8333275,-1.01860451 2.21304042,3.03728066 C-3.39997394,6.02292659 3.4348586,4.96646726 3.4348586,4.96646726 C3.4348586,4.96646726 8.75849496,3.7951754 13.7560069,4.15345291 C16.3833753,4.15345291 15.9745715,2.04512755 14.7527533,1.45259166 L14.7527533,1.45259166 Z" id="Path" fill="#DDA576"></path>
                <path d="M14.7114136,1.22292659 C11.8727533,-0.141283935 9.8379208,-1.20233657 2.21763372,2.8535486 C-3.39538064,5.83919453 3.4394519,4.48417061 3.4394519,4.48417061 C3.4394519,4.48417061 8.76308826,3.31287874 13.7606002,3.67115626 C16.3879686,3.67115626 15.9332318,1.81546248 14.7114136,1.22751989 L14.7114136,1.22292659 Z" id="Path" fill="#2B1608"></path>
                <path d="M13.2783036,2.70656296 C14.702227,2.70656296 15.2166768,2.15996008 15.1983036,1.5674242 C15.997538,2.32991224 15.9929447,3.67115626 13.7606002,3.67115626 C8.76768157,3.31287874 3.4394519,4.48417061 3.4394519,4.48417061 C3.4394519,4.48417061 0.14146147,5.13641941 0.0128490296,4.53469693 C1.39083946,4.1258931 2.95715525,3.51957731 2.95715525,3.51957731 C2.95715525,3.51957731 8.28079161,2.34828544 13.2783036,2.70656296 Z" id="Path" fill="#0F0803"></path>
            </g>
            <path d="M65.3103625,26.2548832 C65.3103625,26.2548832 67.9055779,27.2516296 70.133329,25.4878019 C69.9909367,26.9117253 69.7934247,27.6145004 69.7934247,27.6145004 C69.7934247,27.6145004 68.318975,27.6650268 66.734286,28.8546918 L65.3057692,26.2594765 L65.3103625,26.2548832 Z" id="Path" fill="#0F0803"></path>
            <path d="M67.3038554,30.1362229 C67.3038554,30.1362229 69.0952429,30.4531607 71.1806018,28.3402421 C70.7074917,27.9635914 69.857731,27.5731539 69.857731,27.5731539 C69.857731,27.5731539 68.4981137,27.5593808 66.8169654,28.7720124 L67.3038554,30.1316296 L67.3038554,30.1362229 Z" id="Path" fill="#5B2F11"></path>
            <g id="Group" transform="translate(55.788449, 59.547132)" fill="#2B1608" fill-rule="nonzero">
                <circle id="Oval" cx="2.71464115" cy="2.57684211" r="1"></circle>
                <circle id="Oval" cx="5.83808612" cy="0.813014354" r="1"></circle>
                <circle id="Oval" cx="3.8262201" cy="4.32229665" r="1"></circle>
                <circle id="Oval" cx="0.202105263" cy="3.86755981" r="1"></circle>
                <circle id="Oval" cx="1.6076555" cy="4.23043062" r="1"></circle>
                <circle id="Oval" cx="3.49038278" cy="0.05" r="1"></circle>
                <circle id="Oval" cx="5.18124402" cy="2.82947368" r="1"></circle>
                <circle id="Oval" cx="7.9877512" cy="4.09722488" r="1"></circle>
                <circle id="Oval" cx="8.05665072" cy="2.17263158" r="1"></circle>
                <circle id="Oval" cx="6.74296651" cy="1.49282297" r="1"></circle>
                <circle id="Oval" cx="2.76464115" cy="6.29229665" r="1"></circle>
                <circle id="Oval" cx="2.22263158" cy="5.30014354" r="1"></circle>
                <circle id="Oval" cx="5.56708134" cy="4.70813397" r="1"></circle>
                <circle id="Oval" cx="5.97995215" cy="5.97535885" r="1"></circle>
                <circle id="Oval" cx="4.23043062" cy="5.7691866" r="1"></circle>
            </g>
            <g id="Group" transform="translate(15.128544, 59.547132)" fill="#2B1608" fill-rule="nonzero">
                <circle id="Oval" cx="5.4338756" cy="2.57684211" r="1"></circle>
                <circle id="Oval" cx="2.31043062" cy="0.813014354" r="1"></circle>
                <circle id="Oval" cx="4.32688995" cy="4.32229665" r="1"></circle>
                <circle id="Oval" cx="7.94641148" cy="3.86755981" r="1"></circle>
                <circle id="Oval" cx="6.54545455" cy="4.23043062" r="1"></circle>
                <circle id="Oval" cx="4.67086124" cy="0.05" r="1"></circle>
                <circle id="Oval" cx="2.96727273" cy="2.82947368" r="1"></circle>
                <circle id="Oval" cx="0.16076555" cy="4.09722488" r="1"></circle>
                <circle id="Oval" cx="0.0918660287" cy="2.17263158" r="1"></circle>
                <circle id="Oval" cx="1.40555024" cy="1.49282297" r="1"></circle>
                <circle id="Oval" cx="5.39200957" cy="6.29229665" r="1"></circle>
                <circle id="Oval" cx="5.93861244" cy="5.30014354" r="1"></circle>
                <circle id="Oval" cx="2.58143541" cy="4.70813397" r="1"></circle>
                <circle id="Oval" cx="2.18129187" cy="5.97535885" r="1"></circle>
                <circle id="Oval" cx="3.91808612" cy="5.7691866" r="1"></circle>
            </g>
        </g>
    </g>
</svg>