<?xml version="1.0" encoding="UTF-8"?>
<svg width="192px" height="192px" viewBox="0 0 192 192" version="1.1" xmlns="http://www.w3.org/2000/svg" xmlns:xlink="http://www.w3.org/1999/xlink">
    <title>favicon transparent 192 safari</title>
    <g id="favicon-transparent-192-safari" stroke="none" stroke-width="1" fill="none" fill-rule="evenodd">
        <path d="M96,0 C149.019336,-9.73949402e-15 192,42.980664 192,96 C192,149.019336 149.019336,192 96,192 C42.980664,192 6.49299601e-15,149.019336 0,96 C-6.49299601e-15,42.980664 42.980664,9.73949402e-15 96,0 Z M87,102.206739 C87,146.763818 95.1028834,172 95.1028834,172 C95.1028834,172 102.415332,151.944874 102.999838,110.066845 C103.058716,105.850058 87,97.989656 87,102.206739 Z M95.4774648,20.0008097 L94.5228234,20.0008097 C79.2789625,20.0525624 67,22.5785898 67,25.6870063 C67,25.8510602 67.0362685,26.0130597 67.103157,26.1735919 L67.103157,26.1735919 L67,26.1735919 L67.1632081,26.3012546 L67.23901,26.430714 C67.5706312,26.9467748 68.2419549,27.441234 69.20762,27.903935 L69.20762,27.903935 L75.026628,32 L75.0585822,31.9926638 C75.154088,31.9709343 75.4620742,31.9021988 75.9608703,31.8034233 C75.8192977,31.857635 75.7459943,31.8878281 75.7459943,31.8878281 L75.7459943,31.8878281 L72,78.0729424 C72,78.0729424 72.0110682,78.0888059 72.0342345,78.117761 C71.9111362,78.0423688 71.8563049,78 71.8563049,78 L71.8563049,78 L60,90.853827 L60.139608,90.853827 L60.0795299,90.9976598 C60.0275103,91.1419188 60,91.2874427 60,91.434109 C60,95.0602913 75.8939696,98 95.5001482,98 C115.10603,98 131,95.0602913 131,91.434109 C131,91.2385539 130.951093,91.0450299 130.860392,90.853827 L130.860392,90.853827 L131,90.853827 L119.615886,78.5134023 C119.18849,72.4662138 118.451889,62.2066031 117.651181,51.777864 L117.541619,50.3550947 C117.5233,50.1179183 117.504954,49.8807495 117.486583,49.6436357 L117.376088,48.2219933 C117.339174,47.7485858 117.302185,47.2757781 117.265144,46.8039501 L117.265144,46.8039501 L117.165878,45.5434832 C116.950605,42.8187107 116.734277,40.1382922 116.521385,37.5763216 C112.000951,33.7868453 107.176798,31.5429915 102.488023,30.3079506 C110.199543,30.8388246 115.270654,32 115.270654,32 L115.270654,32 L121.017423,27.7924136 L121.240204,27.6751936 C122.034239,27.2430768 122.5761,26.7857859 122.831441,26.3112328 L122.831441,26.3112328 L123,26.1735919 L122.896843,26.1735919 L122.94118,26.0529085 C122.979599,25.9319316 123,25.8100467 123,25.6870063 C123,22.5785898 110.721038,20.0525624 95.4774648,20.0008097 L95.4774648,20.0008097 Z" id="Combined-Shape" fill="#000000"></path>
    </g>
</svg>