<?xml version="1.0" encoding="UTF-8"?>
<svg width="512px" height="512px" viewBox="0 0 512 512" version="1.1" xmlns="http://www.w3.org/2000/svg" xmlns:xlink="http://www.w3.org/1999/xlink">
    <title>favicon transparent 512</title>
    <defs>
        <radialGradient cx="123.411458%" cy="-24.7851562%" fx="123.411458%" fy="-24.7851562%" r="175.504197%" id="radialGradient-1">
            <stop stop-color="#0CFF00" offset="0%"></stop>
            <stop stop-color="#00FFA0" offset="39.7098995%"></stop>
            <stop stop-color="#FF0059" offset="100%"></stop>
        </radialGradient>
    </defs>
    <g id="favicon-transparent-512" stroke="none" stroke-width="1" fill="none" fill-rule="evenodd">
        <rect id="Rectangle" fill="url(#radialGradient-1)" x="0" y="0" width="512" height="512" rx="256"></rect>
        <path d="M254.761649,459 C254.761649,459 274.293584,405.431702 275.854832,293.573283 C276.012096,282.310022 233.118421,261.314476 233.118421,272.578527 C233.118421,391.59283 254.761649,459 254.761649,459 M254.487239,53 C295.791715,53 329.276316,59.8010622 329.276316,68.1902931 C329.276316,68.6284897 329.179441,69.0611991 329.000778,69.4899889 L329.000778,69.4899889 L329.276316,69.4899889 L328.826085,69.8576351 C328.082054,71.2404237 326.427238,72.5683397 323.980748,73.8139469 L323.980748,73.8139469 L308.630827,85.0526316 C308.630827,85.0526316 305.999488,84.4501117 301.292717,83.6547855 L300.440679,83.5125158 C294.452471,82.5244566 285.473599,81.289404 274.488835,80.5331536 C287.013603,83.832818 299.898165,89.8261326 311.971595,99.9472801 C312.846432,110.475216 313.742996,121.751981 314.617604,133.056926 L314.879284,136.448535 C317.060393,164.793518 319.075959,192.862539 320.237121,209.291678 L350.644737,242.254301 L350.271837,242.254301 C350.514103,242.765014 350.644737,243.281927 350.644737,243.804265 C350.644737,253.489989 308.191108,261.342105 255.822764,261.342105 C203.453629,261.342105 161,253.489989 161,243.804265 C161,243.281927 161.130634,242.765014 161.3729,242.254301 L161.3729,242.254301 L161,242.254301 L192.668814,207.921053 C192.668814,207.921053 192.815926,208.034728 193.146279,208.236948 C193.081961,208.157922 193.052632,208.115886 193.052632,208.115886 L203.05838,84.7530145 C203.05838,84.7530145 203.257673,84.6709268 203.642453,84.5236878 C202.007489,84.8492012 201.136914,85.0526316 201.136914,85.0526316 L201.136914,85.0526316 L185.594038,74.1118265 C182.79975,72.772936 180.928157,71.3344909 180.133306,69.8309827 L180.133306,69.8309827 L179.697368,69.4899889 L179.972906,69.4899889 C179.794243,69.0611991 179.697368,68.6284897 179.697368,68.1902931 C179.697368,59.8010622 213.181969,53 254.487239,53 Z" id="Combined-Shape" fill="#FFFFFF"></path>
    </g>
</svg>