<?xml version="1.0" encoding="UTF-8"?>
<svg width="192px" height="192px" viewBox="0 0 192 192" version="1.1" xmlns="http://www.w3.org/2000/svg" xmlns:xlink="http://www.w3.org/1999/xlink">
    <title>favicon transparent 192 safari</title>
    <g id="favicon-transparent-192-safari" stroke="none" stroke-width="1" fill="none" fill-rule="evenodd">
        <path d="M96,7 L187.301426,73.3343685 L152.427384,180.665631 L39.5726158,180.665631 L4.69857444,73.3343685 L96,7 Z M89.4366197,110.14506 C89.4366197,147.080533 96.1700017,168 96.1700017,168 C96.1700017,168 102.246543,151.375356 102.73226,116.660674 C102.781186,113.165179 89.4366197,106.64932 89.4366197,110.14506 Z M96.5318924,42.0008536 L95.6373602,42.0008536 C82.9933745,42.0491521 72.8169014,44.1409484 72.8169014,46.7142289 C72.8169014,46.8502209 72.84704,46.9845101 72.9026235,47.1175828 L72.9026235,47.1175828 L72.8169014,47.1175828 L72.952525,47.2234084 L73.0282357,47.3501559 C73.3080489,47.7709253 73.8611068,48.1742027 74.6514025,48.5519462 L74.6514025,48.5519462 L79.4869162,51.9473684 C79.5434125,51.9343761 79.8083196,51.8742193 80.2653607,51.7836138 C80.1463393,51.8290571 80.0846995,51.8543838 80.0846995,51.8543838 L80.0846995,51.8543838 L76.971831,90.1394128 C76.971831,90.1394128 76.980939,90.1524348 76.9999727,90.1763777 C76.8978954,90.1139987 76.8524224,90.0789474 76.8524224,90.0789474 L76.8524224,90.0789474 L67,100.734093 L67.1160123,100.734093 L67.0660882,100.853323 C67.0228607,100.972906 67,101.093538 67,101.215117 C67,104.190972 79.9448323,106.609101 96.012285,106.657166 L96.012285,106.657166 L96.987954,106.657166 C113.055168,106.609101 126,104.190972 126,101.215117 C126,101.053012 125.959359,100.892591 125.883988,100.734093 L125.883988,100.734093 L126,100.734093 L116.539857,90.5030548 C116.221819,86.0142283 115.697817,78.7263955 115.114038,71.0452548 L115.114038,71.0452548 L115.034346,69.9991639 L115.034346,69.9991639 L114.954,68.949572 L114.873081,67.8978211 L114.668811,65.2678041 L114.586528,64.2190639 C114.380531,61.6015036 114.172602,59.0203134 113.968475,56.5698455 C110.212735,53.4291355 106.2047,51.5692032 102.30853,50.5448572 C107.182271,50.8796349 110.786596,51.5166027 112.232742,51.8023322 L112.232742,51.8023322 L112.442324,51.8442928 C112.761524,51.9090832 112.929135,51.9473684 112.929135,51.9473684 L112.929135,51.9473684 L117.704619,48.4595008 L117.92553,48.3427726 C118.565874,47.9903403 119.003716,47.617907 119.212042,47.2316799 L119.212042,47.2316799 L119.352113,47.1175828 L119.266391,47.1175828 L119.313319,46.9840866 C119.338718,46.8947948 119.352113,46.8048903 119.352113,46.7142289 C119.352113,44.1409484 109.17564,42.0491521 96.5318924,42.0008536 L96.5318924,42.0008536 Z" id="Combined-Shape" fill="#000000"></path>
    </g>
</svg>