<?xml version="1.0" encoding="UTF-8"?>
<svg width="13px" height="13px" viewBox="0 0 13 13" version="1.1" xmlns="http://www.w3.org/2000/svg" xmlns:xlink="http://www.w3.org/1999/xlink">
    <g stroke="none" stroke-width="1" fill="none" fill-rule="evenodd">
        <g transform="translate(-282.000000, -361.000000)">
            <g transform="translate(282.295464, 361.262625)">
                <path d="M8.52632115,0.206399646 L12.6708031,4.3508816 L12.661,4.358 L12.6666462,4.36391328 L8.58700169,8.44355782 C8.30829151,8.72226801 7.85641301,8.72226801 7.57770283,8.44355782 C7.30334388,8.16919887 7.30334388,7.72437513 7.57770283,7.45001618 L7.58558046,7.44226153 L7.58558046,7.44226153 L10.09,5.014 L6.74673318,5.01483474 L6.48666489,5.01785375 C2.81480954,5.10436485 1.53246144,7.04868093 1.41821285,10.6630177 C1.41330081,10.8184136 1.41042339,10.9653626 1.40935032,11.1211587 L1.40935032,11.1211587 L1.40954174,11.4496711 L1.42707815,12.7375319 L0.0176932109,12.7375319 L0.0168421,12.5662213 L0.00193623999,11.6422137 L-8.21109012e-14,11.1062261 L0.00953149929,10.6184895 C0.14763001,6.24964329 1.96481476,3.6054498 6.74673318,3.6054498 L6.74673318,3.6054498 L10,3.605 L7.53555325,1.19709881 C7.26039146,0.928325615 7.25521248,0.487379186 7.52398568,0.212217396 L7.5297355,0.206399646 C7.80493503,-0.0687998819 8.25112162,-0.0687998819 8.52632115,0.206399646 Z" id="Combined-Shape"></path>
            </g>
        </g>
    </g>
</svg>