<?xml version="1.0" encoding="UTF-8"?>
<svg width="512px" height="512px" viewBox="0 0 512 512" version="1.1" xmlns="http://www.w3.org/2000/svg" xmlns:xlink="http://www.w3.org/1999/xlink">
    <title>favicon solid</title>
    <defs>
        <radialGradient cx="82.9491121%" cy="16.7809821%" fx="82.9491121%" fy="16.7809821%" r="110.299831%" id="radialGradient-1">
            <stop stop-color="#FF0092" offset="0%"></stop>
            <stop stop-color="#FF0059" offset="100%"></stop>
        </radialGradient>
        <polygon id="path-2" points="0 0 168 0 168 48 0 48"></polygon>
    </defs>
    <g id="favicon-solid" stroke="none" stroke-width="1" fill="none" fill-rule="evenodd">
        <rect id="Rectangle" fill="url(#radialGradient-1)" x="0" y="0" width="512" height="512"></rect>
        <g id="Pushpin" transform="translate(172.500000, 76.000000)">
            <path d="M84.2507784,360 C84.2507784,360 102.074871,312.545617 103.499606,213.453943 C103.64312,203.476193 64.5,184.876933 64.5,194.855383 C64.5,300.286217 84.2507784,360 84.2507784,360" id="Fill-1" fill="#FEFEFE"></path>
            <path d="M104.137781,145.741835 C39.6991328,154.114416 28.5,137.936709 28.5,137.936709 L37.318695,28.3520285 C37.318695,28.3520285 90.9731746,6.07788481 133.310761,41.8492722 C137.166005,88.6097152 141.5,152 141.5,152 L121.710683,152" id="Fill-3" fill="#FEFEFE"></path>
            <g id="Group-7" transform="translate(0.000000, 138.000000)">
                <mask id="mask-3" fill="white">
                    <use xlink:href="#path-2"></use>
                </mask>
                <g id="Clip-6"></g>
                <path d="M168,30.8491847 L139.945633,0 C139.945633,0 128.845923,8.36023908 83.7555413,8.36023908 C38.7212686,8.36023908 28.0542969,0 28.0542969,0 L-7.01359175e-05,30.8491847 L0.330270036,30.8491847 C0.115654128,31.3080717 -7.01359175e-05,31.7725294 -7.01359175e-05,32.2418615 C-7.01359175e-05,40.9446991 37.6082116,48 84.0003156,48 C130.391718,48 168,40.9446991 168,32.2418615 C168,31.7725294 167.884276,31.3080717 167.66966,30.8491847 L168,30.8491847 Z" id="Fill-5" fill="#FEFEFE" mask="url(#mask-3)"></path>
            </g>
            <path d="M149.756844,14.6622808 C149.91451,14.2810169 150,13.8962679 150,13.5066399 C150,6.04724987 120.450606,0 84.0003504,0 C47.549394,0 18,6.04724987 18,13.5066399 C18,13.8962679 18.08549,14.2810169 18.2431559,14.6622808 L18,14.6622808 L18.3847048,14.9654797 C19.0861429,16.3023429 20.7377809,17.5813544 23.2036757,18.7718457 L36.9199089,28.5 C36.9199089,28.5 56.6036215,23.8655873 84.0003504,23.8655873 C111.693491,23.8655873 131.780828,28.5 131.780828,28.5 L145.326783,18.5069823 C147.485754,17.3994351 148.946091,16.2187019 149.602682,14.989178 L150,14.6622808 L149.756844,14.6622808 Z" id="Fill-8" fill="#FEFEFE"></path>
        </g>
    </g>
</svg>