<?xml version="1.0" encoding="UTF-8"?>
<svg width="512px" height="512px" viewBox="0 0 512 512" version="1.1" xmlns="http://www.w3.org/2000/svg" xmlns:xlink="http://www.w3.org/1999/xlink">
    <title>favicon transparent 512</title>
    <defs>
        <radialGradient cx="82.9491121%" cy="16.7809821%" fx="82.9491121%" fy="16.7809821%" r="110.299831%" id="radialGradient-1">
            <stop stop-color="#FF0092" offset="0%"></stop>
            <stop stop-color="#FF0085" offset="44.4902753%"></stop>
            <stop stop-color="#FF0059" offset="100%"></stop>
        </radialGradient>
        <polygon id="path-2" points="0 156 189 156 189 210 0 210"></polygon>
    </defs>
    <g id="favicon-transparent-512" stroke="none" stroke-width="1" fill="none" fill-rule="evenodd">
        <rect id="Rectangle" fill="url(#radialGradient-1)" x="0" y="0" width="512" height="512" rx="256"></rect>
        <g id="Pushpin" transform="translate(162.000000, 53.000000)">
            <path d="M95.2829294,406 C95.2829294,406 115.392163,352.613819 116.999556,241.135686 C117.161468,229.910717 73,208.986549 73,220.212306 C73,338.821994 95.2829294,406 95.2829294,406" id="Fill-1" fill="#FFFFFF"></path>
            <path d="M115.725,171 C43.3028027,180.431182 32,155.158592 32,155.158592 L41.9112767,31.7183769 C41.9112767,31.7183769 102.213214,6.6279622 149.796165,46.9221686 C154.12905,99.5948516 159,171 159,171 L115.725,171 Z" id="Fill-3" fill="#FFFFFF"></path>
            <path d="M189,190.705333 L157.43885,156 C157.43885,156 144.951681,165.405269 94.2250235,165.405269 C43.5614879,165.405269 31.5611497,156 31.5611497,156 L0,190.705333 L0.371632538,190.705333 C0.130189743,191.221581 0,191.744096 0,192.272094 C0,202.062787 42.3092993,210 94.5003945,210 C146.690701,210 189,202.062787 189,192.272094 C189,191.744096 188.86981,191.221581 188.628367,190.705333 L189,190.705333 Z" id="Fill-5" fill="#FFFFFF"></path>
            <path d="M168.725529,16.4629118 C168.9035,16.034826 169,15.6028272 169,15.1653501 C169,6.78989459 135.645002,0 94.5003955,0 C53.3549978,0 20,6.78989459 20,15.1653501 C20,15.6028272 20.0965,16.034826 20.2744714,16.4629118 L20,16.4629118 L20.4342501,16.8033456 C21.226025,18.304385 23.0903739,19.7404681 25.873846,21.0771601 L41.3565638,32 C41.3565638,32 63.5753001,26.7964489 94.5003955,26.7964489 C125.760077,26.7964489 148.43442,32 148.43442,32 L163.724929,20.7797696 C166.16195,19.5362078 167.81036,18.2104723 168.551512,16.8299543 L169,16.4629118 L168.725529,16.4629118 Z" id="Fill-8" fill="#FFFFFF"></path>
            <mask id="mask-3" fill="white">
                <use xlink:href="#path-2"></use>
            </mask>
            <g id="Clip-6"></g>
        </g>
    </g>
</svg>