<?xml version="1.0" encoding="UTF-8"?>
<svg width="512px" height="512px" viewBox="0 0 512 512" version="1.1" xmlns="http://www.w3.org/2000/svg" xmlns:xlink="http://www.w3.org/1999/xlink">
    <defs>
        <radialGradient cx="58.9378892%" cy="14.6332465%" fx="58.9378892%" fy="14.6332465%" r="180.495283%" gradientTransform="translate(0.589379,0.146332),scale(1.000000,0.466667),rotate(99.923665),translate(-0.589379,-0.146332)" id="radialGradient-1">
            <stop stop-color="#FF0092" offset="0%"></stop>
            <stop stop-color="#C20044" offset="100%"></stop>
        </radialGradient>
        <polygon id="path-2" points="7.01359174e-05 138 168.00007 138 168.00007 186 7.01359174e-05 186"></polygon>
    </defs>
    <g id="favicon-transparent" stroke="none" stroke-width="1" fill="none" fill-rule="evenodd">
        <g id="Pushpin" transform="translate(172.499930, 76.000000)">
            <path d="M84.2508485,360 C84.2508485,360 102.074942,312.545617 103.499676,213.453943 C103.64319,203.476193 64.5000701,184.876933 64.5000701,194.855383 C64.5000701,300.286217 84.2508485,360 84.2508485,360" id="Fill-1" fill="#FF0059"></path>
            <path d="M104.137851,145.741835 C39.6992029,154.114416 28.5000701,137.936709 28.5000701,137.936709 L37.3187651,28.3520285 C37.3187651,28.3520285 90.9732447,6.07788481 133.310831,41.8492722 C137.166075,88.6097152 141.50007,152 141.50007,152 L104.137851,145.741835 Z" id="Fill-3" fill="#FF0059"></path>
            <path d="M168.00007,168.849185 L139.945703,138 C139.945703,138 128.845993,146.360239 83.7556114,146.360239 C38.7213387,146.360239 28.054367,138 28.054367,138 L0,168.849185 L0.330340172,168.849185 C0.115724264,169.308072 0,169.772529 0,170.241862 C0,178.944699 37.6082817,186 84.0003857,186 C130.391788,186 168.00007,178.944699 168.00007,170.241862 C168.00007,169.772529 167.884346,169.308072 167.66973,168.849185 L168.00007,168.849185 Z" id="Fill-5" fill="#FF0059"></path>
            <path d="M149.756914,14.6622808 C149.91458,14.2810169 150.00007,13.8962679 150.00007,13.5066399 C150.00007,6.04724987 120.450676,0 84.0004205,0 C47.5494642,0 18.0000701,6.04724987 18.0000701,13.5066399 C18.0000701,13.8962679 18.0855601,14.2810169 18.243226,14.6622808 L18.0000701,14.6622808 L18.384775,14.9654797 C19.0862131,16.3023429 20.737851,17.5813544 23.2037458,18.7718457 L36.919979,28.5 C36.919979,28.5 56.6036917,23.8655873 84.0004205,23.8655873 C111.693561,23.8655873 131.780899,28.5 131.780899,28.5 L145.326853,18.5069823 C147.485824,17.3994351 148.946161,16.2187019 149.602752,14.989178 L150.00007,14.6622808 L149.756914,14.6622808 Z" id="Fill-8" fill="#FF0059"></path>
            <mask id="mask-3" fill="white">
                <use xlink:href="#path-2"></use>
            </mask>
            <g id="Clip-6"></g>
        </g>
    </g>
</svg>