<?xml version="1.0" standalone="no"?>
<!DOCTYPE svg PUBLIC "-//W3C//DTD SVG 20010904//EN"
 "http://www.w3.org/TR/2001/REC-SVG-20010904/DTD/svg10.dtd">
<svg version="1.0" xmlns="http://www.w3.org/2000/svg"
 width="192.000000pt" height="192.000000pt" viewBox="0 0 192.000000 192.000000"
 preserveAspectRatio="xMidYMid meet">
<metadata>
Created by potrace 1.14, written by Peter Selinger 2001-2017
</metadata>
<g transform="translate(0.000000,192.000000) scale(0.100000,-0.100000)"
fill="#000000" stroke="none">
<path d="M805 1908 c-203 -37 -372 -124 -515 -266 -197 -196 -285 -407 -284
-682 0 -136 9 -194 46 -305 97 -293 346 -532 641 -616 100 -28 153 -34 292
-33 236 1 453 89 632 257 145 136 233 297 290 529 12 52 11 268 -3 339 -49
260 -201 487 -419 630 -111 72 -206 110 -357 145 -42 10 -272 11 -323 2z m335
-203 c43 -8 82 -27 87 -40 1 -5 -14 -22 -35 -36 -31 -22 -45 -26 -87 -23 l-50
4 46 -24 c25 -13 50 -30 56 -38 6 -7 14 -60 18 -118 4 -58 8 -121 10 -140 2
-19 5 -62 7 -95 3 -58 5 -62 58 -118 30 -32 56 -62 58 -67 4 -12 -37 -38 -73
-45 -145 -29 -469 -27 -570 4 -52 16 -65 23 -65 35 0 6 27 39 60 73 33 35 60
66 61 70 2 38 10 129 14 178 3 33 8 96 11 140 3 44 7 91 8 105 3 20 -5 31 -40
55 -24 17 -44 33 -44 36 0 17 67 43 130 52 40 6 301 -1 340 -8z m-195 -814
c22 -10 51 -29 64 -41 23 -23 23 -25 17 -149 -4 -69 -9 -139 -10 -156 -5 -45
-16 -127 -21 -155 -3 -14 -7 -38 -10 -55 -11 -65 -33 -130 -38 -115 -19 52
-38 159 -62 355 -3 22 -8 106 -11 188 -7 167 -8 165 71 128z"/>
</g>
</svg>
